<svg xmlns="http://www.w3.org/2000/svg" viewBox="0 0 260 200"><path d="M80.289,120.647c-.109.145-.211.276-.3.389a2.827,2.827,0,0,0-.582,2.118,8.075,8.075,0,0,1-1.567.082l-.548-.055c-3.49-.512-3.951-4.009-3.388-6.393.8-3.386,3.576-5.745,5.173-7.8a7.224,7.224,0,0,0,1.865-4.984c.014-3.23-3.021-2.9-3.906-2.193A11.515,11.515,0,0,1,74.26,103.8a2.9,2.9,0,0,1-2.415-.024,2.343,2.343,0,0,1-.494-3.69c-.152,1.37.3,2.055.951,2.169s.989-.723,1.293-1.674c-1.445-.38-2.168-1.75-1.484-2.739.723,1.217,1.446,1.407,2.473.989-2.539-1.6-1.717-3.031-1.266-3.662A2.372,2.372,0,0,1,75,94.418c-.343.57-.458,1.984.647,2.168a17.84,17.84,0,0,1,2.168.666,9.35,9.35,0,0,1,4.565,4.014c1.028,2.054,1.028,4.945-1.027,7.913S78.274,112.87,76.982,115s-1.588,4.9.57,5.669A5.881,5.881,0,0,0,80.289,120.647Z"/><path d="M95.811,134.475a2.469,2.469,0,0,0-.15,2.286,3.61,3.61,0,0,1,1.75-1.788,1.912,1.912,0,0,1-.191,1.522,1.7,1.7,0,0,0,1.332-.989c-.343,2.853,1.407,2.967,2.092,2.815a2.39,2.39,0,0,1,.419,1.332,1.5,1.5,0,0,0,.723-1.9s.227-.305.38-.5a1.94,1.94,0,0,0,1.331.3,2.508,2.508,0,0,1,.343,1.522,3.436,3.436,0,0,0,1.1-1.9,1.661,1.661,0,0,0,.609-1.635c.951-.228,1.445.8,1.94,1.369a4.135,4.135,0,0,0-1.065-3.31c-1.027-.912-3.615.039-4.908.152s-2.244-.836-2.739-2.32a5.089,5.089,0,0,1,1.978-1.826c.724-.228,1.56-1.75,1.864-3.006.726-3.438-1.31-6.156-2.168-7.19a5.583,5.583,0,0,0-3.8-1.94c-2.245-.3-4.718.266-5.9-.3a.978.978,0,0,1-.512-.52,2.181,2.181,0,0,0-.763,1.206,1.905,1.905,0,0,0-.039.388,3.634,3.634,0,0,0,.713,1.941,5.955,5.955,0,0,1,.466.847,8.216,8.216,0,0,1,3.331,2.149c.838.947.38,1.6-.875,2.434a2.771,2.771,0,0,1,2.283,1.484c-.855.5-3.255,2.5-2.055,3.652C91.971,132.006,92.922,133.374,95.811,134.475Z"/><path d="M106.009,114.353c.646-.38,2.168-1.445,2.206-2.625a12.569,12.569,0,0,0-1.522.077c-.152-.419-.608-1.142-2.282-.8a2.863,2.863,0,0,0,.951-1.826c-1.484.456-.913-.8-2.511.038a3.079,3.079,0,0,0,.418-2.512c-.152-.609.076-1.066.571-.837a1.1,1.1,0,0,0-.6-1.383,3.1,3.1,0,0,1-.522-.134l-.055-.005.006-.012a4.3,4.3,0,0,1-.874-.443,7.172,7.172,0,0,1-.215.833l-.464,1.452-.853-1.263c-.792-1.171-1.2-1.147-1.865-1.107a3.436,3.436,0,0,1-1.326-.12,6.6,6.6,0,0,1-.713,2.677l-.239.4a29.412,29.412,0,0,0,3.767,4.586c.075,1.141,1.5,2.3,2.016,2.663.875.609-.021,1.775.076,2.283.19.989,1.445,1.179,2.4,2.244.076-.3.457-2.13-.114-3.043,1.217,1.445,2.282,2.434,3.652-.191a8.432,8.432,0,0,0-1.56.115A5.524,5.524,0,0,1,106.009,114.353Z"/><path d="M102.672,88.9l-.3,3.17a2.716,2.716,0,0,1-1.782,2.592,6.682,6.682,0,0,1,2.609,2.483,3.637,3.637,0,0,1,.245.564A5.051,5.051,0,0,0,104.5,95.03a1.165,1.165,0,0,0,1.4-1.321c-.523.149-.678-.338-.434-.916a3.08,3.08,0,0,0-.025-2.545c1.449,1.074,1.079-.255,2.474.426a2.863,2.863,0,0,0-.657-1.952c1.6.6,2.163-.046,2.379-.436a12.6,12.6,0,0,0,1.491.31c.145-1.171-1.194-2.458-1.774-2.934a4.41,4.41,0,0,0-4.112-.3A3.919,3.919,0,0,0,102.672,88.9Z"/><path d="M87.108,132a7.747,7.747,0,0,0,2.236-3.645c.511-1.768,1.788-4.952.192-7.764-1.734-3.056,0-4.413.76-4.908.868-.564,2.922-1.657,4.756-2.7a25.311,25.311,0,0,0,3.236-2.22,38.278,38.278,0,0,1-2.775-3.574l-.279-.395.105-.176-.04-.029a3.912,3.912,0,0,1-1.474-1.833,6.935,6.935,0,0,1-1.373,1.084l-.949.622-.186-1.119a2.467,2.467,0,0,0-.282-.721,3.035,3.035,0,0,1-1.026,1.2,2.611,2.611,0,0,1-1.6.448c-.68,1.544-1.532,3.033-2.028,4.432-.647,1.826-1.37,4.566-2.359,5.9s-2.586,3.843-3.462,4.908-.114,2.4-.3,3.081-1.065,1.522-2.283,0a2.025,2.025,0,0,0,1.37,2.055,1.4,1.4,0,0,1-1.6-.571c-.418.494-1.467,1.839-1,2.836-2.016.266-2.877,2.11-2.877,3.974-.837.3-1.1.8-1.066,1.217s1.059.6.761,1.142c-.418.761-2.092.8-2.282-1.218a2.13,2.13,0,0,0,1.065,3c-1.065,0-.647.914-.19,1.218-.228.5-.115,1.37.38,1.37a1.9,1.9,0,0,1-2.245.38,1.648,1.648,0,0,0,2.093,1.332c-.228,1.483.647,2.587,1.636,2.206a.991.991,0,0,0,1.407.951,2.046,2.046,0,0,0,2.891.647c.305.19.724.152.99.381.114-.381.418-.724.19-1.256.685.532,1.37.837,1.636,1.141a4.728,4.728,0,0,0-.305-1.712,7.346,7.346,0,0,1,1.827,1.065,2.859,2.859,0,0,0-.381-1.673,6.549,6.549,0,0,1,1.674.19c-.723-.989-.989-1.446-1.369-1.6a2.207,2.207,0,0,0-2.207-1.712,2.9,2.9,0,0,0-1.483.5c-.191.114-.685-.076-.99-.343a5.54,5.54,0,0,0-1.484-1.1,1.519,1.519,0,0,1-.76-1.674c.3-.8,1.75-.571,1.369.723.647.076,1.408-1.066,1.18-3.386C79.8,134.973,85.362,133.579,87.108,132Z"/><path d="M102.851,101.418c-.343-1.065.494-2.435-.3-3.918a7.415,7.415,0,0,0-4.641-3.12c2.739-.114,3.615-.761,3.729-2.358-2.093,2.054-2.4-.457-3.767.57.837-.761,1.332-1.75-.076-2.815.114.837-.19,1.673-1.369,1.6a5.636,5.636,0,0,0-3.3.722c-1.256.647-2.435.209-2.663-.742-.171-.712.156-1.693,1.058-1.693s1.027.647,1.826.381,1.323-.19,1.551.153a1.93,1.93,0,0,0-.182-2.131c-1.027.342-3.9-1.112-5.251-.257a2.321,2.321,0,0,0,.207-1.765c2.549-1.18,4.838-1.634,5.545-1.472.229.038.793-2.213-.12-2.327-1.505-.188-1.522-.305-2.4-1.37a2.6,2.6,0,0,0-2.093-.989c-.57.038-1.559-1.331-3.956-.456a1.405,1.405,0,0,1,.465-1.73,3.3,3.3,0,0,0-2.442,1.478,1.91,1.91,0,0,1,.447-1.719,3.66,3.66,0,0,0-2.468,2.118c-.456-.913-.836-1.485-.646-2.017-1.142.191-1.675,1.37-1.142,2.968-1.559-1.1-1.837-.312-3.054.069a3.016,3.016,0,0,1,1.331,1.711,3.216,3.216,0,0,0-2.245-.037c.381.494,1.142,1.864,1.979,1.483-.723.571-1.6,1.1-2.587.3a2.062,2.062,0,0,0,1.826,1.712l-.079.011c-1.739.629-.86,4.127.619,3.524-.076,1.522-.038,2.625-.913,2.054a2.281,2.281,0,0,1-1.027-1.179s.532,2.891,2.4,2.929c-1.521.647-.684,1.712-.342,2.968.53-1.449,2.154-.86,2.093-1.6a2.014,2.014,0,0,1-.006,1.826,1.745,1.745,0,0,0,1.342-.55c.034.516.309,1.135-.035,1.547.722-.275,1.2-.019,1.623-.5a.869.869,0,0,0,.631.918c-.028,0-1.52.367-1.548.363a2.532,2.532,0,0,0,2.945,1.165c-.837,1.179-.191,2.294,1.408,3.538,1.027.8,1.071,1.145.875,1.369-.266.305-.761.191-1.179-.571-.685,1.75,1.638,2.381,2.663,1.636a2.058,2.058,0,0,0,.951-1.978c.684-.038,1.407,1.293,1.521,1.978,1.1-.722,1.865-1.255,1.979-2.929.266,1.75.441,2.815,1.7,3.69a5.754,5.754,0,0,0,.472-3.766c1.864,2.016,2.778-.532,4.68,2.283a3.286,3.286,0,0,0,.076-2.4c1.255,1.674,3.576,2.549,4.033.418A1.673,1.673,0,0,1,102.851,101.418ZM88.624,81.284a2.311,2.311,0,0,1,2.237.468c.223.148.227.45.078.509a4.517,4.517,0,0,1-1.022.155,6.419,6.419,0,0,1-1.3.014,5.124,5.124,0,0,1-1.129-.232A4.007,4.007,0,0,1,88.624,81.284Z"/><path d="M179.71,120.647c.11.145.212.276.3.389a2.823,2.823,0,0,1,.583,2.118,8.075,8.075,0,0,0,1.567.082l.548-.055c3.489-.512,3.951-4.009,3.388-6.393-.8-3.386-3.576-5.745-5.174-7.8a7.227,7.227,0,0,1-1.864-4.984c-.015-3.23,3.021-2.9,3.906-2.193a11.515,11.515,0,0,0,2.772,1.988,2.9,2.9,0,0,0,2.414-.024,2.343,2.343,0,0,0,.5-3.69c.152,1.37-.3,2.055-.951,2.169s-.989-.723-1.293-1.674c1.445-.38,2.168-1.75,1.483-2.739-.722,1.217-1.445,1.407-2.472.989,2.539-1.6,1.717-3.031,1.266-3.662A2.372,2.372,0,0,0,185,94.418c.343.57.458,1.984-.647,2.168a17.84,17.84,0,0,0-2.168.666,9.355,9.355,0,0,0-4.566,4.014c-1.027,2.054-1.027,4.945,1.027,7.913s3.082,3.691,4.375,5.821,1.588,4.9-.57,5.669A5.885,5.885,0,0,1,179.71,120.647Z"/><path d="M164.189,134.475a2.472,2.472,0,0,1,.15,2.286,3.61,3.61,0,0,0-1.75-1.788,1.915,1.915,0,0,0,.19,1.522,1.7,1.7,0,0,1-1.331-.989c.342,2.853-1.408,2.967-2.092,2.815a2.39,2.39,0,0,0-.419,1.332,1.5,1.5,0,0,1-.723-1.9s-.228-.305-.38-.5a1.94,1.94,0,0,1-1.331.3,2.508,2.508,0,0,0-.343,1.522,3.436,3.436,0,0,1-1.1-1.9,1.661,1.661,0,0,1-.609-1.635c-.951-.228-1.445.8-1.94,1.369a4.135,4.135,0,0,1,1.065-3.31c1.027-.912,3.614.039,4.908.152s2.244-.836,2.739-2.32a5.092,5.092,0,0,0-1.979-1.826c-.723-.228-1.559-1.75-1.863-3.006-.727-3.438,1.31-6.156,2.167-7.19a5.589,5.589,0,0,1,3.805-1.94c2.245-.3,4.718.266,5.9-.3a.978.978,0,0,0,.512-.52,2.181,2.181,0,0,1,.763,1.206,1.905,1.905,0,0,1,.039.388,3.634,3.634,0,0,1-.713,1.941,5.857,5.857,0,0,0-.466.847,8.216,8.216,0,0,0-3.331,2.149c-.838.947-.38,1.6.875,2.434a2.768,2.768,0,0,0-2.282,1.484c.853.5,3.254,2.5,2.054,3.652C168.029,132.006,167.078,133.374,164.189,134.475Z"/><path d="M153.991,114.353c-.646-.38-2.168-1.445-2.207-2.625a12.576,12.576,0,0,1,1.523.077c.152-.419.608-1.142,2.282-.8a2.863,2.863,0,0,1-.951-1.826c1.484.456.913-.8,2.511.038a3.079,3.079,0,0,1-.418-2.512c.152-.609-.076-1.066-.571-.837a1.1,1.1,0,0,1,.6-1.383,3.1,3.1,0,0,0,.522-.134l.054-.005,0-.012a4.3,4.3,0,0,0,.874-.443,7.366,7.366,0,0,0,.214.833l.465,1.452.853-1.263c.792-1.171,1.2-1.147,1.865-1.107a3.436,3.436,0,0,0,1.326-.12,6.585,6.585,0,0,0,.713,2.677l.239.4a29.468,29.468,0,0,1-3.767,4.586c-.076,1.141-1.5,2.3-2.016,2.663-.875.609.021,1.775-.076,2.283-.19.989-1.445,1.179-2.4,2.244-.076-.3-.457-2.13.114-3.043-1.217,1.445-2.282,2.434-3.652-.191a8.432,8.432,0,0,1,1.56.115A5.524,5.524,0,0,0,153.991,114.353Z"/><path d="M157.328,88.9l.3,3.17a2.719,2.719,0,0,0,1.783,2.592,6.682,6.682,0,0,0-2.609,2.483,3.735,3.735,0,0,0-.245.564A5.051,5.051,0,0,1,155.5,95.03a1.166,1.166,0,0,1-1.4-1.321c.524.149.68-.338.435-.916a3.08,3.08,0,0,1,.025-2.545c-1.449,1.074-1.079-.255-2.475.426a2.869,2.869,0,0,1,.658-1.952c-1.6.6-2.163-.046-2.379-.436a12.6,12.6,0,0,1-1.491.31c-.145-1.171,1.194-2.458,1.774-2.934a4.41,4.41,0,0,1,4.112-.3A3.919,3.919,0,0,1,157.328,88.9Z"/><path d="M172.892,132a7.736,7.736,0,0,1-2.235-3.645c-.512-1.768-1.789-4.952-.193-7.764,1.734-3.056,0-4.413-.761-4.908-.868-.564-2.921-1.657-4.755-2.7a25.311,25.311,0,0,1-3.236-2.22,38.278,38.278,0,0,0,2.775-3.574l.279-.395-.1-.176.04-.029a3.912,3.912,0,0,0,1.474-1.833,6.935,6.935,0,0,0,1.373,1.084l.948.622.187-1.119a2.467,2.467,0,0,1,.282-.721,3.035,3.035,0,0,0,1.026,1.2,2.611,2.611,0,0,0,1.6.448c.68,1.544,1.532,3.033,2.028,4.432.647,1.826,1.369,4.566,2.359,5.9s2.586,3.843,3.461,4.908.115,2.4.305,3.081,1.065,1.522,2.283,0a2.025,2.025,0,0,1-1.37,2.055,1.4,1.4,0,0,0,1.6-.571c.418.494,1.467,1.839,1,2.836,2.017.266,2.878,2.11,2.878,3.974.837.3,1.1.8,1.065,1.217s-1.058.6-.76,1.142c.418.761,2.092.8,2.282-1.218a2.13,2.13,0,0,1-1.065,3c1.065,0,.647.914.19,1.218.228.5.115,1.37-.38,1.37a1.9,1.9,0,0,0,2.245.38,1.648,1.648,0,0,1-2.093,1.332c.228,1.483-.647,2.587-1.636,2.206a.991.991,0,0,1-1.407.951,2.046,2.046,0,0,1-2.891.647c-.3.19-.724.152-.99.381-.114-.381-.418-.724-.19-1.256-.685.532-1.37.837-1.636,1.141a4.749,4.749,0,0,1,.3-1.712,7.335,7.335,0,0,0-1.826,1.065,2.859,2.859,0,0,1,.381-1.673,6.549,6.549,0,0,0-1.674.19c.723-.989.989-1.446,1.369-1.6a2.207,2.207,0,0,1,2.207-1.712,2.906,2.906,0,0,1,1.483.5c.191.114.685-.076.99-.343a5.54,5.54,0,0,1,1.484-1.1,1.519,1.519,0,0,0,.76-1.674c-.3-.8-1.75-.571-1.369.723-.647.076-1.408-1.066-1.18-3.386C180.2,134.973,174.638,133.579,172.892,132Z"/><path d="M155.018,102.521c.457,2.131,2.778,1.256,4.033-.418a3.281,3.281,0,0,0,.076,2.4c1.9-2.815,2.815-.267,4.679-2.283a5.754,5.754,0,0,0,.473,3.766c1.255-.875,1.43-1.94,1.7-3.69.114,1.674.875,2.207,1.978,2.929.115-.685.838-2.016,1.522-1.978a2.058,2.058,0,0,0,.951,1.978c1.025.745,3.348.114,2.663-1.636-.418.762-.913.876-1.179.571-.2-.224-.153-.571.875-1.369,1.6-1.244,2.245-2.359,1.407-3.538a2.534,2.534,0,0,0,2.946-1.165c-.028,0-1.52-.368-1.548-.363a.867.867,0,0,0,.63-.918c.422.478.9.222,1.624.5-.345-.412-.069-1.031-.035-1.547a1.745,1.745,0,0,0,1.342.55,2.011,2.011,0,0,1-.006-1.826c-.061.738,1.563.149,2.093,1.6.342-1.256,1.179-2.321-.342-2.968,1.864-.038,2.4-2.929,2.4-2.929a2.281,2.281,0,0,1-1.027,1.179c-.875.571-.837-.532-.913-2.054,1.478.6,2.358-2.895.619-3.524l-.079-.011a2.063,2.063,0,0,0,1.826-1.712c-.989.8-1.864.267-2.587-.3.837.381,1.6-.989,1.979-1.483a3.218,3.218,0,0,0-2.246.037A3.021,3.021,0,0,1,182.2,80.6c-1.217-.381-1.5-1.173-3.055-.069.533-1.6,0-2.777-1.141-2.968.19.532-.19,1.1-.646,2.017a3.663,3.663,0,0,0-2.468-2.118,1.91,1.91,0,0,1,.447,1.719,3.3,3.3,0,0,0-2.441-1.478,1.4,1.4,0,0,1,.463,1.73c-2.4-.875-3.385.494-3.956.456a2.6,2.6,0,0,0-2.093.989c-.874,1.065-.892,1.182-2.4,1.37-.914.114-.349,2.365-.12,2.327.707-.162,3,.292,5.545,1.472a2.321,2.321,0,0,0,.207,1.765c-1.351-.855-4.224.6-5.251.257a1.928,1.928,0,0,0-.182,2.131c.228-.343.752-.42,1.551-.153s.913-.381,1.826-.381,1.229.981,1.058,1.693c-.228.951-1.407,1.389-2.663.742a5.637,5.637,0,0,0-3.3-.722c-1.179.075-1.484-.761-1.369-1.6-1.408,1.065-.914,2.054-.076,2.815-1.37-1.027-1.674,1.484-3.767-.57.114,1.6.989,2.244,3.728,2.358a7.416,7.416,0,0,0-4.64,3.12c-.8,1.483.037,2.853-.305,3.918A1.673,1.673,0,0,1,155.018,102.521Zm17.5-20.323a5.124,5.124,0,0,1-1.129.232,6.429,6.429,0,0,1-1.3-.014,4.516,4.516,0,0,1-1.021-.155c-.149-.059-.145-.361.078-.509a2.309,2.309,0,0,1,2.236-.468A4,4,0,0,1,172.514,82.2Z"/><path d="M94.8,87.191l.382.3a1.681,1.681,0,0,1,.343.393,4.707,4.707,0,0,1,.642.187c1.359.487,3.589.717,4.384-.744.652-1.2-.218-2.647-1.179-3.486s.03-1.482-.539-2-1.2.256-1.41,1.2a2.277,2.277,0,0,0,1,2.256c.718.641.616,2.281-.846,1.948a13.36,13.36,0,0,1-1.944-.837Z"/><path d="M164.977,87.191l-.382.3a1.681,1.681,0,0,0-.343.393,4.748,4.748,0,0,0-.642.187c-1.358.487-3.589.717-4.384-.744-.652-1.2.218-2.647,1.18-3.486s-.031-1.482.538-2,1.205.256,1.41,1.2a2.277,2.277,0,0,1-1,2.256c-.717.641-.615,2.281.846,1.948a13.409,13.409,0,0,0,1.945-.837Z"/><path d="M107.3,61.343c-3.232.925,5.238,1.78,3.184,3.064-1.5.935,2.569,2.637,4.209,3.882a6.925,6.925,0,0,0,1.234.068c-3.077-6.043-4.018-10.622-6.613-12.36-2.343-1.569-5.509.2-6.377,2.654C106.89,58.378,110.529,60.416,107.3,61.343Z"/><path d="M114.516,83.187c1.145-.966.947,1.079.976,1.923.022.669,3.145-.437,3.817,1.333.379-.125.754-.264,1.128-.41q.9-.407,1.784-.884a7.835,7.835,0,0,0-8.81-7.33c1.041.911,2.035,2.4,0,2.487s-1.511,1.922-2.618,3.02C112.377,83.655,113.371,84.152,114.516,83.187Z"/><path d="M108.131,76.176c-.849.441-2.061.7-1.6-.628s-.856-1.458-1.282-2.448c-.612.937-1.183,1.451-.851,2.432s-.934.337-1.485.141-.527,3.508-3.137,1.548c1.3-.16.639-1.219-.313-2.165a2.784,2.784,0,0,1-.2-3.293,5.773,5.773,0,0,0,2.842,2.5c-1.082-1.575-1.46-2.956-.377-4.448a3.321,3.321,0,0,1,2.433-1.123c1.5,0,6.846.655,9.261,3.078,2.49,2.5,3.469,1,4.161,1.741s-4.105,1.242-.7,1.974c3.464.745,6.846,3.946,9.406,7.036a34.966,34.966,0,0,0,3.173-2.733l.526-.51.525.51c.795.771,1.61,1.487,2.441,2.157,5.665-4.256,13.645-10.589,14.339-16.721.951-8.41,3.437-8.239,5.132-7.694a3.54,3.54,0,0,0-5.086-3.108,2.866,2.866,0,0,0-1.236,2.095c-1.424-1.68-2.248-4.01-1.514-5.58-1.314.015-4.081,2.078-1.741,7.293-2.892-2.349-5.447-.669-6.625,2.179,1.516-.762,8.315,1.35,7.33,6.662-1.591-1.573-2.326-2.029-2.731-1.212s.2,5.034-.352,5.6-1.579-3.022-2.6-1.37-.443,4.436-2.089,5.448a1.089,1.089,0,0,1-1.319-.177c.8-2.28.434-4.489-1.085-5.28a2.444,2.444,0,0,0-3.039.487,3.819,3.819,0,0,1,1.562,3.226c-1.351-1.676-2.333-1.126-2.617-.658s-.083,1.423.359,2.61a1.979,1.979,0,0,1-.874,2.657c-.513-1.031-.968-2.01-1.359-2.706-.838-1.493-1.993-.932-3.375-2.282s-1.079-4.5-1.716-6.332-1.547,2-1.965,1.322,1.105-4.658.889-5.544-1.032-.6-2.93.583c.172-4.47,5.063-5.624,7.486-5.279-.049,1.819.139,3.2.761,3.744.69.606,2.539.994,3.863-2.369.91,1.765.127,4.848-.884,5.953a4.1,4.1,0,0,0,5.114-.745c2.81-2.8.781-8.821-4.453-12.378-4.472-3.039-9.788-1.927-12.306,2.052.4-1.768.408-3.349-.492-4.151a3.542,3.542,0,0,0-5.647,1.913c1.774-.158,4.239.222,3.315,8.635-.277,2.535.653,5.378,2.162,8.222C111.206,70.087,106.78,63.17,103,63.02c-3.964-.156-4.608,2.994-9.383,3.6a9.288,9.288,0,0,0,5.43,2.8L99.2,69.4c.158.017.316.029.474.035-3.78,1.818-3.926,4.318-3.3,6.133A3.837,3.837,0,0,1,95.619,79a3.391,3.391,0,0,0,2.489-1.7C99.188,80.865,106.437,81.943,108.131,76.176Z"/><path d="M140.391,86.4c.838-2.268,4.055-.988,4.061-1.641.007-.845-.241-2.884.928-1.947s2.15.417,3.727.05c-1.134-1.071-.654-2.922-2.691-2.957s-1.08-1.549-.061-2.485c-5.547-.356-8.414,3.853-8.637,7.716A27.838,27.838,0,0,0,140.391,86.4Z"/><path d="M154.623,95.674a9.556,9.556,0,0,0-.482-3.286c-.3-.827-.548-1.361-1.372-1.247-.723.1-1.253.308-1.345-.913-.068-.909-1.667-1-2.443-.886h0l-.759.119L148.165,89c-6.742-.473-12.913-3.569-18.165-8.665-5.251,5.1-11.423,8.192-18.165,8.665l-.058.464-.759-.119h0c-.776-.114-2.375-.023-2.443.886-.092,1.221-.623,1.013-1.346.913-.823-.114-1.072.42-1.371,1.247a9.532,9.532,0,0,0-.482,3.286q-.05,1.32-.051,2.658A72.854,72.854,0,0,0,106,108.2a75.167,75.167,0,0,0,1.767,8.7c3.849,14.065,11.984,25.038,22.238,29.61,10.253-4.572,18.388-15.545,22.237-29.61a74.954,74.954,0,0,0,1.768-8.7,72.855,72.855,0,0,0,.668-9.863Q154.673,96.994,154.623,95.674Zm-34.338,22.895a8.975,8.975,0,1,1,7.929-13.209h-1.947a7.35,7.35,0,0,0-6.03-3.168A7.4,7.4,0,0,0,120.261,117a7.417,7.417,0,0,0,6.077-3.284h1.947A9.193,9.193,0,0,1,120.285,118.569Zm19.237,0A8.991,8.991,0,1,1,139.5,100.6a9.061,9.061,0,0,1,8.212,4.927h-2.017a7.221,7.221,0,0,0-6.171-3.355,7.417,7.417,0,1,0,.07,14.828,7.354,7.354,0,0,0,7.015-5.138h-5.7v-1.572H148.7A9.121,9.121,0,0,1,139.522,118.569Z"/><path d="M163.19,74.362c.425-1.875,0-4.343-3.959-5.728a3.65,3.65,0,0,0,2.358-1.173,5.046,5.046,0,0,1-3.358-.594,6.114,6.114,0,0,0-4.28-.416c-.828-1.542,3.5-2.4,7.658-1.158-.406-3.42-3.976-6.624-7.457-5.282-2.238.864-4.037,3.13-6.271,6.226-1,4.616-5.437,9.126-10.739,13.411,3.014-1.334,6.843-2.879,5.629-3.99-1.977-1.812,9.7-2.881,7.423-5.135-1.421-1.406,3.85-2.413,5.782-1.5a3.44,3.44,0,0,1,1.382,4.688,5.775,5.775,0,0,0,2.545-2.806,2.787,2.787,0,0,1,.165,3.3c-.842,1.046-1.376,2.172-.07,2.186-2.375,2.238-2.765-1.444-3.291-1.188s-1.712,1.037-1.491.025-.4-1.459-1.117-2.322c-.313,1.031-1.606,1.3-1,2.576s-.628,1.146-1.521.8c2.328,5.541,9.412,3.661,10.086,0a3.394,3.394,0,0,0,2.664,1.416A3.839,3.839,0,0,1,163.19,74.362Z"/></svg>