<svg xmlns="http://www.w3.org/2000/svg" width="1920" height="1070.237" viewBox="0 0 1920 1070.237"><defs><style>.a{fill:#e0dcd4;}.b{fill:#464541;}</style></defs><title>ar-2</title><rect class="a" width="1920" height="1070.237"/><path class="b" d="M829.542,691.372a17.847,17.847,0,0,1,1.891-4.427,12.089,12.089,0,0,1,2.785-3.532q9.152.7,12.735,9.053,3.779-8.954,12.434-8.954a34.782,34.782,0,0,1,6.567.8,31.152,31.152,0,0,1-1.045,7.311,26.129,26.129,0,0,1-2.836,7.213,25.178,25.178,0,0,0-5.074-1q-4.974,0-8.157,5.074v30.939a43.608,43.608,0,0,1-7.71.6,45.31,45.31,0,0,1-7.808-.6V701.718Q833.324,694.257,829.542,691.372Z"/><path class="b" d="M908.715,714.054H882.844a11.169,11.169,0,0,0,2.279,6.891q2.079,2.462,6.838,2.46a26.414,26.414,0,0,0,5.5-.673,50.87,50.87,0,0,0,7.184-2.212,15.88,15.88,0,0,1,4.065,9.153q-7.962,5.67-19.5,5.67a24.61,24.61,0,0,1-10.5-1.989,17.728,17.728,0,0,1-6.865-5.572,22.274,22.274,0,0,1-3.729-8.456,48.486,48.486,0,0,1-1.1-10.644,37.6,37.6,0,0,1,1.343-10.3,23.521,23.521,0,0,1,4.08-8.208,18.982,18.982,0,0,1,6.963-5.472,23.05,23.05,0,0,1,9.9-1.989,22.235,22.235,0,0,1,8.606,1.592,18.613,18.613,0,0,1,10.645,11.042A24.127,24.127,0,0,1,910,703.808,35.2,35.2,0,0,1,908.715,714.054Zm-25.97-10.744h13.032v-1.095a10.555,10.555,0,0,0-1.628-6.068,5.527,5.527,0,0,0-4.888-2.388,5.292,5.292,0,0,0-4.69,2.239Q883.043,698.236,882.745,703.31Z"/><path class="b" d="M935.679,695.649v38.2q-1.693.3-3.681.448t-4.079.149q-2.091,0-4.129-.149a37.3,37.3,0,0,1-3.73-.448V700.922q0-5.769-4.676-5.77h-1.492a18.265,18.265,0,0,1-.6-5.273,22.374,22.374,0,0,1,.6-5.57q2.586-.2,4.776-.348t3.978-.15h2.189A10.2,10.2,0,0,1,932.794,687Q935.679,690.18,935.679,695.649Zm-17.411-31.436a15.38,15.38,0,0,1,7.462-1.592,13.9,13.9,0,0,1,7.263,1.592,14.55,14.55,0,0,1,0,11.54,16.486,16.486,0,0,1-7.561,1.492,14.062,14.062,0,0,1-7.164-1.492,14.55,14.55,0,0,1,0-11.54Z"/><path class="b" d="M944.234,720.52,955.972,704.8a103.009,103.009,0,0,1,8.059-9.352l-.3-.5a117.834,117.834,0,0,1-12.336.8h-7.659a20.805,20.805,0,0,1-.6-5.073,28.716,28.716,0,0,1,.9-6.467h34.62q2.088,6.069,2.088,8.555a7.709,7.709,0,0,1-1.491,4.577l-12.237,16.216a92.457,92.457,0,0,1-7.462,8.953l.3.5a58.723,58.723,0,0,1,7.859-.6h3.482a20.926,20.926,0,0,0,9.251-1.691,17.61,17.61,0,0,1,1.592,6.268q0,6.864-8.257,6.864H943.737a24.427,24.427,0,0,1-1.692-7.71A8.785,8.785,0,0,1,944.234,720.52Z"/><path class="b" d="M1026.909,714.054h-25.87a11.169,11.169,0,0,0,2.278,6.891q2.08,2.462,6.838,2.46a26.414,26.414,0,0,0,5.5-.673,50.919,50.919,0,0,0,7.185-2.212,15.885,15.885,0,0,1,4.064,9.153q-7.962,5.67-19.5,5.67a24.61,24.61,0,0,1-10.5-1.989,17.728,17.728,0,0,1-6.865-5.572,22.289,22.289,0,0,1-3.729-8.456,48.488,48.488,0,0,1-1.1-10.644,37.565,37.565,0,0,1,1.343-10.3,23.519,23.519,0,0,1,4.079-8.208,18.982,18.982,0,0,1,6.963-5.472,23.053,23.053,0,0,1,9.9-1.989,22.235,22.235,0,0,1,8.606,1.592,18.613,18.613,0,0,1,10.645,11.042,24.127,24.127,0,0,1,1.442,8.457A35.2,35.2,0,0,1,1026.909,714.054Zm-25.97-10.744h13.033v-1.095a10.555,10.555,0,0,0-1.629-6.068,5.527,5.527,0,0,0-4.888-2.388,5.292,5.292,0,0,0-4.69,2.239Q1001.237,698.236,1000.939,703.31Z"/><path class="b" d="M1078.486,701.021v20.4q0,6.565,2.387,9.849a13.111,13.111,0,0,1-9.052,3.382q-5.173,0-7.064-2.387T1062.866,725V703.808a10.569,10.569,0,0,0-.894-4.975q-.9-1.59-3.482-1.591a8.864,8.864,0,0,0-3.383.8,14.13,14.13,0,0,0-3.88,2.587v33.227q-1.692.3-3.68.448t-4.079.149c-1.392,0-2.754-.05-4.078-.149s-2.555-.249-3.682-.448V684.209l.7-.7h5.87q6.068,0,8.158,5.97,6.962-6.168,13.828-6.168,6.962,0,10.594,4.825T1078.486,701.021Z"/><path class="b" d="M683.9,589.582H596.184l-14.938,48.725a11.811,11.811,0,0,1-3.256,5.752c-1.406,1.149-3.9,1.921-7.469,1.921H525.705c-2.813,0-4.536-.924-5.171-2.456a8.613,8.613,0,0,1-.191-5.441l79.672-240.2a43.527,43.527,0,0,1,4.4-10.553,21.215,21.215,0,0,1,13.407-9.851,47.25,47.25,0,0,1,10.15-1.223h22.982a86.092,86.092,0,0,1,11.108.835,18.514,18.514,0,0,1,8.044,3,19.961,19.961,0,0,1,5.937,6.577,59.359,59.359,0,0,1,4.788,11.14l79.672,240.181a8.847,8.847,0,0,1,0,5.145c-.515,1.789-2.173,2.847-4.98,2.847H709.946a22.219,22.219,0,0,1-7.086-1.115c-1.915-.635-3.256-2.517-4.022-5.33Zm-73.926-46.589H670.11l-14.555-49.031L641.382,438.78h-2.3l-14.555,55.182Z"/><path class="b" d="M1198.591,616.554c0,18.386-2.181,33.958-6.012,46.73a99.8,99.8,0,0,1-16.029,32.367,84.643,84.643,0,0,1-23.623,21.258,143.021,143.021,0,0,1-28.379,13.024c-3.83,1.274-6.528,1.723-8.06,1.34s-2.821-1.855-3.839-4.4l-12.644-32.942q-1.913-4.981-.768-6.7t5.361-4.022a85.379,85.379,0,0,0,18.769-12.257,55.022,55.022,0,0,0,11.682-14.556,54.112,54.112,0,0,0,5.775-17.619,141.207,141.207,0,0,0,1.37-21.833V451.465c0-2.807.737-4.487,1.886-5.384s3.285-1.171,6.1-1.171H1190.4c3.572,0,6.012.279,6.778,1.171s1.415,2.577,1.415,5.384Z"/><path class="b" d="M1400,620.767a23.071,23.071,0,0,1-1.585,8.427c-.892,2.3-3.24,4.471-6.807,6.512a107.312,107.312,0,0,1-18.985,6.894,185.307,185.307,0,0,1-20.667,4.214q-10.512,1.526-21.226,2.3t-20.266.766q-26,0-43.006-4.979t-27.329-13.6A46.881,46.881,0,0,1,1225.6,611a77.431,77.431,0,0,1,.778-52.476,58.828,58.828,0,0,1,14.938-21.642,69.615,69.615,0,0,1,25.089-14.414c10.084-3.448,22.024-5.222,35.814-5.222h42.607v-6.027a45.928,45.928,0,0,0-1.386-10.342,17.791,17.791,0,0,0-4.906-8.618,27.031,27.031,0,0,0-10.21-5.938c-4.345-1.532-10.12-2.3-17.266-2.3-3.83,0-8.19.192-13.038.575s-9.715.9-14.563,1.532-9.579,1.406-14.176,2.3-8.686,1.855-12.259,2.873q-4.981,1.149-6.9,0t-2.681-4.98l-6.129-26.812q-1.149-4.211-.192-5.937t4.022-2.873a185.53,185.53,0,0,1,36.2-8.81,269.676,269.676,0,0,1,37.729-2.681c27.759,0,48.345,5.937,61.278,17.811S1400,486.453,1400,509.687Zm-56.4-66.74h-29.89a95.874,95.874,0,0,0-11.491,1,31.171,31.171,0,0,0-11.3,3.758,24.305,24.305,0,0,0-8.618,8.295c-2.3,3.579-3.448,8.456-3.448,14.585q0,13.412,9,18.784t24.323,5.369c1.532,0,3.572-.056,6.128-.187s5.3-.381,8.235-.765,5.753-.89,8.818-1.531a44.942,44.942,0,0,0,8.241-2.489Z"/><path class="b" d="M1101.006,590.7l-10.71-31.266c-6.027-17.521-17.39-29.452-33.776-35.461l-4.377-1.605,3.86-2.615c8.5-5.764,13.435-12.585,21.127-24.471l29.98-50.692s-30.416-.155-38.382-.155c-16.339,0-24.533,6.967-34.389,22.35l-19.952,30.723c-3.683,6.62-8.564,9.927-14.156,9.927h-8.883V371.365c0-3.064-.463-5.219-1.229-5.985s-3.019-1.388-6.591-1.388H943.692a12.029,12.029,0,0,0-6.478,1.58c-1.28.9-2.264,2.986-2.264,5.793V637.193c0,4.853,3.38,6.335,8.742,6.335h39.453c3.572,0,5.805-.038,6.7-1.062s1.409-2.7,1.409-5.509c0-1.086.091-2.032.091-3.256V556.078c3.678-.157,9.519-.232,14.031-.232,7.02,0,13.152,1.789,17.177,5.037,4.277,3.457,8.086,10.008,10.973,18.947l13.022,36.869c3.562,10.7,7.706,18.229,12.319,22.431,4.394,4,11.093,6.033,19.9,6.033,15.875,0,29.846-6.17,41.563-18.346C1112.773,620.477,1106.432,608.618,1101.006,590.7Z"/><path class="b" d="M908.231,563.311A57.172,57.172,0,0,0,893.867,545.5a93.694,93.694,0,0,0-21.259-13.023q-12.264-5.548-26.047-10.917-17.621-6.507-24.705-11.49t-7.086-12.64q0-4.974,4.6-9.768t14.939-4.788a128.757,128.757,0,0,1,24.514,2.3q11.868,2.3,26.046,6.512,4.211,1.534,6.129.957t3.447-4.787l9.576-24.515q1.527-4.6,1.149-6.7t-4.6-4.022a141.492,141.492,0,0,0-32.367-9.768,195.042,195.042,0,0,0-35.047-3.255q-19.159,0-33.133,4.788T776.849,457.21a51.506,51.506,0,0,0-13.789,18.961,60.068,60.068,0,0,0-4.6,23.557,46.334,46.334,0,0,0,16.47,36.963,99.581,99.581,0,0,0,19.726,13.214,238.493,238.493,0,0,0,27,11.874q19.151,7.281,27,12.641t7.853,13.023a15.264,15.264,0,0,1-5.554,12.066q-5.558,4.794-19.344,4.788a93.845,93.845,0,0,1-13.79-1.149q-7.665-1.151-15.895-3.065t-15.9-4.4q-7.666-2.487-13.789-5.17c-.574-.261-1.111-.47-1.626-.651L788.456,643a166.277,166.277,0,0,0,45.466,6.882q35.622,0,57.646-15.322t22.025-46.347Q913.593,573.656,908.231,563.311Z"/><path class="b" d="M1193.721,418.569a4.223,4.223,0,0,0,4.249-4.163c0-18.411,2.594-50.973,13.6-65.6,4.359-5.792,8.428-9.147,8.027-11.985-.6-4.252-14.8-.212-16.466.257-22.381,6.294-57.32,21.944-59.379,76.548-.1,2.622,1.582,4.943,4.205,4.943Z"/></svg>