<?xml version="1.0" encoding="UTF-8"?>
<svg width="1280px" height="715px" viewBox="0 0 1280 715" version="1.1" xmlns="http://www.w3.org/2000/svg" xmlns:xlink="http://www.w3.org/1999/xlink">
    <!-- Generator: Sketch 55.2 (78181) - https://sketchapp.com -->
    <title>ns-weather</title>
    <desc>Created with Sketch.</desc>
    <defs>
        <polygon id="path-1" points="0 447 966 447 966 0 0 0"></polygon>
    </defs>
    <g id="concept" stroke="none" stroke-width="1" fill="none" fill-rule="evenodd">
        <g id="about" transform="translate(-320.000000, -4533.000000)">
            <g id="article" transform="translate(320.000000, 234.000000)">
                <g id="ns-weather" transform="translate(0.000000, 4299.000000)">
                    <rect id="BG" fill="#FFC917" x="0" y="0" width="1280" height="715"></rect>
                    <g id="weather-icons" transform="translate(157.000000, 134.000000)">
                        <path d="M687.975119,275.805209 C687.227937,267.999651 680.530925,262 672.380327,262 C667.046132,262 662.046064,264.682001 659.177043,269.039454 C657.860266,268.654484 656.498764,268.46136 655.120161,268.46136 C647.333946,268.46136 641,274.625998 641,282.205178 C641,287.590923 644.26629,292.507286 649.321608,294.728858 L649.971445,293.329664 C645.480461,291.356213 642.577238,286.988528 642.577238,282.205178 C642.577238,275.472677 648.204781,269.994845 655.120161,269.994845 C656.535597,269.994845 657.92867,270.226339 659.265179,270.680374 L659.879499,270.888846 L660.208364,270.342725 C662.728788,266.142586 667.393414,263.533486 672.380327,263.533486 C679.962645,263.533486 686.143997,269.309317 686.454446,276.682583 L686.489964,277.534377 L687.356853,277.410317 C687.785693,277.348926 688.21848,277.318231 688.642058,277.318231 C693.482955,277.318231 697.422762,281.153864 697.422762,285.866871 C697.422762,289.170452 695.415368,292.209286 692.312195,293.60848 L692.975187,295 C696.634801,293.351407 699,289.766452 699,285.866871 C699.001315,280.092318 693.982831,275.413844 687.975119,275.805209" id="Fill-1" fill="#003082"></path>
                        <polygon id="Fill-3" fill="#003082" points="665.481254 294 660 303.268987 661.517312 304 667 294.729719"></polygon>
                        <polygon id="Fill-5" fill="#003082" points="655 316.270186 656.519057 317 662 307.729814 660.480943 307"></polygon>
                        <polygon id="Fill-7" fill="#003082" points="661.480943 288 656 297.268987 657.517623 298 663 288.729719"></polygon>
                        <polygon id="Fill-9" fill="#003082" points="655.480943 300 650 309.270281 651.517623 310 657 300.729719"></polygon>
                        <path d="M674.899496,316.139896 L679.442618,307.162528 L669.711022,307.162528 L676.734296,294.560885 L684.285464,294.560885 L679.524974,303.258362 L691.81503,303.258362 L674.899496,316.139896 Z M692.6764,301.697476 L682.211694,301.697476 L686.972184,293 L675.767617,293 L667,308.724715 L676.850406,308.724715 L672.411243,317.495093 C672.187124,317.936411 672.308634,318.459744 672.705567,318.768276 C672.904033,318.923192 673.144353,319 673.384672,319 C673.620942,319 673.858561,318.925796 674.055677,318.773483 L693.494567,303.970459 C693.942804,303.630683 694.111568,303.073503 693.925252,302.552774 C693.737587,302.033347 693.247497,301.697476 692.6764,301.697476 L692.6764,301.697476 Z" id="Fill-11" fill="#003082"></path>
                        <path d="M157.499328,18.6121659 C163.502931,18.6121659 168.387834,23.4957242 168.387834,29.5006723 C168.387834,35.5029312 163.502931,40.3864895 157.499328,40.3864895 C151.497069,40.3864895 146.612166,35.5029312 146.612166,29.5006723 C146.612166,23.4957242 151.497069,18.6121659 157.499328,18.6121659 M157.499328,42 C164.393051,42 170,36.3930511 170,29.5006723 C170,22.6056043 164.393051,17 157.499328,17 C150.606949,17 145,22.6056043 145,29.5006723 C145,36.3930511 150.606949,42 157.499328,42" id="Fill-13" fill="#003082"></path>
                        <mask id="mask-2" fill="white">
                            <use xlink:href="#path-1"></use>
                        </mask>
                        <g id="Clip-16"></g>
                        <polygon id="Fill-15" fill="#003082" mask="url(#mask-2)" points="157 11 159 11 159 0 157 0"></polygon>
                        <polygon id="Fill-17" fill="#003082" mask="url(#mask-2)" points="146 16.9229467 138.077205 9 137 10.0757832 144.922795 18"></polygon>
                        <polygon id="Fill-18" fill="#003082" mask="url(#mask-2)" points="128 30 139 30 139 28 128 28"></polygon>
                        <polygon id="Fill-19" fill="#003082" mask="url(#mask-2)" points="144.922795 42 137 49.9227946 138.075935 51 146 43.0772054"></polygon>
                        <polygon id="Fill-20" fill="#003082" mask="url(#mask-2)" points="157 59 159 59 159 48 157 48"></polygon>
                        <polygon id="Fill-21" fill="#003082" mask="url(#mask-2)" points="179 49.9227946 171.077053 42 170 43.0759351 177.922947 51"></polygon>
                        <polygon id="Fill-22" fill="#003082" mask="url(#mask-2)" points="176 30 187 30 187 28 176 28"></polygon>
                        <polygon id="Fill-23" fill="#003082" mask="url(#mask-2)" points="179 10.0770533 177.922947 9 170 16.9242168 171.077053 18"></polygon>
                        <path d="M14.1191653,21.2433603 C15.5333182,21.2433603 16.9277387,21.4820117 18.2629621,21.9500848 L18.8772964,22.1650028 L19.2061692,21.6019966 C21.7279655,17.271991 26.3913813,14.5809004 31.3784078,14.5809004 C38.9635291,14.5809004 45.1450215,20.5366359 45.4541619,28.1378791 L45.4909957,29.0160105 L46.3579043,28.8881145 C46.7854389,28.8248258 47.2169199,28.7931814 47.6405081,28.7931814 C52.4828306,28.7931814 56.4227262,32.7460915 56.4227262,37.604822 C56.4227262,42.464871 52.4828306,46.4190996 47.6405081,46.4190996 L14.1191653,46.4190996 C7.20362894,46.4190996 1.57727376,40.7718968 1.57727376,33.83123 C1.57727376,26.8905632 7.20362894,21.2433603 14.1191653,21.2433603 M14.1191653,48 L47.6405081,48 C53.3536856,48 58,43.3377284 58,37.604822 C58,31.653042 52.9721932,26.8549633 46.9761851,27.2320588 C46.2276707,19.1851573 39.5305058,13 31.3784078,13 C26.0454071,13 21.0452257,15.7649275 18.1761397,20.2584291 C16.8593332,19.8615558 15.4978,19.66246 14.1191653,19.66246 C6.33277387,19.66246 0,26.0177058 0,33.83123 C0,41.6447542 6.33277387,48 14.1191653,48" id="Fill-24" fill="#003082" mask="url(#mask-2)"></path>
                        <path d="M285.111612,11.1032329 C283.62928,14.5442009 283.064521,18.2962168 283.476782,22.061193 C284.669626,32.9439832 293.679926,41.114176 304.390965,41.3954152 C301.506428,44.1559657 297.806415,45.8913541 293.805284,46.3320054 C288.952491,46.8685631 284.194039,45.4753275 280.389346,42.4179853 C276.584653,39.3593472 274.19638,34.9968997 273.66393,30.1367754 C272.75282,21.8188348 277.497055,14.0892933 285.111612,11.1032329 M279.42008,43.6310723 C282.967594,46.4849373 287.286645,48 291.768533,48 C292.501298,48 293.236648,47.9585269 293.97329,47.8781729 C298.970827,47.3273588 303.530256,44.9180332 306.812838,41.0960315 C307.015738,40.8588575 307.057093,40.5231849 306.920104,40.2419457 C306.781822,39.9632986 306.509135,39.784446 306.178292,39.8116627 C295.513778,40.4428308 286.189436,32.5797979 285.019854,21.8914127 C284.571407,17.8140925 285.358451,13.7523247 287.294399,10.1467605 C287.44302,9.87200148 287.412004,9.53503286 287.216858,9.29267467 C287.023005,9.04772441 286.697331,8.94404176 286.401382,9.02957994 C277.065409,11.6747836 271.061127,20.6238923 272.120858,30.3052597 C272.699833,35.5801146 275.291005,40.3119315 279.42008,43.6310723" id="Fill-25" fill="#003082" mask="url(#mask-2)"></path>
                        <polygon id="Fill-26" fill="#003082" mask="url(#mask-2)" points="682 13 684 13 684 5 682 5"></polygon>
                        <polygon id="Fill-27" fill="#003082" mask="url(#mask-2)" points="674 16.8118495 668.188151 11 667 12.1867494 672.811849 18"></polygon>
                        <polygon id="Fill-28" fill="#003082" mask="url(#mask-2)" points="700 41.8118495 694.188151 36 693 37.1867494 698.811849 43"></polygon>
                        <polygon id="Fill-29" fill="#003082" mask="url(#mask-2)" points="696 28 704 28 704 26 696 26"></polygon>
                        <polygon id="Fill-30" fill="#003082" mask="url(#mask-2)" points="700 12.1881505 698.811849 11 693 16.8132506 694.188151 18"></polygon>
                        <path d="M653.261884,25.2366001 C654.470182,25.2366001 655.660328,25.4367969 656.799914,25.8333405 L657.405359,26.0425204 L657.729473,25.4945459 C659.882887,21.8396715 663.86949,19.5682081 668.130942,19.5682081 C671.079084,19.5682081 673.77312,20.6166745 675.866897,22.3555632 L676.346586,22.8008727 C678.676318,24.9632545 680.028522,27.8789408 680.158168,31.0089404 L680.193172,31.86491 L681.05013,31.7391453 C681.358686,31.6942294 681.673725,31.6775463 681.986171,31.6711297 C683.843993,31.6416136 685.694036,32.3115028 687.117545,33.5845489 L687.533708,33.9554263 C688.814607,35.2849382 689.606742,37.0802926 689.606742,39.0591607 C689.606742,43.140095 686.256698,46.4613081 682.140449,46.4613081 L653.261884,46.4613081 C647.357822,46.4613081 642.554451,41.7002182 642.554451,35.8495958 C642.554451,29.99769 647.357822,25.2366001 653.261884,25.2366001 M683.396716,19.5399752 C687.282195,19.5399752 690.445549,22.6699748 690.445549,26.5173461 C690.445549,28.6899944 689.426534,30.7112119 687.695765,32.0304573 C686.549697,31.1398383 685.183232,30.518715 683.689715,30.2620524 C683.63656,30.2517859 683.583405,30.2453694 683.530251,30.2363862 C683.075194,30.1683706 682.614952,30.1208881 682.140449,30.1208881 C681.978392,30.1208881 681.816335,30.124738 681.654278,30.1324379 C681.614088,29.7397442 681.554451,29.3496171 681.480553,28.96334 C681.439067,28.7477435 681.383319,28.5372802 681.331461,28.3255336 C681.293863,28.1664029 681.258859,28.0072721 681.21478,27.850708 C681.138289,27.5760791 681.047537,27.30915 680.952895,27.042221 C680.924373,26.9626556 680.898444,26.8805236 680.868626,26.8009582 C680.749352,26.4826967 680.617113,26.1708517 680.474503,25.8628567 C680.468021,25.8513068 680.462835,25.8384737 680.457649,25.8243573 C679.815903,24.4537794 678.956353,23.2115327 677.914002,22.1412499 C679.248055,20.5024597 681.253673,19.5399752 683.396716,19.5399752 M653.261884,48 L682.140449,48 C687.114952,48 691.161193,43.9896479 691.161193,39.0591607 C691.161193,36.7645977 690.27701,34.6753647 688.836646,33.0917569 C690.830596,31.4786328 692,29.0878214 692,26.5173461 C692,21.8204218 688.140449,18 683.396716,18 C680.814175,18 678.402766,19.1485648 676.774417,21.1017667 C674.422645,19.1844976 671.417459,18.0295162 668.130942,18.0295162 C663.527226,18.0295162 659.210026,20.3741284 656.714347,24.1894169 C655.594209,23.8621722 654.435177,23.6979082 653.261884,23.6979082 C646.499568,23.6979082 641,29.1481371 641,35.8495958 C641,42.5497711 646.499568,48 653.261884,48" id="Fill-31" fill="#003082" mask="url(#mask-2)"></path>
                        <polygon id="Fill-32" fill="#003082" mask="url(#mask-2)" points="421 11 423 11 423 0 421 0"></polygon>
                        <polygon id="Fill-33" fill="#003082" mask="url(#mask-2)" points="409 16.8267487 401.173251 9 400 10.1718678 407.826749 18"></polygon>
                        <polygon id="Fill-34" fill="#003082" mask="url(#mask-2)" points="444 52.8267487 436.173071 45 435 46.1718678 442.826929 54"></polygon>
                        <polygon id="Fill-35" fill="#003082" mask="url(#mask-2)" points="441 32 452 32 452 30 441 30"></polygon>
                        <polygon id="Fill-36" fill="#003082" mask="url(#mask-2)" points="444 10.1732513 442.826929 9 435 16.8281322 436.173071 18"></polygon>
                        <path d="M380.580572,41.5716786 C380.580572,35.5865539 385.464657,30.7170774 391.46793,30.7170774 C392.695213,30.7170774 393.905359,30.9231442 395.064094,31.3274027 L395.679713,31.5426571 L396.009273,30.982208 C398.198873,27.2441301 402.251148,24.9209567 406.585527,24.9209567 C408.098868,24.9209567 409.543661,25.2044626 410.881676,25.7019105 L411.526297,25.9867289 C414.190463,27.1640659 416.270649,29.1774829 417.519024,31.6410967 C417.538797,31.681785 417.561207,31.7198483 417.579663,31.7592242 C417.81431,32.2369841 418.017319,32.7278693 418.18869,33.2331924 C418.203191,33.2765058 418.212419,33.3198192 418.226919,33.36182 C418.367971,33.7988916 418.480022,34.2490885 418.572299,34.705848 C418.596027,34.8292256 418.621074,34.9526032 418.642166,35.0786058 C418.727851,35.5839288 418.792445,36.0984396 418.814855,36.622138 L418.850448,37.4949686 L419.717851,37.368966 C419.994682,37.3295902 420.267558,37.3072772 420.539115,37.2954645 C420.656439,37.2915269 420.771126,37.296777 420.888449,37.296777 C421.041366,37.2980895 421.196918,37.296777 421.347198,37.3072772 C421.472431,37.3151524 421.592391,37.3309027 421.713669,37.344028 C421.857357,37.3610909 421.999727,37.3768412 422.139461,37.4004667 C422.256784,37.4201546 422.37279,37.4450926 422.488795,37.4713432 C422.631165,37.5015313 422.773535,37.535657 422.913269,37.5750328 C423.018728,37.6052209 423.122869,37.6367216 423.228329,37.6708473 C423.375972,37.7194108 423.520978,37.7719119 423.664667,37.8296631 C423.755625,37.8664139 423.846584,37.9031646 423.937543,37.9425405 C424.08914,38.0107919 424.238102,38.085606 424.384427,38.1630451 C424.460885,38.2037334 424.539979,38.2417967 424.613801,38.2851101 C424.769353,38.3730494 424.916996,38.4701765 425.064639,38.568616 C425.129233,38.6119294 425.195145,38.6513052 425.258421,38.6972437 C425.407382,38.8048709 425.548434,38.9190608 425.690804,39.0371883 C425.74617,39.0831267 425.805491,39.1264401 425.859539,39.1750036 C425.962362,39.2642555 426.055957,39.3640076 426.153507,39.4611346 C427.235783,40.5321569 428.003,41.9313111 428.285104,43.5286568 L428.380017,44.0576054 C428.4077,44.3214234 428.423519,44.5878664 428.423519,44.8569345 C428.423519,49.0307715 425.017183,52.4262797 420.830447,52.4262797 L391.46793,52.4262797 C385.464657,52.4262797 380.580572,47.5568033 380.580572,41.5716786 L380.580572,41.5716786 Z M423.13737,19.5737203 C429.909178,19.5737203 435.419428,25.0600846 435.419428,31.8025376 C435.419428,36.072189 433.21401,39.9625201 429.602027,42.1872539 C429.176235,40.7986 428.427474,39.5569491 427.444066,38.5358028 C427.407155,38.4990521 427.372881,38.4609888 427.337288,38.4255505 C427.030138,38.1171066 426.704532,37.8296631 426.357834,37.5671576 C426.30115,37.5251568 426.241829,37.488406 426.185145,37.4464051 C425.881949,37.2298381 425.566889,37.0316465 425.237329,36.8505177 C425.163507,36.8098294 425.092322,36.766516 425.017183,36.7284527 C424.658621,36.5433863 424.282922,36.385883 423.897995,36.2493802 C423.784627,36.2086918 423.66994,36.1758787 423.555253,36.1391279 C423.208555,36.0315007 422.855266,35.9422488 422.494068,35.8753099 C422.422883,35.8621846 422.355653,35.8438092 422.285786,35.8319965 C421.867903,35.7650576 421.439475,35.7374945 421.007091,35.7283068 C420.946452,35.7269943 420.889768,35.7125565 420.830447,35.7125565 C420.666985,35.7125565 420.502205,35.7164941 420.336106,35.7256818 C420.283377,35.1993583 420.192418,34.6835351 420.081686,34.175587 C420.052684,34.0443343 420.017092,33.914394 419.985454,33.7831413 C419.885268,33.3815079 419.769262,32.9864372 419.634802,32.5992417 C419.597891,32.4942395 419.563617,32.3879247 419.524069,32.2829226 C419.143097,31.2630888 418.64612,30.3075689 418.047639,29.421613 C418.043684,29.4137378 418.037093,29.4071751 418.03182,29.4006125 C416.755762,27.5197608 415.031501,25.9749161 413.004046,24.9183316 C415.281967,21.6028876 419.087731,19.5737203 423.13737,19.5737203 L423.13737,19.5737203 Z M420.830447,54 C425.889859,54 430.004091,49.898352 430.004091,44.8569345 C430.004091,44.494677 429.979045,44.1376695 429.936861,43.7859122 C434.297604,41.3327986 437,36.8085168 437,31.8025376 C437,24.1911915 430.781854,18 423.13737,18 C418.476067,18 414.121915,20.3953624 411.571117,24.2673181 C410.024819,23.6753682 408.344061,23.3472364 406.585527,23.3472364 C401.90445,23.3472364 397.514705,25.7439113 394.97709,29.6460551 C393.839447,29.3113607 392.660939,29.1433572 391.46793,29.1433572 C384.591981,29.1433572 379,34.7176608 379,41.5716786 C379,48.4256964 384.591981,54 391.46793,54 L420.830447,54 Z" id="Fill-37" fill="#003082" mask="url(#mask-2)"></path>
                        <path d="M267.314744,406.656571 C268.526948,406.656571 269.722226,406.861869 270.868026,407.268516 L271.474779,407.483026 L271.80029,406.921089 C273.962987,403.173086 277.966776,400.843743 282.246599,400.843743 C285.48088,400.843743 288.41569,402.117644 290.584897,404.204839 C290.59922,404.219316 290.604428,404.241688 290.61875,404.25748 C292.314013,405.903811 293.478042,407.973899 294.009276,410.240073 C294.034015,410.345354 294.047035,410.455899 294.06917,410.563812 C294.125158,410.836226 294.182448,411.108641 294.220207,411.386319 C294.273591,411.777175 294.308747,412.173295 294.325673,412.575995 L294.360828,413.453775 L295.22148,413.324806 C295.5522,413.274797 295.890732,413.253741 296.226659,413.249793 C298.354201,413.226105 300.412735,414.128889 301.882744,415.792329 C301.902275,415.814701 301.93092,415.823914 301.954356,415.842338 C303.107968,417.17809 303.814979,418.920491 303.814979,420.831341 C303.814979,425.016261 300.450494,428.422101 296.3165,428.422101 L267.314744,428.422101 C261.38523,428.422101 256.561152,423.539695 256.561152,417.539994 C256.561152,411.538977 261.38523,406.656571 267.314744,406.656571 M297.553443,395.203314 C296.914139,397.015463 296.690187,398.951318 296.899817,400.892436 C297.569068,407.038214 302.421791,411.720587 308.331774,412.269364 C306.840932,413.490623 305.032391,414.260491 303.093646,414.475001 C302.997295,414.488161 302.900943,414.484213 302.808498,414.478949 L302.79678,414.468421 C302.575432,414.238119 302.343668,414.01966 302.101487,413.813046 C302.094977,413.809098 302.088467,413.803834 302.083259,413.79857 C300.657519,412.598367 298.877623,411.8285 296.94018,411.691634 C296.890702,411.687686 296.841225,411.678474 296.790445,411.675842 C296.474048,411.66005 296.152443,411.66005 295.828233,411.677158 C295.78787,411.266562 295.726674,410.859914 295.651155,410.459847 C295.614698,410.265077 295.563918,410.078203 295.519649,409.887381 C295.474077,409.687347 295.43111,409.484681 295.375122,409.288596 C295.308717,409.050397 295.229293,408.820095 295.15117,408.588477 C295.104296,408.447664 295.060027,408.308166 295.007945,408.168669 C294.908989,407.90415 294.798316,407.644896 294.685038,407.388274 C294.64207,407.294837 294.603009,407.2014 294.558739,407.109279 C294.422025,406.819756 294.274893,406.538129 294.118648,406.260451 C294.090003,406.210442 294.063962,406.160434 294.034015,406.111741 C293.856937,405.801163 293.665536,405.49848 293.463719,405.203693 C293.457209,405.194481 293.450699,405.185269 293.444189,405.176057 C293.002795,404.533842 292.50932,403.933741 291.968971,403.378384 C292.300993,399.82515 294.448065,396.741733 297.553443,395.203314 M267.314744,430 L296.3165,430 C301.312448,430 305.376131,425.887461 305.376131,420.831341 C305.376131,419.031036 304.843595,417.355752 303.946486,415.937091 C306.614376,415.477802 309.032274,414.114413 310.810868,412.027218 C311.015289,411.786387 311.058257,411.446856 310.918938,411.161281 C310.780921,410.877023 310.495773,410.688833 310.171564,410.724365 C304.260279,411.067844 299.102877,406.686839 298.453157,400.720038 C298.205768,398.443337 298.641953,396.175847 299.714839,394.166296 C299.863272,393.885986 299.833325,393.543822 299.635414,393.297728 C299.440107,393.049002 299.111992,392.942405 298.813823,393.030577 C294.552229,394.247889 291.406488,397.811651 290.588803,402.13212 C288.281579,400.333131 285.389737,399.265845 282.246599,399.265845 C277.623036,399.265845 273.287226,401.670199 270.780789,405.582704 C269.655822,405.247121 268.491793,405.078672 267.314744,405.078672 C260.523276,405.078672 255,410.667777 255,417.539994 C255,424.410895 260.523276,430 267.314744,430" id="Fill-38" fill="#003082" mask="url(#mask-2)"></path>
                        <path d="M824.275939,37.3988682 C822.854943,37.563483 821.414535,37.5331939 819.992245,37.3080009 C819.578111,36.5349699 819.053974,35.8172494 818.42242,35.179861 C817.90087,34.6557275 817.324966,34.2119261 816.712825,33.8366044 C816.679176,33.8142168 816.645528,33.794463 816.610585,33.7733923 C816.29222,33.585073 815.964796,33.4112398 815.628312,33.2637449 C815.620547,33.2584773 815.611488,33.2558434 815.602429,33.2518927 C815.259475,33.1030809 814.907461,32.9792906 814.546388,32.8739371 C814.480386,32.8541833 814.410501,32.8410142 814.34191,32.8225773 C814.057193,32.7488299 813.769888,32.6882516 813.476112,32.6421595 C813.379049,32.6263565 813.281987,32.6092366 813.18363,32.5973843 C812.822557,32.5526091 812.46019,32.5236369 812.092647,32.5223199 L812.086176,32.5223199 L812.084882,32.5223199 L812.083588,32.5223199 C811.96323,32.5183692 811.848049,32.5262707 811.732868,32.5328553 C811.674631,32.5354891 811.616393,32.5341722 811.556861,32.538123 C811.168611,28.7572507 809.301127,25.464955 806.56914,23.2275109 C806.560081,23.1722003 806.549727,23.1155728 806.543257,23.0589454 C805.718872,15.7355629 809.759263,8.9020741 816.30775,6.1536657 C815.07182,9.19969763 814.616273,12.5025286 814.987699,15.8119442 C816.078683,25.5202656 823.982163,32.7988728 833.382996,33.117567 C830.885253,35.4972383 827.71066,36.9985251 824.275939,37.3988682 M817.374144,47.0413437 C815.972561,48.4833692 814.105077,49.2801048 812.109471,49.2893232 C811.849343,49.2906401 783.389306,49.4183812 783.287067,49.4196981 L783.239183,49.4196981 C780.403662,49.4196981 777.7325,48.2990007 775.717481,46.263045 C773.688227,44.2165541 772.564889,41.4865825 772.551853,38.5775101 C772.527359,32.5723628 777.300248,27.6655254 783.193887,27.6391871 L783.244359,27.6391871 C784.432405,27.6391871 785.603627,27.8393586 786.726964,28.235751 L787.333929,28.4477749 L787.653588,27.8828169 C789.78767,24.1243322 793.755588,21.7775839 798.009516,21.7565132 L798.063871,21.7565132 C800.741504,21.7565132 803.210775,22.6520176 805.210264,24.1572552 C805.259442,24.2375872 805.318974,24.3113346 805.392742,24.369279 C807.838718,26.3064658 809.443486,29.0588249 809.923622,32.0693001 C809.927505,32.0943215 809.933975,32.1167091 809.937858,32.1417306 C810.00386,32.5710459 810.047862,33.0056289 810.067275,33.4428458 L810.1061,34.3185964 L810.958956,34.1882215 C811.308381,34.1342279 811.660395,34.1092064 812.004643,34.1052557 C812.027938,34.1039388 812.047351,34.1026219 812.07194,34.1026219 C812.082293,34.1013049 812.092647,34.1026219 812.103,34.1026219 C814.206022,34.1078895 816.147273,35.0086616 817.526856,36.5468221 C817.591564,36.6166188 817.645919,36.6930001 817.706745,36.7667475 C818.106643,37.2474226 818.463833,37.7768238 818.747256,38.3641693 C818.74855,38.3707539 818.755021,38.3733878 818.758903,38.3799723 C819.244216,39.3939994 819.530227,40.5002107 819.535483,41.6617326 C819.544463,43.6897868 818.777022,45.6019521 817.374144,47.0413437 M835.174124,31.5109267 C825.775879,32.1101245 817.599329,25.1462608 816.530347,15.6328433 C816.122684,12.0020997 816.79824,8.38189139 818.481952,5.16202625 C818.629487,4.88283958 818.597132,4.54044083 818.400419,4.2928602 C818.205,4.04791341 817.881458,3.94124303 817.582505,4.03211039 C809.684201,6.34198501 804.51659,13.8154961 804.920371,22.0699397 C802.906646,20.8702272 800.568085,20.1762113 798.063871,20.1762113 C798.043165,20.1762113 798.022458,20.1775282 798.001751,20.1775282 C793.406163,20.197282 789.108232,22.6230454 786.635078,26.5487787 C785.513035,26.2182323 784.384521,26.0746882 783.186122,26.0602021 C776.437039,26.0891743 770.970475,31.7084645 771.00012,38.5840947 C771.014477,41.9158979 772.300879,45.0409449 774.622616,47.3850594 C776.931411,49.7173216 779.989528,51 783.2353,51 C783.254713,51 783.271537,50.9986831 783.29095,50.9986831 C783.562725,50.9986831 812.106883,50.8722589 812.121118,50.8696251 C814.526976,50.8590897 816.784004,49.8951056 818.479363,48.1541396 C820.172134,46.4144906 821.098758,44.1059329 821.087111,41.6538311 C821.083228,40.7359391 820.948635,39.8391178 820.689801,38.9844378 C821.279942,39.046333 821.870082,39.0832067 822.461517,39.0832067 C823.125424,39.0832067 823.790627,39.0450161 824.45324,38.9673179 C828.881881,38.4524029 832.915801,36.2676355 835.813442,32.8133589 C836.016627,32.5710459 836.05804,32.2299641 835.916976,31.9455097 C835.779794,31.6636892 835.476959,31.4964406 835.174124,31.5109267" id="Fill-39" fill="#003082" mask="url(#mask-2)"></path>
                        <polygon id="Fill-40" fill="#003082" mask="url(#mask-2)" points="769 303 816 303 816 301 769 301"></polygon>
                        <polygon id="Fill-41" fill="#003082" mask="url(#mask-2)" points="800 276 802 276 802 264 800 264"></polygon>
                        <polygon id="Fill-42" fill="#003082" mask="url(#mask-2)" points="778 274.09745 786.90255 283 788 281.90255 779.09745 273"></polygon>
                        <polygon id="Fill-43" fill="#003082" mask="url(#mask-2)" points="822.90255 273 814 281.90255 815.09745 283 824 274.09745"></polygon>
                        <path d="M788.964735,293.4443 C789.363345,287.372011 794.384548,282.5557 800.5,282.5557 C806.616738,282.5557 811.63794,287.372011 812.035265,293.4443 L788.964735,293.4443 Z M800.5,281 C793.534608,281 787.83834,286.515663 787.435872,293.4443 L777,293.4443 L777,295 L787.396011,295 L813.603989,295 L824,295 L824,293.4443 L813.565414,293.4443 C813.16166,286.515663 807.466678,281 800.5,281 L800.5,281 Z" id="Fill-44" fill="#003082" mask="url(#mask-2)"></path>
                        <polygon id="Fill-45" fill="#003082" mask="url(#mask-2)" points="901 173 948 173 948 171 901 171"></polygon>
                        <path d="M920.267858,153.798161 C919.639099,147.931158 922.799606,142.467412 927.93768,140.169107 C926.997757,142.609738 926.653161,145.242773 926.937324,147.883716 C927.791098,155.842124 934.110825,161.861997 941.718929,162.32851 C940.772577,163.160065 939.686072,163.859835 938.46713,164.419915 L927.75381,164.419915 C923.625092,162.469519 920.762892,158.414539 920.267858,153.798161 L920.267858,153.798161 Z M908,166 L927.586655,166 L938.630427,166 L955,166 L955,164.419915 L941.576204,164.419915 C942.541843,163.732005 943.413619,162.947893 944.164528,162.055718 C944.367685,161.814554 944.408831,161.473235 944.272536,161.188583 C944.134955,160.90393 943.873936,160.722069 943.534484,160.749743 C935.939239,161.19649 929.303204,155.486308 928.471288,147.711079 C928.152409,144.743314 928.711734,141.788726 930.091402,139.164916 C930.237983,138.886853 930.207124,138.544215 930.012967,138.296462 C929.818811,138.047391 929.494788,137.943282 929.201625,138.03026 C922.358575,140.012284 917.955982,146.716113 918.733893,153.970798 C919.187782,158.199732 921.434082,161.980602 924.759172,164.419915 L908,164.419915 L908,166 Z" id="Fill-46" fill="#003082" mask="url(#mask-2)"></path>
                        <path d="M14.1204808,422 L15.0834203,422 L15.0834203,420.41904 L14.1204808,420.41904 C7.20362894,420.41904 1.57727376,414.771624 1.57727376,407.830696 C1.57727376,400.889768 7.20362894,395.242352 14.1204808,395.242352 C15.5359492,395.242352 16.9303697,395.481013 18.2642776,395.950422 L18.8786119,396.166667 L19.2074847,395.602321 C21.7279655,391.272152 26.3913813,388.58096 31.3784078,388.58096 C38.9635291,388.58096 45.146337,394.53692 45.4541619,402.138449 L45.4909957,403.017932 L46.3592198,402.888713 C46.7854389,402.824103 47.2169199,402.792458 47.6418235,402.792458 C52.4841461,402.792458 56.4227262,406.746835 56.4227262,411.605749 C56.4227262,416.465981 52.4841461,420.41904 47.6418235,420.41904 L46.3539578,420.41904 L46.3539578,422 L47.6418235,422 C53.3536856,422 58,417.337553 58,411.605749 C58,405.652426 52.9735087,400.81461 46.9761851,401.232595 C46.2276707,393.18539 39.5318213,387 31.3784078,387 C26.0454071,387 21.0465412,389.765032 18.1774552,394.258703 C16.8619642,393.861814 15.5004309,393.661392 14.1204808,393.661392 C6.33408936,393.661392 0,400.016878 0,407.830696 C0,415.644515 6.33408936,422 14.1204808,422" id="Fill-47" fill="#003082" mask="url(#mask-2)"></path>
                        <polygon id="Fill-48" fill="#003082" mask="url(#mask-2)" points="30.5143979 415.687421 25.2853403 417.336722 25.2853403 412 23.7159686 412 23.7159686 417.336722 18.486911 415.687421 18 417.13723 23.2303665 418.78526 19.9986911 423.104193 21.2696335 424 24.5 419.682338 27.7316754 424 29.0026178 423.104193 25.7696335 418.78526 31 417.13723"></polygon>
                        <polygon id="Fill-49" fill="#003082" mask="url(#mask-2)" points="43.514349 425.687421 38.2847649 427.336722 38.2847649 422 36.7152351 422 36.7152351 427.336722 31.48696 425.687421 31 427.13723 36.2308932 428.78526 32.9975833 433.104193 34.2686537 434 37.4993455 429.682338 40.7326553 434 42.0037257 433.104193 38.7704159 428.78526 44 427.13723"></polygon>
                        <polygon id="Fill-50" fill="#003082" mask="url(#mask-2)" points="17.2683246 440 20.5 435.682338 23.7303665 440 25.0013089 439.104193 21.7696335 434.78526 27 433.13723 26.513089 431.687421 21.2840314 433.336722 21.2840314 428 19.7146597 428 19.7146597 433.336722 14.4856021 431.687421 14 433.13723 19.2290576 434.78526 15.9973822 439.104193"></polygon>
                        <path d="M50.640978,170.4191 L49.3531706,170.4191 L49.3531706,172 L50.640978,172 C56.3538964,172 61,167.337728 61,161.606141 C61,155.653042 55.977683,150.862874 49.9753697,151.232059 C49.2282047,143.186476 42.5313436,137 34.3796153,137 C29.0468566,137 24.0455865,139.764927 21.1779461,144.258429 C19.8611993,143.861556 18.4984124,143.66246 17.1211558,143.66246 C9.33511748,143.66246 3,150.017706 3,157.83123 C3,165.644754 9.33511748,172 17.1211558,172 L18.0840515,172 L18.0840515,170.4191 L17.1211558,170.4191 C10.2046176,170.4191 4.57720221,164.771897 4.57720221,157.83123 C4.57720221,150.890563 10.2046176,145.24336 17.1211558,145.24336 C18.5352445,145.24336 19.9282863,145.482012 21.2647646,145.950085 L21.879071,146.165003 L22.2079289,145.603315 C24.7296108,141.273309 29.392815,138.582219 34.3796153,138.582219 C41.9630772,138.582219 48.1456046,144.536636 48.454731,152.137879 L48.4902477,153.016011 L49.3571169,152.888115 C49.7859476,152.824826 50.2174091,152.793181 50.640978,152.793181 C55.4830808,152.793181 59.4227978,156.74741 59.4227978,161.606141 C59.4227978,166.466189 55.4830808,170.4191 50.640978,170.4191" id="Fill-51" fill="#003082" mask="url(#mask-2)"></path>
                        <polygon id="Fill-52" fill="#003082" mask="url(#mask-2)" points="39.514349 167.687421 34.2847649 169.336722 34.2847649 164 32.7152351 164 32.7152351 169.336722 27.48696 167.687421 27 169.13723 32.2308932 170.78526 28.9975833 175.104193 30.2686537 176 33.5006545 171.683609 36.7313463 176 38.0024167 175.104193 34.7704159 170.78526 40 169.13723"></polygon>
                        <path d="M818.97512,144.233377 C818.227938,136.185157 811.530925,130 803.379012,130 C798.046132,130 793.044748,132.764927 790.175727,137.258429 C788.860266,136.861556 787.498764,136.66246 786.118845,136.66246 C778.33263,136.66246 772,143.017706 772,150.83123 C772,158.644754 778.33263,165 786.118845,165 L787.084394,165 L787.084394,163.4191 L786.118845,163.4191 C779.204781,163.4191 773.577238,157.771897 773.577238,150.83123 C773.577238,143.890563 779.204781,138.24336 786.118845,138.24336 C787.535597,138.24336 788.92867,138.482012 790.263863,138.950085 L790.878184,139.165003 L791.207049,138.601997 C793.728788,134.271991 798.392098,131.5809 803.379012,131.5809 C810.962645,131.5809 817.143998,137.536636 817.454446,145.137879 L817.489964,146.016011 L818.356853,145.888115 C818.784378,145.824826 819.217165,145.793181 819.642058,145.793181 C824.482956,145.793181 828.422762,149.746092 828.422762,154.604822 C828.422762,159.464871 824.482956,163.4191 819.642058,163.4191 L818.351591,163.4191 L818.351591,165 L819.642058,165 C825.353791,165 830,160.337728 830,154.604822 C830,148.653042 824.973623,143.839141 818.97512,144.233377" id="Fill-53" fill="#003082" mask="url(#mask-2)"></path>
                        <polygon id="Fill-54" fill="#003082" mask="url(#mask-2)" points="798 172.270281 799.519057 173 805 163.729719 803.480943 163"></polygon>
                        <polygon id="Fill-55" fill="#003082" mask="url(#mask-2)" points="792.518746 186 798 176.731013 796.482688 176 791 185.270281"></polygon>
                        <polygon id="Fill-56" fill="#003082" mask="url(#mask-2)" points="792 168.270186 793.518746 169 799 159.729814 797.481254 159"></polygon>
                        <polygon id="Fill-57" fill="#003082" mask="url(#mask-2)" points="786 179.270186 787.519057 180 793 170.729814 791.480943 170"></polygon>
                        <polygon id="Fill-58" fill="#003082" mask="url(#mask-2)" points="811.481254 163 806 172.270281 807.517312 173 813 163.729719"></polygon>
                        <polygon id="Fill-59" fill="#003082" mask="url(#mask-2)" points="805.480943 176 800 185.268987 801.517623 186 807 176.729719"></polygon>
                        <path d="M432.97537,275.231276 C432.228205,267.18539 425.531344,261 417.379615,261 C412.045541,261 407.045587,263.765032 404.176631,268.257384 C402.859884,267.860496 401.498412,267.661392 400.11984,267.661392 C392.333802,267.661392 386,274.016878 386,281.830696 C386,289.644515 392.333802,296 400.11984,296 L401.084052,296 L401.084052,294.41904 L400.11984,294.41904 C393.204618,294.41904 387.577202,288.771624 387.577202,281.830696 C387.577202,274.889768 393.204618,269.242352 400.11984,269.242352 C401.535244,269.242352 402.928286,269.481013 404.264765,269.949103 L404.879071,270.16403 L405.207929,269.601002 C407.728295,265.270833 412.392815,262.58096 417.379615,262.58096 C424.963077,262.58096 431.144289,268.535601 431.454731,276.137131 L431.490248,277.015295 L432.357117,276.887395 C432.784632,276.824103 433.217409,276.792458 433.640978,276.792458 C438.483081,276.792458 442.422798,280.746835 442.422798,285.605749 C442.422798,290.465981 438.483081,294.41904 433.640978,294.41904 L432.351855,294.41904 L432.351855,296 L433.640978,296 C439.353896,296 444,291.337553 444,285.605749 C444,279.652426 438.976368,274.850211 432.97537,275.231276" id="Fill-60" fill="#003082" mask="url(#mask-2)"></path>
                        <polygon id="Fill-61" fill="#003082" mask="url(#mask-2)" points="430.518547 302.318513 425.77928 303.803275 425.77928 299 424.222018 299 424.222018 303.803275 419.481453 302.318513 419 303.745736 423.740565 305.229247 420.811615 309.118149 422.070401 310 425.000649 306.112349 427.929599 310 429.189683 309.118149 426.260733 305.230498 431 303.745736"></polygon>
                        <polygon id="Fill-62" fill="#003082" mask="url(#mask-2)" points="413 302.282747 414.40203 303 419 294.718525 417.599294 294"></polygon>
                        <polygon id="Fill-63" fill="#003082" mask="url(#mask-2)" points="407 314.282747 408.40203 315 413 306.718525 411.599294 306"></polygon>
                        <polygon id="Fill-64" fill="#003082" mask="url(#mask-2)" points="412.598279 289 408 297.282747 409.401721 298 414 289.717253"></polygon>
                        <polygon id="Fill-65" fill="#003082" mask="url(#mask-2)" points="406.598279 300 402 308.282747 403.401721 309 408 300.717253"></polygon>
                        <path d="M303.975119,281.232595 C303.226622,273.18539 296.529609,267 288.379011,267 C283.044816,267 278.044748,269.765032 275.175727,274.258703 C273.860266,273.861814 272.498764,273.661392 271.118845,273.661392 C263.33263,273.661392 257,280.016878 257,287.830696 C257,295.644515 263.33263,302 271.118845,302 L272.084394,302 L272.084394,300.41904 L271.118845,300.41904 C264.204781,300.41904 258.577238,294.771624 258.577238,287.830696 C258.577238,280.889768 264.204781,275.242352 271.118845,275.242352 C272.535597,275.242352 273.92867,275.481013 275.263863,275.950422 L275.878184,276.166667 L276.207049,275.602321 C278.727473,271.272152 283.392098,268.58096 288.379011,268.58096 C295.962645,268.58096 302.143997,274.53692 302.454446,282.138449 L302.489964,283.017932 L303.359484,282.888713 C303.783062,282.824103 304.214533,282.792458 304.640743,282.792458 C309.482955,282.792458 313.422762,286.746835 313.422762,291.605749 C313.422762,296.465981 309.482955,300.41904 304.640743,300.41904 L303.351591,300.41904 L303.351591,302 L304.640743,302 C310.353791,302 315,297.337553 315,291.605749 C315.001315,285.652426 309.948629,280.83307 303.975119,281.232595" id="Fill-66" fill="#003082" mask="url(#mask-2)"></path>
                        <polygon id="Fill-67" fill="#003082" mask="url(#mask-2)" points="284 309.270186 285.518746 310 291 300.729814 289.481254 300"></polygon>
                        <path d="M526.258486,27.8570751 C527.466448,27.8570751 528.656265,28.0606097 529.795535,28.4637647 L530.399516,28.6777369 L530.72354,28.1193216 C532.876357,24.4048156 536.863152,22.095481 541.123423,22.095481 C543.702656,22.095481 546.084882,22.9148381 548.044581,24.3017436 L548.027732,24.3395801 L548.508584,24.7205551 C550.959503,26.6593524 552.557591,29.4083739 553.017705,32.40529 C553.019001,32.414423 553.021593,32.4222512 553.02289,32.4300795 C553.087694,32.858024 553.12917,33.2911873 553.147315,33.72696 L553.182309,34.5972008 L554.03903,34.4693393 C554.365646,34.4210651 554.697447,34.4014945 555.027952,34.3962756 C555.248288,34.3936662 555.467329,34.4001898 555.686369,34.4158463 C555.72914,34.4197604 555.773207,34.4184557 555.817275,34.4236745 C556.383669,34.4771676 556.943583,34.5958961 557.481463,34.7772506 C557.499609,34.7837742 557.517754,34.7902977 557.537196,34.798126 C557.779566,34.8816273 558.018048,34.9781758 558.251345,35.0864666 C558.291524,35.107342 558.332999,35.1256079 558.373178,35.1464832 C558.583146,35.2495552 558.789225,35.3630649 558.99012,35.4857075 C559.034188,35.5118017 559.078255,35.5392006 559.122322,35.5665995 C559.334882,35.7022892 559.540962,35.8484166 559.737968,36.0062863 C559.758706,36.0232475 559.78074,36.0375993 559.801477,36.0532558 C560.025702,36.2359151 560.240854,36.4303167 560.444341,36.6390701 C561.771545,37.997272 562.59327,39.8590914 562.59327,41.9113984 C562.59327,46.0603724 559.244155,49.4356541 555.127751,49.4356541 L526.258486,49.4356541 C520.35606,49.4356541 515.55402,44.5951844 515.55402,38.647017 C515.55402,32.6975448 520.35606,27.8570751 526.258486,27.8570751 M557.188545,19.5656506 C561.741734,19.5656506 565.444684,23.2945084 565.444684,27.8779504 C565.444684,30.8944372 563.771422,33.6930376 561.141641,35.1451785 C561.044434,35.0564583 560.93945,34.9781758 560.838355,34.8946744 C560.757997,34.8281343 560.681527,34.7602894 560.598577,34.6963587 C560.419715,34.5593643 560.23567,34.4301981 560.049032,34.3075555 C559.99978,34.2749377 559.951824,34.2384059 559.902573,34.2057882 C559.152132,33.7308742 558.33948,33.3733839 557.486648,33.1411458 C557.415362,33.1215751 557.341485,33.1072233 557.2702,33.0902621 C557.062824,33.0393785 556.852856,32.992409 556.641592,32.9558771 C556.53272,32.9376112 556.421256,32.9245641 556.311088,32.9102123 C556.13093,32.8854228 555.950773,32.8658522 555.769319,32.8528051 C555.644894,32.8436722 555.519172,32.839758 555.393451,32.8358439 C555.305316,32.8319298 555.217182,32.8241015 555.127751,32.8241015 C554.965739,32.8241015 554.805023,32.8280157 554.643011,32.8358439 C554.285288,29.2296288 552.552406,26.0670146 549.993911,23.8477049 C551.444243,21.2291543 554.201042,19.5656506 557.188545,19.5656506 M526.258486,51 L555.127751,51 C560.102172,51 564.14729,46.922785 564.14729,41.9113984 C564.14729,39.7964654 563.417588,37.8550587 562.209625,36.3089788 C565.141397,34.5358795 567,31.3380382 567,27.8779504 C567,22.4307911 562.598454,18 557.188545,18 C553.711117,18 550.513646,19.9009607 548.761323,22.8978769 C546.583879,21.4092041 543.957987,20.5311351 541.123423,20.5311351 C536.520982,20.5311351 532.203683,22.9135334 529.708696,26.7924327 C528.590164,26.4597319 527.431454,26.2927292 526.258486,26.2927292 C519.498044,26.2927292 514,31.8338275 514,38.647017 C514,45.4589017 519.498044,51 526.258486,51" id="Fill-68" fill="#003082" mask="url(#mask-2)"></path>
                        <polygon id="Fill-69" fill="#003082" mask="url(#mask-2)" points="556 14 558 14 558 5 556 5"></polygon>
                        <polygon id="Fill-70" fill="#003082" mask="url(#mask-2)" points="548 17.8399453 541.160253 11 540 12.1600547 546.839747 19"></polygon>
                        <polygon id="Fill-71" fill="#003082" mask="url(#mask-2)" points="572.839747 46 574 44.8399453 567.160253 38 566 39.1600547"></polygon>
                        <polygon id="Fill-72" fill="#003082" mask="url(#mask-2)" points="571 29 580 29 580 27 571 27"></polygon>
                        <polygon id="Fill-73" fill="#003082" mask="url(#mask-2)" points="574 12.1600547 572.839747 11 566 17.8399453 567.160253 19"></polygon>
                        <polygon id="Fill-74" fill="#003082" mask="url(#mask-2)" points="156.189683 172.118149 153.259435 168.231749 158 166.745736 157.517249 165.318513 152.777982 166.804526 152.777982 162 151.222018 162 151.222018 166.803275 146.482751 165.318513 146 166.745736 150.741862 168.230498 147.810317 172.118149 149.070401 173 151.999351 169.1136 154.929599 173"></polygon>
                        <polygon id="Fill-75" fill="#003082" mask="url(#mask-2)" points="170.518547 173.319763 165.77928 174.804526 165.77928 170 164.222018 170 164.222018 174.804526 159.481453 173.319763 159 174.746987 163.740565 176.230498 160.811615 180.118149 162.070401 181 165.000649 177.112349 167.929599 181 169.189683 180.118149 166.260733 176.230498 171 174.746987"></polygon>
                        <polygon id="Fill-76" fill="#003082" mask="url(#mask-2)" points="154.518547 179.319763 149.77928 180.804526 149.77928 176 148.222018 176 148.222018 180.804526 143.481453 179.319763 143 180.746987 147.740565 182.230498 144.811615 186.118149 146.070401 187 149.000649 183.112349 151.929599 187 153.189683 186.118149 150.260733 182.230498 155 180.746987"></polygon>
                        <polygon id="Fill-77" fill="#003082" mask="url(#mask-2)" points="172 133 174 133 174 124 172 124"></polygon>
                        <polygon id="Fill-78" fill="#003082" mask="url(#mask-2)" points="155 130.160253 161.839747 137 163 135.839747 156.160253 129"></polygon>
                        <polygon id="Fill-79" fill="#003082" mask="url(#mask-2)" points="182.160253 156 181 157.160253 187.839747 164 189 162.839747"></polygon>
                        <polygon id="Fill-80" fill="#003082" mask="url(#mask-2)" points="186 147 195 147 195 145 186 145"></polygon>
                        <polygon id="Fill-81" fill="#003082" mask="url(#mask-2)" points="182.160253 137 189 130.160253 187.839747 129 181 135.839747"></polygon>
                        <path d="M176.141641,154.144501 C176.009439,154.025777 175.872053,153.918795 175.735963,153.809204 C175.700968,153.781806 175.668566,153.751799 175.632275,153.724401 C174.68094,152.979442 173.605179,152.440618 172.454245,152.132719 C172.4361,152.127501 172.416659,152.123587 172.397217,152.119673 C172.139294,152.05183 171.877482,151.99573 171.613078,151.951372 C171.531424,151.938325 171.448474,151.929193 171.365524,151.917451 C171.16074,151.888748 170.954661,151.865264 170.747286,151.850913 C170.635821,151.843085 170.524357,151.839171 170.412892,151.835257 C170.318277,151.833953 170.224958,151.823515 170.127751,151.823515 C169.965739,151.823515 169.805023,151.827429 169.643011,151.835257 C169.285288,148.229185 167.552406,145.066696 164.993911,142.847474 C166.444243,140.227722 169.201042,138.565589 172.188545,138.565589 C176.741734,138.565589 180.444684,142.294299 180.444684,146.87756 C180.444684,149.893927 178.771422,152.692417 176.141641,154.144501 M182,146.87756 C182,141.430616 177.598454,137 172.188545,137 C168.711117,137 165.51235,138.900886 163.761323,141.898988 C161.583879,140.409069 158.959283,139.531035 156.123423,139.531035 C151.520982,139.531035 147.203683,141.914644 144.708696,145.79339 C143.590164,145.460702 142.431454,145.293706 141.258486,145.293706 C134.498044,145.293706 129,150.834585 129,157.647505 C129,164.459121 134.498044,170 141.258486,170 L142.160569,170 L142.160569,168.435716 L141.258486,168.435716 C135.35606,168.435716 130.55402,163.595438 130.55402,157.647505 C130.55402,151.698268 135.35606,146.85799 141.258486,146.85799 C142.466448,146.85799 143.656265,147.061517 144.794238,147.464656 L145.399516,147.678619 L145.72354,147.120226 C147.876357,143.404562 151.861856,141.095319 156.123423,141.095319 C158.702656,141.095319 161.086178,141.915948 163.044581,143.301494 L163.027732,143.339329 L163.508584,143.720289 C165.959503,145.65901 167.557591,148.409227 168.017705,151.40472 C168.019001,151.413853 168.021593,151.421681 168.02289,151.429509 C168.087694,151.857437 168.12917,152.289278 168.147315,152.726338 L168.182309,153.596545 L169.03903,153.468688 C169.363054,153.420416 169.692263,153.400846 170.021471,153.395627 C170.261249,153.393018 170.501027,153.399541 170.739509,153.419111 C170.761543,153.420416 170.783576,153.420416 170.806906,153.421721 C171.381077,153.475212 171.947471,153.596545 172.491832,153.780501 L172.509978,153.788329 C172.765309,153.874437 173.014159,153.9762 173.259122,154.09101 C173.294116,154.106666 173.327815,154.123626 173.361513,154.140587 C173.577961,154.246264 173.790521,154.362378 173.996601,154.48893 C174.03678,154.513719 174.078255,154.538507 174.118434,154.563296 C174.33229,154.700285 174.540962,154.849016 174.740561,155.006879 C174.761298,155.02384 174.782036,155.038191 174.801477,155.052542 C175.025702,155.235194 175.240854,155.429588 175.444341,155.639638 C176.771545,156.997786 177.59327,158.858227 177.59327,160.911758 C177.59327,165.059263 174.244155,168.435716 170.127751,168.435716 L168.970336,168.435716 L168.970336,170 L170.127751,170 C175.102172,170 179.14729,165.922946 179.14729,160.911758 C179.14729,158.795604 178.416292,156.854274 177.207033,155.30956 C180.140101,153.53653 182,150.337511 182,146.87756" id="Fill-82" fill="#003082" mask="url(#mask-2)"></path>
                        <polygon id="Fill-83" fill="#003082" mask="url(#mask-2)" points="674.518547 170.319763 669.777982 171.804526 669.777982 167 668.22072 167 668.22072 171.804526 663.481453 170.319763 663 171.746987 667.739267 173.230498 664.811615 177.118149 666.070401 178 668.999351 174.1136 671.929599 178 673.189683 177.118149 670.259435 173.231749 675 171.746987"></polygon>
                        <polygon id="Fill-84" fill="#003082" mask="url(#mask-2)" points="685 136 687 136 687 127 685 127"></polygon>
                        <polygon id="Fill-85" fill="#003082" mask="url(#mask-2)" points="677 140.839747 670.160055 134 669 135.160253 675.839945 142"></polygon>
                        <polygon id="Fill-86" fill="#003082" mask="url(#mask-2)" points="695 161.160253 701.839945 168 703 166.839747 696.160055 160"></polygon>
                        <polygon id="Fill-87" fill="#003082" mask="url(#mask-2)" points="701 152 710 152 710 150 701 150"></polygon>
                        <polygon id="Fill-88" fill="#003082" mask="url(#mask-2)" points="703 135.160253 701.839945 134 695 140.839747 696.160055 142"></polygon>
                        <path d="M689.150714,158.136046 C687.957009,157.054442 686.474274,156.293797 684.82175,155.984581 C684.803605,155.980667 684.785459,155.975448 684.767314,155.972838 C684.562531,155.935002 684.355155,155.908908 684.146483,155.885423 C684.046684,155.874985 683.945588,155.863243 683.845789,155.855415 C683.682481,155.842367 683.51658,155.835844 683.351976,155.83193 C683.278098,155.830625 683.202925,155.822797 683.129047,155.822797 C682.967035,155.822797 682.806319,155.825406 682.643011,155.834539 C682.283992,152.229629 680.55111,149.067015 677.995207,146.847705 C679.442947,144.22785 682.19845,142.564346 685.187249,142.564346 C689.740438,142.564346 693.444684,146.293204 693.444684,150.876646 C693.444684,153.890523 691.776607,156.683905 689.150714,158.136046 M695,150.876646 C695,145.430791 690.598454,141 685.187249,141 C681.708525,141 678.511054,142.900961 676.761323,145.899182 C674.583879,144.409204 671.957987,143.531135 669.122127,143.531135 C664.519686,143.531135 660.203683,145.913533 657.708696,149.791128 C656.590164,149.459732 655.431454,149.292729 654.258486,149.292729 C647.498044,149.292729 642,154.833828 642,161.645712 C642,168.458902 647.498044,174 654.258486,174 L655.160569,174 L655.160569,172.435654 L654.258486,172.435654 C648.35606,172.435654 643.55402,167.595184 643.55402,161.645712 C643.55402,155.697545 648.35606,150.857075 654.258486,150.857075 C655.466448,150.857075 656.656265,151.06061 657.795535,151.463765 L658.399516,151.677737 L658.72354,151.119322 C660.877653,147.403511 664.861856,145.095481 669.122127,145.095481 C671.70136,145.095481 674.084882,145.916143 676.044581,147.301744 L676.027732,147.33958 L676.508584,147.720555 C678.953023,149.654134 680.549814,152.395327 681.015113,155.385719 C681.017705,155.401376 681.021593,155.417032 681.02289,155.432689 C681.087694,155.859329 681.130466,156.289883 681.147315,156.725655 L681.183606,157.593287 L682.036437,157.468035 C682.331948,157.424979 682.624865,157.402799 682.915191,157.392362 C683.052578,157.388447 683.186076,157.398885 683.323462,157.402799 C683.469921,157.404104 683.617676,157.402799 683.764135,157.414542 C683.937812,157.430198 684.106304,157.457597 684.276093,157.484996 C684.378485,157.500652 684.482173,157.51109 684.58586,157.531965 C684.759537,157.565888 684.930622,157.614162 685.100411,157.661132 C685.196322,157.685921 685.292233,157.709406 685.386848,157.739414 C685.543676,157.788993 685.696615,157.84901 685.849555,157.910331 C685.957131,157.953386 686.066003,157.996442 686.173579,158.044716 C686.300597,158.102123 686.423726,158.164749 686.548151,158.229985 C686.682945,158.300439 686.815147,158.373503 686.946053,158.451785 C687.035484,158.505278 687.124914,158.562685 687.210457,158.620093 C687.378949,158.733602 687.54485,158.851026 687.70427,158.978887 C687.750929,159.015419 687.798885,159.051951 687.845544,159.089788 C688.041255,159.251572 688.230485,159.423793 688.411939,159.609062 C688.437861,159.635156 688.467671,159.66125 688.493593,159.688649 L688.633571,159.832167 C689.84931,161.172103 690.59327,162.956945 690.59327,164.911398 C690.59327,169.060372 687.244155,172.435654 683.129047,172.435654 L681.970336,172.435654 L681.970336,174 L683.129047,174 C688.102172,174 692.148587,169.922785 692.148587,164.911398 C692.148587,162.793856 691.427957,160.84723 690.225179,159.298541 C693.147877,157.524137 695,154.33021 695,150.876646" id="Fill-89" fill="#003082" mask="url(#mask-2)"></path>
                        <path d="M425.189602,399.564284 C429.742902,399.564284 433.445942,403.292994 433.445942,407.876255 C433.445942,410.893927 431.772639,413.691113 429.142794,415.143196 C427.849258,413.972918 426.277054,413.222741 424.585606,412.946153 C424.516911,412.934411 424.449512,412.927888 424.380817,412.917451 C424.170844,412.888748 423.958279,412.86396 423.743122,412.850913 C423.630359,412.841781 423.516299,412.837867 423.40224,412.833953 C423.311511,412.831343 423.220782,412.822211 423.130053,412.822211 C422.968037,412.822211 422.807317,412.826125 422.644005,412.835257 C422.286273,409.22788 420.553349,406.064086 417.994791,403.844864 C419.443863,401.225113 422.200729,399.564284 425.189602,399.564284 L425.189602,399.564284 Z M395.160891,431 L395.160891,429.435716 L394.258786,429.435716 C388.356215,429.435716 383.554058,424.595438 383.554058,418.646201 C383.554058,412.696964 388.356215,407.856685 394.258786,407.856685 C395.468074,407.856685 396.65792,408.061517 397.795921,408.462046 L398.401213,408.674705 L398.725245,408.118921 C400.878115,404.403258 404.862415,402.094014 409.12279,402.094014 C411.703382,402.094014 414.086963,402.913339 416.044117,404.30019 L416.028564,404.338025 L416.509428,404.718985 C418.957815,406.656401 420.557238,409.402704 421.017363,412.399502 C421.018659,412.409939 421.021252,412.419072 421.023844,412.428204 C421.08865,412.856132 421.130126,413.289278 421.148272,413.725034 L421.183268,414.59524 L422.038713,414.468688 C422.360153,414.420416 422.688073,414.399541 423.014698,414.394323 C424.146218,414.379972 425.264777,414.621333 426.282238,415.100142 C426.297792,415.10797 426.313345,415.115798 426.330195,415.123626 C426.56609,415.235827 426.794209,415.362378 427.017143,415.500672 C427.04825,415.518937 427.075469,415.534593 427.10528,415.552858 C427.330806,415.696371 427.549852,415.851625 427.761121,416.02123 C427.772786,416.030363 427.784451,416.038191 427.796117,416.047323 C428.022939,416.229975 428.240689,416.426979 428.446773,416.638333 C429.772713,417.996481 430.594458,419.858227 430.594458,421.910453 C430.594458,426.059263 427.245262,429.435716 423.130053,429.435716 L421.971314,429.435716 L421.971314,431 L423.130053,431 C428.103299,431 432.148517,426.922946 432.148517,421.910453 C432.148517,419.796908 431.41102,417.856883 430.197843,416.313474 C433.137463,414.541749 435,411.34012 435,407.876255 C435,402.429311 430.599643,398 425.189602,398 C421.710792,398 418.513243,399.900886 416.762173,402.897683 C414.58338,401.407765 411.960016,400.52973 409.12279,400.52973 C404.521533,400.52973 400.205424,402.912034 397.710376,406.79078 C396.591817,406.459397 395.433078,406.292401 394.258786,406.292401 C387.498178,406.292401 382,411.833281 382,418.646201 C382,425.459121 387.498178,431 394.258786,431 L395.160891,431 Z" id="Fill-90" fill="#003082" mask="url(#mask-2)"></path>
                        <polygon id="Fill-91" fill="#003082" mask="url(#mask-2)" points="423 394 425 394 425 385 423 385"></polygon>
                        <polygon id="Fill-92" fill="#003082" mask="url(#mask-2)" points="414.839747 398 416 396.839945 409.160253 390 408 391.160055"></polygon>
                        <polygon id="Fill-93" fill="#003082" mask="url(#mask-2)" points="439.839747 424 441 422.839945 434.160253 416 433 417.160055"></polygon>
                        <polygon id="Fill-94" fill="#003082" mask="url(#mask-2)" points="439 408 448 408 448 406 439 406"></polygon>
                        <polygon id="Fill-95" fill="#003082" mask="url(#mask-2)" points="439.839747 390 433 396.839945 434.160253 398 441 391.160055"></polygon>
                        <polygon id="Fill-96" fill="#003082" mask="url(#mask-2)" points="404 438.282747 405.401721 439 410 430.718525 408.599603 430"></polygon>
                        <polygon id="Fill-97" fill="#003082" mask="url(#mask-2)" points="164 391 166 391 166 382 164 382"></polygon>
                        <polygon id="Fill-98" fill="#003082" mask="url(#mask-2)" points="156 393.839747 149.160253 387 148 388.160253 154.839747 395"></polygon>
                        <polygon id="Fill-99" fill="#003082" mask="url(#mask-2)" points="174 415.160253 180.839747 422 182 420.839747 175.160253 414"></polygon>
                        <polygon id="Fill-100" fill="#003082" mask="url(#mask-2)" points="179 405 188 405 188 403 179 403"></polygon>
                        <polygon id="Fill-101" fill="#003082" mask="url(#mask-2)" points="175.160253 395 182 388.160253 180.839747 387 174 393.839747"></polygon>
                        <path d="M165.189602,395.564346 C169.742902,395.564346 173.445942,399.291899 173.445942,403.875341 C173.445942,406.894437 171.772639,409.691733 169.142794,411.142569 C169.118168,411.121694 169.092245,411.102123 169.067619,411.081248 C168.891345,410.925987 168.713776,410.774641 168.525837,410.633733 C168.480472,410.598506 168.432516,410.568497 168.387151,410.535879 C168.208285,410.405409 168.026827,410.277547 167.838889,410.161428 C167.77149,410.119677 167.700203,410.08445 167.631508,410.044004 C167.459123,409.943542 167.286738,409.84047 167.106576,409.751749 C166.949744,409.673467 166.789024,409.609536 166.629601,409.541691 C166.436477,409.45819 166.240762,409.383822 166.039862,409.314672 C165.870069,409.25596 165.700276,409.195944 165.526595,409.147669 C165.41124,409.116356 165.291996,409.092872 165.174048,409.065473 C165.005551,409.026331 164.838351,408.98719 164.667262,408.958487 C164.542833,408.936306 164.417109,408.921955 164.291384,408.906298 C164.121592,408.882813 163.950503,408.863243 163.778117,408.8515 C163.651097,408.842367 163.524076,408.838453 163.395759,408.834539 C163.307623,408.83193 163.219486,408.821492 163.130053,408.821492 C162.969333,408.821492 162.808613,408.825406 162.644005,408.834539 C162.286273,405.227019 160.553349,402.064405 157.994791,399.8464 C159.443863,397.22524 162.200729,395.564346 165.189602,395.564346 M175,403.875341 C175,398.429486 170.599643,394 165.189602,394 C161.710792,394 158.513243,395.900961 156.762173,398.897877 C154.58338,397.407899 151.960016,396.52983 149.12279,396.52983 C144.521533,396.52983 140.205424,398.912229 137.710376,402.791128 C136.590521,402.458427 135.431782,402.291425 134.258786,402.291425 C127.498178,402.291425 122,407.832523 122,414.645712 C122,421.458902 127.498178,427 134.258786,427 L135.160891,427 L135.160891,425.435654 L134.258786,425.435654 C128.356215,425.435654 123.554058,420.595184 123.554058,414.645712 C123.554058,408.69624 128.356215,403.85577 134.258786,403.85577 C135.465481,403.85577 136.655328,404.06061 137.795921,404.46246 L138.401213,404.675128 L138.725245,404.119322 C140.878115,400.403511 144.862415,398.094176 149.12279,398.094176 C151.703382,398.094176 154.086963,398.914838 156.044117,400.301744 L156.028564,400.338275 L156.510724,400.71925 C158.956519,402.655438 160.554645,405.397936 161.016067,408.393548 C161.018659,408.406595 161.021252,408.418337 161.023844,408.428775 C161.08865,408.856719 161.130126,409.289883 161.148272,409.725655 L161.183268,410.593287 L162.03612,410.468035 C162.335526,410.424979 162.631044,410.40019 162.923969,410.391057 C163.025067,410.387143 163.123572,410.396276 163.22467,410.39758 C163.412609,410.398885 163.600548,410.398885 163.785894,410.414542 C163.903842,410.424979 164.019197,410.445855 164.135849,410.461511 C164.300457,410.483691 164.466362,410.503262 164.628378,410.537184 C164.735957,410.55806 164.838351,410.589373 164.944633,410.614162 C165.117018,410.657217 165.2907,410.702882 165.460493,410.758985 C165.539556,410.783774 165.616028,410.815087 165.695092,410.845095 C165.8934,410.918159 166.087819,410.995137 166.279646,411.085162 C166.321122,411.106037 166.362598,411.128217 166.404074,411.147788 C167.151941,411.51963 167.842777,412.019333 168.449365,412.64168 L168.70211,412.900012 C169.877699,414.234729 170.594458,415.989562 170.594458,417.911398 C170.594458,422.060372 167.245262,425.435654 163.130053,425.435654 L161.971314,425.435654 L161.971314,427 L163.130053,427 C168.103299,427 172.148517,422.922785 172.148517,417.911398 C172.148517,415.795161 171.422685,413.851145 170.215989,412.30376 C173.14524,410.53327 175,407.334124 175,403.875341" id="Fill-102" fill="#003082" mask="url(#mask-2)"></path>
                        <polygon id="Fill-103" fill="#003082" mask="url(#mask-2)" points="149.598588 426 145 434.282848 146.401412 435 151 426.717152"></polygon>
                        <polygon id="Fill-104" fill="#003082" mask="url(#mask-2)" points="138 446.282848 139.401721 447 144 438.718423 142.599603 438"></polygon>
                        <polygon id="Fill-105" fill="#003082" mask="url(#mask-2)" points="144.598588 421 140 429.282848 141.401412 430 146 421.717152"></polygon>
                        <polygon id="Fill-106" fill="#003082" mask="url(#mask-2)" points="138.598588 432 134 440.282747 135.401412 441 140 432.717253"></polygon>
                        <polygon id="Fill-107" fill="#003082" mask="url(#mask-2)" points="152 434.282848 153.40203 435 158 426.718423 156.599294 426"></polygon>
                        <polygon id="Fill-108" fill="#003082" mask="url(#mask-2)" points="146 446.282848 147.401721 447 152 438.718423 150.599603 438"></polygon>
                        <polygon id="Fill-109" fill="#003082" mask="url(#mask-2)" points="172 265 174 265 174 256 172 256"></polygon>
                        <polygon id="Fill-110" fill="#003082" mask="url(#mask-2)" points="163 269.839945 156.160253 263 155 264.160055 161.839747 271"></polygon>
                        <polygon id="Fill-111" fill="#003082" mask="url(#mask-2)" points="181 289.160055 187.839747 296 189 294.839945 182.160253 288"></polygon>
                        <polygon id="Fill-112" fill="#003082" mask="url(#mask-2)" points="186 280 195 280 195 278 186 278"></polygon>
                        <polygon id="Fill-113" fill="#003082" mask="url(#mask-2)" points="181 269.839945 182.160253 271 189 264.160055 187.839747 263"></polygon>
                        <path d="M172.189602,271.538042 C176.742902,271.538042 180.445942,275.202918 180.445942,279.709292 C180.445942,282.677624 178.772639,285.427884 176.142794,286.855608 C175.073488,285.903792 173.812355,285.235469 172.45142,284.876293 C172.415128,284.867313 172.37754,284.8609 172.341249,284.85192 C172.106649,284.792913 171.868162,284.741602 171.625786,284.701836 C171.520799,284.683877 171.414517,284.672332 171.30953,284.659505 C171.130664,284.635132 170.951799,284.614608 170.770341,284.603063 C170.642024,284.594083 170.512411,284.588952 170.381502,284.585104 C170.29855,284.582538 170.215598,284.573559 170.130053,284.573559 C169.968037,284.573559 169.807317,284.577407 169.644005,284.586387 C169.286273,281.039525 167.553349,277.930089 164.994791,275.748096 C166.443863,273.172292 169.200729,271.538042 172.189602,271.538042 M182,279.709292 C182,274.355007 177.599643,270 172.189602,270 C168.710792,270 165.513243,271.868997 163.762173,274.815522 C161.58338,273.350597 158.960016,272.487293 156.124086,272.487293 C151.521533,272.487293 147.205424,274.830915 144.710376,278.64331 C143.589225,278.317486 142.430486,278.153291 141.258786,278.153291 C134.498178,278.153291 129,283.601219 129,290.298565 C129,295.634891 132.638233,300.41193 137.849967,301.914054 L138.285466,300.43502 C133.733462,299.124028 130.554058,294.955023 130.554058,290.298565 C130.554058,284.450413 135.356215,279.691333 141.258786,279.691333 C142.464185,279.691333 143.655328,279.892728 144.795921,280.286539 L145.401213,280.495631 L145.725245,279.94917 C147.878115,276.295839 151.862415,274.025335 156.124086,274.025335 C158.703382,274.025335 161.086963,274.830915 163.044117,276.195783 L163.028564,276.2317 L163.509428,276.60627 C165.957815,278.511184 167.557238,281.211417 168.017363,284.157941 C168.019955,284.168203 168.022548,284.178465 168.023844,284.186162 C168.08865,284.606911 168.130126,285.034074 168.148272,285.461236 L168.183268,286.316844 L169.038713,286.192416 C169.362745,286.144953 169.693258,286.124429 170.022474,286.119298 C170.26485,286.116732 170.507227,286.123146 170.74701,286.14367 C170.765156,286.144953 170.784598,286.144953 170.80404,286.146236 C171.658189,286.224485 172.494192,286.450253 173.273165,286.808146 C173.296496,286.819691 173.319826,286.831235 173.343156,286.84278 C173.571275,286.951816 173.794209,287.071114 174.010662,287.203239 C174.044362,287.223763 174.076765,287.241722 174.109168,287.262246 C174.332102,287.400786 174.548556,287.552153 174.757233,287.715065 C174.770194,287.726609 174.784451,287.735589 174.797413,287.745851 C175.024235,287.924156 175.240689,288.119137 175.446773,288.325663 C176.772713,289.662311 177.594458,291.491542 177.594458,293.50934 C177.594458,296.734226 175.488249,299.556322 172.35421,300.53251 L172.81952,302 C176.605512,300.821134 179.148517,297.410246 179.148517,293.50934 C179.148517,291.432534 178.413612,289.523771 177.203028,288.004971 C180.138759,286.262968 182,283.113766 182,279.709292" id="Fill-114" fill="#003082" mask="url(#mask-2)"></path>
                        <polygon id="Fill-115" fill="#003082" mask="url(#mask-2)" points="941 265 943 265 943 256 941 256"></polygon>
                        <polygon id="Fill-116" fill="#003082" mask="url(#mask-2)" points="931.839747 271 933 269.839945 926.160253 263 925 264.160055"></polygon>
                        <polygon id="Fill-117" fill="#003082" mask="url(#mask-2)" points="952 289.160055 958.839747 296 960 294.839945 953.160253 288"></polygon>
                        <polygon id="Fill-118" fill="#003082" mask="url(#mask-2)" points="957 280 966 280 966 278 957 278"></polygon>
                        <polygon id="Fill-119" fill="#003082" mask="url(#mask-2)" points="960 264.160055 958.839747 263 952 269.839945 953.160253 271"></polygon>
                        <path d="M942.188305,271.538042 C946.741606,271.538042 950.445942,275.202918 950.445942,279.709292 C950.445942,282.676341 948.772639,285.426601 946.141498,286.855608 C945.070896,285.902509 943.80717,285.232903 942.442347,284.87501 C942.424201,284.871162 942.403463,284.867313 942.384021,284.862182 C942.131276,284.796761 941.874642,284.742885 941.615417,284.700553 C941.522095,284.68516 941.427478,284.674898 941.335453,284.66207 C941.143626,284.636415 940.953095,284.614608 940.758676,284.603063 C940.638136,284.594083 940.515003,284.588952 940.391871,284.585104 C940.303734,284.583821 940.216894,284.573559 940.128757,284.573559 C939.966741,284.573559 939.806021,284.577407 939.642709,284.586387 C939.284977,281.039525 937.553349,277.930089 934.994791,275.748096 C936.442567,273.173575 939.199433,271.538042 942.188305,271.538042 M952,279.709292 C952,274.355007 947.599643,270 942.188305,270 C938.709496,270 935.511946,271.868997 933.762173,274.816804 C931.582084,273.350597 928.95872,272.487293 926.121494,272.487293 C921.520237,272.487293 917.204128,274.830915 914.70908,278.64331 C913.587929,278.317486 912.42919,278.153291 911.258786,278.153291 C904.498178,278.153291 899,283.601219 899,290.298565 C899,295.634891 902.638233,300.41193 907.848671,301.914054 L908.28417,300.43502 C903.732166,299.124028 900.554058,294.956306 900.554058,290.298565 C900.554058,284.450413 905.356215,279.691333 911.258786,279.691333 C912.464185,279.691333 913.654031,279.892728 914.794625,280.286539 L915.399917,280.495631 L915.723949,279.94917 C917.876819,276.295839 921.861119,274.025335 926.121494,274.025335 C928.703382,274.025335 931.085667,274.832198 933.044117,276.197066 L933.028564,276.2317 L933.509428,276.60627 C935.957815,278.512467 937.555941,281.212699 938.017363,284.159224 C938.018659,284.168203 938.019955,284.178465 938.022548,284.186162 C938.087354,284.606911 938.12883,285.034074 938.146976,285.461236 L938.181972,286.316844 L939.037417,286.192416 C939.360153,286.144953 939.689369,286.124429 940.01729,286.119298 C940.271331,286.116732 940.524076,286.121863 940.774229,286.144953 C940.782006,286.144953 940.789783,286.144953 940.797559,286.146236 C941.655597,286.223202 942.494192,286.450253 943.274461,286.809428 C943.295199,286.819691 943.31853,286.831235 943.340564,286.84278 C943.569979,286.951816 943.795505,287.072396 944.014551,287.205805 C944.045658,287.225046 944.075469,287.240439 944.10528,287.259681 C944.337287,287.404634 944.562813,287.561132 944.777971,287.731741 C944.781859,287.734306 944.785747,287.736872 944.790932,287.74072 C945.019051,287.921591 945.239393,288.117855 945.446773,288.328229 L945.472696,288.353884 C946.783082,289.687966 947.594458,291.504369 947.594458,293.50934 C947.594458,296.734226 945.486953,299.556322 942.352914,300.53251 L942.818224,302 C946.605512,300.821134 949.148517,297.408963 949.148517,293.50934 C949.148517,291.431252 948.413612,289.523771 947.203028,288.003688 C950.138759,286.261685 952,283.113766 952,279.709292" id="Fill-120" fill="#003082" mask="url(#mask-2)"></path>
                        <polygon id="Fill-121" fill="#003082" mask="url(#mask-2)" points="918 295 938 295 938 293 918 293"></polygon>
                        <polygon id="Fill-122" fill="#003082" mask="url(#mask-2)" points="918 309 938 309 938 307 918 307"></polygon>
                        <polygon id="Fill-123" fill="#003082" mask="url(#mask-2)" points="913 303 933 303 933 301 913 301"></polygon>
                        <path d="M914.327857,25.4684859 C915.541352,25.4684859 916.737902,25.675438 917.884922,26.0853623 L918.492321,26.3016007 L918.818179,25.7351357 C920.983179,21.95826 924.991232,19.6101497 929.275612,19.6101497 C932.273505,19.6101497 935.008104,20.7192007 937.12227,22.5539106 C937.16007,22.6109551 937.192656,22.6719794 937.244793,22.718411 C939.770844,24.9855977 941.234597,28.0819193 941.367547,31.4356045 L941.40274,32.3178041 L942.261702,32.190449 C942.618842,32.1373844 942.973375,32.1188117 943.323998,32.1174851 C943.406115,32.1161585 943.486927,32.1201384 943.569044,32.1227916 C943.884474,32.1307513 944.197298,32.1546304 944.503604,32.2023886 C944.529673,32.2063684 944.553134,32.2090216 944.579203,32.2130015 C946.78852,32.5857806 948.720206,33.9641346 949.856798,35.9991635 C949.878956,36.0416152 949.920666,36.062841 949.949342,36.0999863 C950.530672,37.189138 950.868261,38.4335038 950.868261,39.7587931 C950.868261,43.9774319 947.500194,47.4093874 943.360494,47.4093874 L914.327857,47.4093874 C908.392029,47.4093874 903.562815,42.4876422 903.562815,36.4396 C903.562815,30.3902311 908.392029,25.4684859 914.327857,25.4684859 M946.342746,9.18560142 C945.389938,11.6438208 945.039315,14.2970528 945.327373,16.959571 C946.194155,24.9882509 952.61877,31.0588456 960.349423,31.5191813 C958.327801,33.3353186 955.80566,34.4762083 953.089309,34.7800034 C952.425862,34.8542939 951.736347,34.8728665 951.0351,34.8383745 C949.57265,32.4677117 947.089613,30.8266878 944.193387,30.5640178 C944.143857,30.560038 944.094327,30.5520783 944.044796,30.5480984 C943.660284,30.5202395 943.269254,30.5083 942.871708,30.5295258 C942.527602,27.0232798 940.923077,23.9243049 938.533887,21.6849771 C938.433523,16.2087064 941.536994,11.325433 946.342746,9.18560142 M914.327857,49 L943.360494,49 C948.363065,49 952.431076,44.8543251 952.431076,39.7587931 C952.431076,38.5900445 952.208189,37.4730338 951.819766,36.4409266 C952.308553,36.4369467 952.790823,36.4143943 953.260058,36.3626562 C956.977445,35.9460988 960.368975,34.1273083 962.810302,31.2419186 C963.016244,30.9991479 963.057954,30.6542277 962.918487,30.3676787 C962.77902,30.0824562 962.51703,29.9033631 962.170317,29.9272422 C954.452698,30.376965 947.729598,24.6247581 946.88367,16.7857843 C946.560419,13.7942653 947.127412,10.8173391 948.527298,8.17339343 C948.677192,7.89215085 948.64591,7.54723069 948.449092,7.29915351 C948.25097,7.04709647 947.922505,6.94229381 947.626626,7.03117708 C941.570883,8.77169724 937.397294,14.1643912 937.004962,20.4605106 C934.806072,18.9242893 932.148375,18.0195372 929.275612,18.0195372 C924.647126,18.0195372 920.306698,20.4419379 917.797592,24.3859672 C916.671427,24.0476802 915.506159,23.8778733 914.327857,23.8778733 C907.529157,23.8778733 902,29.5120114 902,36.4396 C902,43.365862 907.529157,49 914.327857,49" id="Fill-124" fill="#003082" mask="url(#mask-2)"></path>
                        <polygon id="Fill-125" fill="#003082" mask="url(#mask-2)" points="409.22072 161 409.22072 165.804526 404.481453 164.319763 404 165.746987 408.739267 167.230498 405.810317 171.118149 407.070401 172 409.999351 168.1136 412.928301 172 414.188385 171.118149 411.258138 167.231749 416 165.746987 415.518547 164.319763 410.776684 165.805777 410.776684 161"></polygon>
                        <polygon id="Fill-126" fill="#003082" mask="url(#mask-2)" points="422.222018 169 422.222018 173.803275 417.481453 172.318513 417 173.745736 421.740565 175.230498 418.810317 179.118149 420.070401 180 423.000649 176.1136 425.928301 180 427.188385 179.118149 424.259435 175.230498 429 173.745736 428.518547 172.318513 423.777982 173.803275 423.777982 169"></polygon>
                        <polygon id="Fill-127" fill="#003082" mask="url(#mask-2)" points="401 179.746987 405.740565 181.231749 402.811615 185.118149 404.070401 186 407.000649 182.114851 409.929599 186 411.189683 185.118149 408.260733 181.231749 413 179.746987 412.518547 178.319763 407.77928 179.805777 407.77928 175 406.222018 175 406.222018 179.805777 401.481453 178.319763"></polygon>
                        <path d="M438.088997,154.779282 C437.421644,154.853569 436.729526,154.869488 436.030891,154.837651 C434.564539,152.463109 432.073697,150.819502 429.174882,150.562149 C429.125352,150.556843 429.077125,150.55021 429.028899,150.547557 C428.649603,150.519699 428.265093,150.50776 427.872762,150.530312 C427.527355,147.022889 425.924143,143.924046 423.534968,141.68614 C423.434604,136.207449 426.538056,131.324383 431.343779,129.183316 C430.390977,131.645411 430.040356,134.299856 430.328412,136.959608 C431.195189,144.987946 437.619765,151.058283 445.349068,151.518599 C443.327457,153.333332 440.805332,154.4755 438.088997,154.779282 M447.171254,149.928054 C439.465413,150.375104 432.729319,144.625796 431.883397,136.787155 C431.560148,133.79709 432.12844,130.818964 433.527014,128.172478 C433.675604,127.891247 433.645626,127.547668 433.447505,127.296949 C433.251992,127.048882 432.924832,126.942757 432.626348,127.03031 C426.571945,128.772083 422.398382,134.163221 422.006052,140.460399 C419.807176,138.925569 417.149495,138.019529 414.275445,138.019529 C409.648291,138.019529 405.30789,140.441827 402.798799,144.385688 C401.672641,144.047416 400.50738,143.877616 399.327782,143.877616 C392.529124,143.877616 387,149.511514 387,156.438808 C387,163.366102 392.529124,169 399.327782,169 L400.396589,169 L400.396589,167.409455 L399.327782,167.409455 C393.39199,167.409455 388.562805,162.487919 388.562805,156.438808 C388.562805,150.389697 393.39199,145.468161 399.327782,145.468161 C400.541269,145.468161 401.737812,145.676431 402.884825,146.085011 L403.493524,146.30124 L403.81938,145.736126 C405.984367,141.958084 409.991092,139.610074 414.275445,139.610074 C417.27332,139.610074 420.009206,140.719078 422.12336,142.55371 C422.159856,142.610752 422.193745,142.671773 422.245882,142.718203 C424.770613,144.985293 426.234358,148.081483 426.368611,151.435026 L426.403803,152.318514 L427.261456,152.191164 L427.26276,152.191164 L427.264063,152.191164 C427.618594,152.138102 427.974429,152.115551 428.330264,152.116877 C428.37458,152.115551 428.418897,152.118204 428.464516,152.11953 C431.049206,152.173919 433.536138,153.634461 434.85781,155.99839 C434.878665,156.035534 434.91516,156.056759 434.942532,156.088596 C435.526466,157.181681 435.867963,158.428647 435.867963,159.75786 C435.867963,163.976319 432.499916,167.409455 428.361546,167.409455 L426.946028,167.409455 L426.946028,169 L428.361546,169 C433.362783,169 437.430768,164.854502 437.430768,159.75786 C437.430768,158.587834 437.207883,157.472198 436.818159,156.441461 C437.30564,156.436155 437.790513,156.41493 438.259746,156.361868 C441.97711,155.945328 445.369922,154.126615 447.811235,151.241348 C448.015873,150.998587 448.057582,150.656335 447.919419,150.368472 C447.781256,150.081935 447.50493,149.900196 447.171254,149.928054" id="Fill-128" fill="#003082" mask="url(#mask-2)"></path>
                        <polygon id="Fill-129" fill="#003082" mask="url(#mask-2)" points="542.222018 168 542.222018 172.804526 537.481453 171.319763 537 172.746987 541.740565 174.230498 538.810317 178.118149 540.070401 179 543.000649 175.1136 545.928301 179 547.188385 178.118149 544.259435 174.231749 549 172.746987 548.518547 171.319763 543.777982 172.805777 543.777982 168"></polygon>
                        <path d="M567.088786,161.779461 C566.422722,161.852421 565.730589,161.869666 565.033242,161.837829 C563.776715,159.806892 561.766793,158.314531 559.385387,157.76269 C559.308483,157.744118 559.232883,157.7282 559.157283,157.713608 C558.879647,157.656566 558.599405,157.61279 558.315253,157.583606 C558.207066,157.570341 558.09888,157.554422 557.988086,157.54779 C557.620513,157.521259 557.250333,157.510647 556.872332,157.530545 C556.528221,154.023166 554.923672,150.924362 552.534445,148.686484 C552.434079,143.207862 555.538901,138.324858 560.344727,136.185145 C559.3906,138.645881 559.039972,141.298967 559.328035,143.960012 C560.19483,151.988249 566.619543,158.058509 574.349011,158.518819 C572.327358,160.33353 569.805179,161.475683 567.088786,161.779461 M576.171236,156.928294 C568.448286,157.36738 561.730296,151.626103 560.883052,143.787561 C560.559796,140.797534 561.128101,137.819445 562.528008,135.172992 C562.676602,134.891765 562.646622,134.548191 562.448498,134.298801 C562.25298,134.049411 561.925814,133.941961 561.627323,134.030839 C555.571487,135.77259 551.397835,141.16366 551.005496,147.460758 C548.806573,145.925948 546.148836,145.01992 543.274725,145.01992 C538.647472,145.01992 534.306978,147.442187 531.797833,151.385998 C530.671651,151.04773 529.506365,150.877933 528.328045,150.877933 C521.529242,150.877933 516,156.51176 516,163.438966 C516,170.366173 521.529242,176 528.328045,176 L529.396876,176 L529.396876,174.409475 L528.328045,174.409475 C522.392127,174.409475 517.562838,169.488001 517.562838,163.438966 C517.562838,157.389931 522.392127,152.468457 528.328045,152.468457 C529.540255,152.468457 530.736824,152.676725 531.883861,153.0853 L532.492573,153.301526 L532.818436,152.736419 C534.983469,148.958425 538.990279,146.610444 543.274725,146.610444 C546.273967,146.610444 549.008608,147.719434 551.122807,149.554043 C551.159304,149.611084 551.194497,149.672105 551.245331,149.718534 C553.770117,151.985596 555.233893,155.081747 555.368149,158.435247 L555.403342,159.318724 L556.261013,159.191376 C556.620766,159.138315 556.976608,159.118416 557.32854,159.11709 C557.406747,159.11709 557.484954,159.121069 557.563161,159.122396 C557.881203,159.131682 558.196639,159.154233 558.505557,159.204642 C558.531626,159.208621 558.555088,159.209948 558.579853,159.213927 C560.791811,159.588013 562.719616,160.964964 563.857529,162.998554 C563.878384,163.037024 563.917488,163.058248 563.94486,163.091412 C564.528807,164.183157 564.869007,165.430107 564.869007,166.759303 C564.869007,170.977709 561.500889,174.409475 557.361126,174.409475 L555.945578,174.409475 L555.945578,176 L557.361126,176 C562.363773,176 566.431846,171.854554 566.431846,166.759303 C566.431846,165.587966 566.208956,164.472343 565.820527,163.441619 C566.306715,163.43764 566.790295,163.415088 567.259538,163.362027 C570.976982,162.945492 574.369866,161.126802 576.811231,158.241572 C577.015873,157.998814 577.057583,157.656566 576.919418,157.368706 C576.781252,157.082173 576.50101,156.904416 576.171236,156.928294" id="Fill-130" fill="#003082" mask="url(#mask-2)"></path>
                        <path d="M565.089063,287.779461 C564.421709,287.853748 563.72568,287.872319 563.02183,287.837829 C561.74317,285.779035 559.692881,284.270756 557.288061,283.737485 C557.285455,283.737485 557.282848,283.737485 557.280241,283.736159 C556.919192,283.657893 556.551626,283.599525 556.177543,283.565035 C556.13453,283.561055 556.09282,283.554422 556.048504,283.550443 C555.66269,283.522585 555.271662,283.507993 554.872814,283.530545 C554.527406,280.023166 552.924193,276.924362 550.535014,274.68781 C550.433347,269.207862 553.538107,264.324858 558.343836,262.183818 C557.391032,264.644555 557.040411,267.29764 557.327164,269.960012 C558.195246,277.985596 564.619829,284.057182 572.347839,284.517492 C570.326226,286.33353 567.804098,287.475683 565.089063,287.779461 M574.172634,282.928294 C566.439411,283.372686 559.729377,277.62345 558.882151,269.787561 C558.558901,266.794881 559.128498,263.816792 560.527074,261.172992 C560.675664,260.891765 560.645685,260.548191 560.447565,260.298801 C560.252051,260.049411 559.923588,259.941961 559.626407,260.030839 C553.571996,261.773916 549.398427,267.16366 549.006096,273.462085 C546.807218,271.925948 544.149533,271.01992 541.27548,271.01992 C536.64832,271.01992 532.30661,273.442187 529.797516,277.385998 C528.67266,277.04773 527.507398,276.877933 526.327798,276.877933 C519.529131,276.877933 514,282.51176 514,289.438966 C514,296.366173 519.529131,302 526.327798,302 L527.396606,302 L527.396606,300.409475 L526.327798,300.409475 C520.391998,300.409475 515.562807,295.488001 515.562807,289.438966 C515.562807,283.389931 520.391998,278.468457 526.327798,278.468457 C527.541287,278.468457 528.737831,278.676725 529.883542,279.0853 L530.492242,279.302853 L530.818098,278.736419 C532.983088,274.958425 536.991121,272.610444 541.27548,272.610444 C544.274662,272.610444 547.010552,273.720761 549.124708,275.554043 C549.161204,275.612411 549.195093,275.672105 549.24723,275.718534 C551.769358,277.982943 553.233105,281.079094 553.368661,284.435247 L553.403854,285.320051 L554.264114,285.191376 C557.26069,284.739025 560.332863,286.269856 561.857871,288.998554 C561.880029,289.039677 561.920435,289.062228 561.951718,289.098045 C562.534349,290.18581 562.868026,291.43276 562.868026,292.757976 C562.868026,296.976382 559.499974,300.409475 555.360295,300.409475 L553.944775,300.409475 L553.944775,302 L555.360295,302 C560.362842,302 564.430833,297.854554 564.430833,292.757976 C564.430833,291.587966 564.20534,290.472343 563.813009,289.441619 C564.301794,289.43764 564.786668,289.415088 565.259811,289.362027 C568.975877,288.945492 572.368693,287.128129 574.810009,284.241572 C575.015951,283.998814 575.05766,283.656566 574.919497,283.368706 C574.781334,283.082173 574.471119,282.887171 574.172634,282.928294" id="Fill-131" fill="#003082" mask="url(#mask-2)"></path>
                        <polygon id="Fill-132" fill="#003082" mask="url(#mask-2)" points="538 309.282848 539.401721 310 544 301.718423 542.599603 301"></polygon>
                        <path d="M53.0890626,285.779461 C52.4191019,285.855074 51.7243761,285.870993 51.0166161,285.837829 C49.7483832,283.802912 47.7241635,282.307899 45.348019,281.75871 C45.277634,281.741465 45.2059456,281.726873 45.1355607,281.712281 C44.8605379,281.65524 44.5803014,281.61279 44.2961547,281.58228 C44.186667,281.570341 44.0771792,281.553096 43.9676915,281.546463 C43.6079461,281.521259 43.242987,281.510647 42.8728142,281.530545 C42.5274064,278.023166 40.9241932,274.925688 38.5350144,272.68781 C38.4333472,267.209189 41.5381065,262.324858 46.343836,260.183818 C45.3910321,262.644555 45.0404106,265.29764 45.3271642,267.960012 C46.1952455,275.985596 52.6198294,282.057182 60.3478387,282.517492 C58.3262259,284.33353 55.8040977,285.475683 53.0890626,285.779461 M62.1726343,280.928294 C54.426377,281.374013 47.7293772,275.62345 46.8821507,267.787561 C46.5589012,264.794881 47.1284981,261.816792 48.5270736,259.172992 C48.6756641,258.891765 48.6456853,258.548191 48.4475647,258.298801 C48.2520508,258.049411 47.9235876,257.941961 47.6264066,258.030839 C41.5719956,259.77259 37.3984274,265.16366 37.0060964,271.462085 C34.8059143,269.925948 32.1495333,269.01992 29.2741768,269.01992 C24.6470166,269.01992 20.3066099,271.442187 17.797516,275.385998 C16.6726599,275.04773 15.5073976,274.877933 14.3277976,274.877933 C7.52913061,274.877933 2,280.51176 2,287.438966 C2,294.366173 7.52913061,300 14.3277976,300 L15.3966064,300 L15.3966064,298.409475 L14.3277976,298.409475 C8.39199823,298.409475 3.56280707,293.488001 3.56280707,287.438966 C3.56280707,281.389931 8.39199823,276.468457 14.3277976,276.468457 C15.5412866,276.468457 16.7378312,276.676725 17.8835421,277.0853 L18.4922418,277.302853 L18.8180981,276.736419 C20.9830877,272.958425 24.9898175,270.610444 29.2741768,270.610444 C32.2733587,270.610444 35.0105521,271.720761 37.1247081,273.555369 C37.161204,273.612411 37.195093,273.672105 37.2459266,273.718534 C39.7693582,275.984269 41.233105,279.08042 41.3686612,282.435247 L41.4038537,283.320051 L42.2641145,283.191376 C45.2398347,282.737699 48.3315598,284.268529 49.8578709,286.998554 C49.8800292,287.039677 49.9204354,287.063555 49.9517176,287.098045 C50.5343487,288.18581 50.8680256,289.43276 50.8680256,290.757976 C50.8680256,294.976382 47.4999744,298.409475 43.3602953,298.409475 L41.9447753,298.409475 L41.9447753,300 L43.3602953,300 C48.362842,300 52.4308327,295.854554 52.4308327,290.757976 C52.4308327,289.586639 52.2053401,288.472343 51.8130091,287.441619 C52.3017936,287.43764 52.7866679,287.415088 53.2598113,287.362027 C56.9758771,286.945492 60.3686935,285.126802 62.8100093,282.241572 C63.0159505,281.998814 63.0576601,281.656566 62.919497,281.368706 C62.7800305,281.082173 62.4880632,280.891151 62.1726343,280.928294" id="Fill-133" fill="#003082" mask="url(#mask-2)"></path>
                        <polygon id="Fill-134" fill="#003082" mask="url(#mask-2)" points="29.5985884 299 25 307.282747 26.4014116 308 31 299.717253"></polygon>
                        <polygon id="Fill-135" fill="#003082" mask="url(#mask-2)" points="18 318.282747 19.4017207 319 24 310.718525 22.5996029 310"></polygon>
                        <polygon id="Fill-136" fill="#003082" mask="url(#mask-2)" points="24.5982793 294 20 302.282747 21.4017207 303 26 294.717253"></polygon>
                        <polygon id="Fill-137" fill="#003082" mask="url(#mask-2)" points="17.5982793 304 13 312.282747 14.4017207 313 19 304.717253"></polygon>
                        <polygon id="Fill-138" fill="#003082" mask="url(#mask-2)" points="32 307.282747 33.40203 308 38 299.718525 36.5992939 299"></polygon>
                        <polygon id="Fill-139" fill="#003082" mask="url(#mask-2)" points="25 318.282747 26.40203 319 31 310.718525 29.5992939 310"></polygon>
                        <path d="M311.088997,154.419244 C310.421644,154.493642 309.728223,154.510899 309.023071,154.476856 C307.761356,152.472215 305.74887,150.997867 303.377942,150.45317 C303.298434,150.43353 303.221532,150.417817 303.140719,150.402105 C302.867,150.347112 302.590674,150.305212 302.309135,150.275096 C302.199647,150.263312 302.091463,150.2476 301.980672,150.241053 C301.61441,150.214866 301.246845,150.2057 300.872762,150.22534 C300.831052,149.810271 300.771095,149.401749 300.691586,148.997154 C300.12981,146.043222 298.636087,143.4402 296.534968,141.497099 C296.431997,136.089412 299.538056,131.268322 304.343779,129.155004 C303.389673,131.585189 303.039052,134.203924 303.327109,136.830514 C304.195189,144.753495 310.619765,150.746469 318.347764,151.19951 C316.326154,152.992033 313.804029,154.119398 311.088997,154.419244 M320.171254,149.630888 C312.448468,150.06167 305.730622,144.397347 304.882093,136.660296 C304.558844,133.708983 305.127137,130.769454 306.527014,128.157266 C306.675604,127.87968 306.645626,127.540554 306.447505,127.294393 C306.250688,127.048232 305.923529,126.943483 305.626348,127.029901 C299.570642,128.7491 295.397079,134.070368 295.006052,140.287244 C292.805872,138.770996 290.149495,137.876699 287.274142,137.876699 C282.646988,137.876699 278.306587,140.267603 275.797496,144.160352 C274.672641,143.826463 273.50738,143.658864 272.327782,143.658864 C265.529124,143.658864 260,149.219746 260,156.057262 C260,161.505539 263.65871,166.380313 268.899777,167.913582 L269.337728,166.403881 C264.760104,165.065708 261.562805,160.811574 261.562805,156.057262 C261.562805,150.086548 266.39199,145.228795 272.327782,145.228795 C273.541269,145.228795 274.737812,145.434366 275.883522,145.837651 L276.492221,146.052387 L276.818077,145.493287 C278.983063,141.76421 282.989788,139.44663 287.274142,139.44663 C290.274623,139.44663 293.011813,140.54388 295.12727,142.356044 C295.162463,142.411037 295.195048,142.469959 295.245882,142.514477 C297.76931,144.752186 299.233055,147.808249 299.368611,151.118329 L299.403803,151.991677 L300.264063,151.864668 C300.273187,151.863359 300.283614,151.863359 300.294042,151.862049 C300.670731,151.808365 301.044814,151.782178 301.414986,151.784797 C301.42411,151.784797 301.431931,151.786106 301.441055,151.786106 C301.791676,151.790034 302.137083,151.824078 302.477277,151.876453 C302.52029,151.882999 302.563303,151.888237 302.605012,151.894784 C304.799978,152.271881 306.725135,153.625767 307.85781,155.622552 C307.879968,155.663142 307.920374,155.686711 307.951656,155.720755 C308.534287,156.794436 308.867963,158.025241 308.867963,159.333299 C308.867963,162.625048 306.7499,165.505656 303.598221,166.502084 L304.06615,168 C307.873451,166.796692 310.430768,163.313775 310.430768,159.333299 C310.430768,158.178437 310.206579,157.077259 309.815552,156.059881 C310.303033,156.055953 310.787906,156.033693 311.259746,155.981319 C314.975807,155.570177 318.368619,153.775035 320.811235,150.927161 C321.015873,150.687547 321.057582,150.34973 320.919419,150.065598 C320.779953,149.782774 320.511448,149.596844 320.171254,149.630888" id="Fill-140" fill="#003082" mask="url(#mask-2)"></path>
                        <polygon id="Fill-141" fill="#003082" mask="url(#mask-2)" points="278 175.282747 279.401721 176 284 167.718525 282.599603 167"></polygon>
                        <polygon id="Fill-142" fill="#003082" mask="url(#mask-2)" points="272.401412 188 277 179.717253 275.598588 179 271 187.282747"></polygon>
                        <polygon id="Fill-143" fill="#003082" mask="url(#mask-2)" points="273 171.282848 274.40203 172 279 163.718423 277.599294 163"></polygon>
                        <polygon id="Fill-144" fill="#003082" mask="url(#mask-2)" points="267 181.282848 268.40203 182 273 173.718423 271.599294 173"></polygon>
                        <path d="M303.770873,175.196072 L290.102702,186.036778 L293.805966,178.41856 L285.618364,178.41856 L291.42362,167.569997 L297.553564,167.569997 L293.545172,175.196072 L303.770873,175.196072 Z M290.488676,166 L283,179.988557 L291.301047,179.988557 L287.631687,187.537375 C287.424356,187.966866 287.539105,188.476231 287.909432,188.77347 C288.095899,188.924054 288.318877,189 288.543159,189 C288.763529,189 288.985204,188.925363 289.170367,188.778708 L305.536443,175.799715 C305.947192,175.474979 306.102364,174.943353 305.931545,174.445773 C305.759421,173.946883 305.310857,173.626075 304.785358,173.626075 L296.140064,173.626075 L300.14976,166 L290.488676,166 Z" id="Fill-145" fill="#003082" mask="url(#mask-2)"></path>
                        <path d="M561.089063,415.419656 C560.415192,415.493192 559.715252,415.509999 559.010099,415.477266 C557.730135,413.456974 555.687668,411.976125 553.31022,411.44061 C553.271117,411.431445 553.230711,411.423589 553.190305,411.414423 C552.872269,411.348957 552.550323,411.299202 552.221859,411.266469 C552.148868,411.258613 552.075876,411.248139 552.001581,411.244211 C551.630104,411.216715 551.254718,411.204931 550.872814,411.22588 C550.831105,410.809514 550.771147,410.399695 550.691638,409.993803 C550.128558,407.04127 548.636136,404.439636 546.535014,402.497903 C546.434651,397.089072 549.538107,392.269438 554.343836,390.156183 C553.391032,392.584986 553.040411,395.20495 553.328468,397.831461 C554.195246,405.752891 560.619829,411.745683 568.347839,412.20002 C566.326226,413.992489 563.804098,415.11982 561.089063,415.419656 M570.172634,410.631445 C562.438108,411.079235 555.729377,405.394136 554.883454,397.661248 C554.558901,394.708715 555.128498,391.769275 556.527074,389.158476 C556.675664,388.880898 556.645685,388.541782 556.447565,388.295629 C556.252051,388.048166 555.924891,387.94211 555.626407,388.031145 C549.571996,389.750292 545.398427,395.071398 545.006096,401.288085 C542.807218,399.771884 540.149533,398.877613 537.27548,398.877613 C532.64832,398.877613 528.307913,401.268445 525.798819,405.161075 C524.67266,404.827197 523.507398,404.659603 522.327798,404.659603 C515.529131,404.659603 510,410.220317 510,417.057625 C510,422.503117 513.658715,427.379053 518.899789,428.913584 L519.33774,427.40393 C514.76011,426.064488 511.562807,421.809174 511.562807,417.057625 C511.562807,411.087091 516.391998,406.229487 522.327798,406.229487 C523.541287,406.229487 524.737831,406.435051 525.884846,406.838324 L526.493545,407.051744 L526.819402,406.493971 C528.984391,402.765006 532.991121,400.447497 537.27548,400.447497 C540.274662,400.447497 543.010552,401.543404 545.124708,403.352894 C545.162507,403.410505 545.196396,403.469424 545.24723,403.515251 C547.770662,405.751582 549.234408,408.807552 549.368661,412.118841 L549.403854,412.992163 L550.264114,412.865158 C553.252869,412.417368 556.332863,413.928332 557.857871,416.622928 C557.880029,416.663517 557.921739,416.685776 557.951718,416.721127 C558.535652,417.794776 558.868026,419.025544 558.868026,420.333562 C558.868026,423.625211 556.749959,426.505731 553.598277,427.502129 L554.066206,429 C557.873512,427.796728 560.430833,424.315226 560.430833,420.333562 C560.430833,419.178735 560.202733,418.077591 559.809099,417.060243 C560.30049,417.056315 560.786668,417.034057 561.259811,416.981684 C564.975877,416.570555 568.368693,414.776776 570.810009,411.92768 C571.015951,411.688073 571.05766,411.350266 570.919497,411.066142 C570.780031,410.783327 570.48285,410.615734 570.172634,410.631445" id="Fill-146" fill="#003082" mask="url(#mask-2)"></path>
                        <polygon id="Fill-147" fill="#003082" mask="url(#mask-2)" points="529 421 549 421 549 419 529 419"></polygon>
                        <polygon id="Fill-148" fill="#003082" mask="url(#mask-2)" points="529 436 549 436 549 434 529 434"></polygon>
                        <polygon id="Fill-149" fill="#003082" mask="url(#mask-2)" points="525 428 545 428 545 426 525 426"></polygon>
                        <polygon id="Fill-150" fill="#003082" mask="url(#mask-2)" points="151.598588 302 147 310.282747 148.401412 311 153 302.717253"></polygon>
                        <polygon id="Fill-151" fill="#003082" mask="url(#mask-2)" points="140 321.282848 141.401721 322 146 313.718423 144.599603 313"></polygon>
                        <polygon id="Fill-152" fill="#003082" mask="url(#mask-2)" points="146.598279 296 142 304.282848 143.401721 305 148 296.717152"></polygon>
                        <polygon id="Fill-153" fill="#003082" mask="url(#mask-2)" points="140.598279 308 136 316.282848 137.401721 317 142 308.717152"></polygon>
                        <path d="M159.102622,321.038087 L162.804539,313.419869 L154.618334,313.419869 L160.423525,302.569997 L166.554703,302.569997 L162.546357,310.197381 L172.770638,310.197381 L159.102622,321.038087 Z M173.785112,308.626075 L165.14122,308.626075 L169.149566,301 L159.488592,301 L152,314.989866 L160.300953,314.989866 L156.634242,322.534757 C156.424306,322.962938 156.535142,323.472303 156.905464,323.772161 C157.091929,323.924054 157.317513,324 157.543096,324 C157.763464,324 157.985136,323.926672 158.170297,323.780017 L174.538796,310.798406 C174.948237,310.47236 175.102103,309.939425 174.931285,309.444463 C174.75786,308.946883 174.307996,308.626075 173.785112,308.626075 L173.785112,308.626075 Z" id="Fill-154" fill="#003082" mask="url(#mask-2)"></path>
                    </g>
                </g>
            </g>
        </g>
    </g>
</svg>