<svg width="41" height="45" viewBox="0 0 41 45" xmlns="http://www.w3.org/2000/svg">
    <path fill-rule="evenodd" clip-rule="evenodd" d="M23.6443 18.9563L23.1337 6.47893H17.5256L17.0143 18.9563H13.2996L12.5375 1H6.92685L6.16552 18.9563H1V44H40V18.9563H23.6443ZM41 17.9563V45H0V17.9563H5.20702L5.96835 0H13.496L14.258 17.9563H16.0544L16.5658 5.47893H24.0936L24.6042 17.9563H41ZM8.47335 28C7.65954 27.9998 6.99994 27.3282 7 26.4999C7.00006 25.6715 7.65977 25.0001 8.47357 25C9.28738 24.9999 9.94718 25.6713 9.94737 26.4997C9.94719 27.3282 9.28735 27.9998 8.47335 28ZM15.3509 26.5003C15.351 27.3287 16.011 28.0002 16.8249 28C17.6387 27.9997 18.2983 27.328 18.2982 26.4997C18.2981 25.6712 17.6381 24.9998 16.8242 25C16.0103 25.0002 15.3507 25.6719 15.3509 26.5003ZM23.7018 26.5002C23.7017 25.6718 24.3613 25.0001 25.1752 25C25.989 24.9999 26.6489 25.6713 26.6491 26.4997C26.6492 27.3281 25.9895 27.9998 25.1755 28C24.3617 28 23.7018 27.3286 23.7018 26.5002ZM32.165 27.0745C32.3933 27.6349 32.9308 28.0002 33.5269 28C33.9177 28.0001 34.2926 27.842 34.5689 27.5606C34.8452 27.2792 35.0003 26.8975 35 26.4997C34.9999 25.893 34.6407 25.3461 34.0899 25.1141C33.5392 24.882 32.9053 25.0106 32.484 25.4397C32.0626 25.8688 31.9367 26.5141 32.165 27.0745Z" />
</svg>