<svg xmlns="http://www.w3.org/2000/svg" viewBox="0 0 50 56">
    <path d="M50,56H0V20.994H5.121L5.782,0H16.1L17,20.994h.993l.778-14.479h10.3l.778,14.479H50ZM.981,55.018H49.019V21.976h-20.1L28.139,7.5H19.7L18.92,21.976H16.057L15.159.982H6.733l-.66,20.994H.981Z"/>
    <path d="M7.7,30.663A2.663,2.663,0,1,1,10.352,28,2.661,2.661,0,0,1,7.7,30.663Zm0-4.344A1.681,1.681,0,1,0,9.371,28,1.678,1.678,0,0,0,7.7,26.319Z"/>
    <path d="M16.349,30.663A2.663,2.663,0,1,1,19,28,2.661,2.661,0,0,1,16.349,30.663Zm0-4.344A1.681,1.681,0,1,0,18.022,28,1.678,1.678,0,0,0,16.349,26.319Z"/>
    <path d="M25,30.663A2.663,2.663,0,1,1,27.653,28,2.661,2.661,0,0,1,25,30.663Zm0-4.344A1.681,1.681,0,1,0,26.673,28,1.679,1.679,0,0,0,25,26.319Z"/>
    <path d="M33.651,30.663A2.663,2.663,0,1,1,36.3,28,2.661,2.661,0,0,1,33.651,30.663Zm0-4.344A1.681,1.681,0,1,0,35.322,28,1.679,1.679,0,0,0,33.651,26.319Z"/>
    <path d="M42.3,30.663A2.663,2.663,0,1,1,44.954,28,2.661,2.661,0,0,1,42.3,30.663Zm0-4.344A1.681,1.681,0,1,0,43.973,28,1.678,1.678,0,0,0,42.3,26.319Z"/>
</svg>