<svg xmlns="http://www.w3.org/2000/svg" viewBox="0 0 1920 1251.043"><defs><style>.a{fill:#e0dcd4;}.b{fill:#464541;}</style></defs><title>ar-4</title><rect class="a" width="1920" height="1251.043"/><path class="b" d="M500.905,791.726h14.479l22.677,69.625H525.072l-5.429-18.844H496.222l-5.43,18.844H478.229ZM499.1,832.819h17.779l-2.449-8.516c-2.236-7.347-4.258-15.331-6.281-23h-.426c-1.916,7.771-3.939,15.649-6.175,23Z"/><path class="b" d="M557.327,791.726h22.251c14.372,0,24.911,4.364,24.911,17.139,0,6.6-3.619,12.989-9.687,15.119v.425c7.665,1.7,13.307,7.133,13.307,16.5,0,13.947-11.391,20.441-26.721,20.441H557.327Zm21.186,28.744c9.688,0,13.84-3.833,13.84-9.794,0-6.814-4.578-9.369-13.627-9.369h-9.049V820.47Zm1.6,31.3c10.22,0,15.969-3.727,15.969-11.5,0-7.346-5.536-10.54-15.969-10.54H569.677V851.77Z"/><path class="b" d="M627.907,826.751c0-22.782,14.266-36.3,31.831-36.3a27.638,27.638,0,0,1,20.121,8.836l-6.6,7.985c-3.619-3.619-7.772-6.069-13.2-6.069-11.391,0-19.482,9.582-19.482,25.232,0,15.862,7.452,25.444,19.162,25.444,6.175,0,10.966-2.875,14.906-7.133l6.6,7.772a28.071,28.071,0,0,1-21.932,10.113C641.747,862.628,627.907,849.853,627.907,826.751Z"/><path class="b" d="M703.49,791.726h18.631c21.292,0,33.855,11.5,33.855,34.493,0,23.1-12.563,35.132-33.216,35.132H703.49Zm17.78,59.618c14.052,0,22.037-7.985,22.037-25.125,0-17.034-7.985-24.486-22.037-24.486h-5.43v49.611Z"/><path class="b" d="M780.671,791.726h41.945v10.432h-29.6v17.78h25.018V830.37H793.021v20.547h30.661v10.434H780.671Z"/><path class="b" d="M848.591,791.726h42.052v10.432h-29.7v19.7h25.338v10.433H860.94v29.064H848.591Z"/><path class="b" d="M908.846,826.751c0-22.782,14.372-36.3,32.9-36.3a28.662,28.662,0,0,1,21.079,8.836l-6.6,7.985c-3.514-3.407-7.559-6.069-14.053-6.069-12.35,0-20.653,9.582-20.653,25.232,0,15.862,7.345,25.444,21.292,25.444,3.938,0,7.771-1.065,10.006-3.088V833.777h-13.2V823.663h24.274v30.661c-4.685,4.685-12.776,8.3-22.25,8.3C922.792,862.628,908.846,849.853,908.846,826.751Z"/><path class="b" d="M989.965,791.726h12.349v28h28.212v-28h12.35v69.625h-12.35V830.477h-28.212v30.874H989.965Z"/><path class="b" d="M1071.19,791.726h12.35v69.625h-12.35Z"/><path class="b" d="M1105.576,850.811l8.518-6.281c2.767,5.11,6.6,7.346,10.858,7.346,6.494,0,9.8-3.514,9.8-13.414V791.726H1147.1v47.8c0,12.669-6.174,23.1-20.76,23.1C1116.648,862.628,1109.941,858.583,1105.576,850.811Z"/><path class="b" d="M1175.092,791.726h12.349v31.618h.32l24.805-31.618H1226.3l-21.4,27.147,25.018,42.478h-13.627l-18.843-32.79-10.008,12.456v20.334h-12.349Z"/><path class="b" d="M1249.29,791.726h12.35v59.191H1290.6v10.434H1249.29Z"/><path class="b" d="M1313.378,791.726h13.946l12.35,34.067c1.49,4.364,2.981,9.049,4.472,13.627h.425c1.491-4.578,2.874-9.263,4.366-13.627l12.029-34.067h14.053v69.625h-11.391V829.519c0-6.494.958-15.756,1.6-22.144h-.426l-5.643,16.182-11.391,31.3h-7.346l-11.5-31.3-5.536-16.182h-.426c.532,6.388,1.6,15.65,1.6,22.144v31.832h-11.179Z"/><path class="b" d="M487.278,898.183h12.669l21.718,39.177,7.133,14.8h.426c-.533-7.132-1.6-15.969-1.6-23.741V898.183h11.817v69.625H526.775L505.058,928.63l-7.133-14.8H497.5c.532,7.346,1.6,15.756,1.6,23.528v30.448H487.278Z"/><path class="b" d="M564.14,932.676c0-22.463,12.562-35.771,30.66-35.771,18.205,0,30.767,13.308,30.767,35.771,0,22.569-12.562,36.409-30.767,36.409C576.7,969.085,564.14,955.245,564.14,932.676Zm48.652,0c0-15.543-7.026-25.019-17.992-25.019s-17.991,9.476-17.991,25.019c0,15.649,7.026,25.657,17.991,25.657S612.792,948.325,612.792,932.676Z"/><path class="b" d="M650.156,898.183h21.932c15.436,0,26.933,5.323,26.933,21.5,0,15.436-11.5,22.569-26.507,22.569H662.506v25.551h-12.35Zm21.4,34.174c10.327,0,15.331-4.153,15.331-12.669,0-8.73-5.43-11.605-15.757-11.605h-8.623v24.274Z"/><path class="b" d="M744.051,968.553c-15.011-2.661-24.911-15.756-24.911-35.877,0-22.463,12.562-35.771,30.66-35.771,18.205,0,30.767,13.308,30.767,35.771,0,19.376-9.262,32.364-23.421,35.558,3.194,5.536,9.475,7.984,16.182,7.984a24.791,24.791,0,0,0,7.559-1.065l2.235,9.156a28.654,28.654,0,0,1-11.178,2.023C758.1,986.332,748.522,978.88,744.051,968.553Zm23.741-35.877c0-15.543-7.026-25.019-17.992-25.019s-17.991,9.476-17.991,25.019c0,16.288,7.026,26.3,17.991,26.3S767.792,948.964,767.792,932.676Z"/><path class="b" d="M805.156,898.183h23.529c14.478,0,25.55,5.11,25.55,20.653,0,10.646-5.536,17.033-13.84,19.908L857,967.808h-13.84l-15.011-27.254H817.506v27.254h-12.35Zm22.251,32.577c9.475,0,14.692-4.046,14.692-11.924,0-7.984-5.217-10.753-14.692-10.753h-9.9V930.76Z"/><path class="b" d="M872.544,958.865l7.239-8.411c5,4.685,11.71,7.879,18.1,7.879,7.878,0,12.137-3.514,12.137-8.943,0-5.749-4.472-7.559-10.752-10.22l-9.582-4.152c-6.814-2.874-14.053-8.3-14.053-18.525,0-11.071,9.794-19.588,23.421-19.588a30.736,30.736,0,0,1,21.4,8.836l-6.281,7.878c-4.472-3.725-9.156-5.962-15.118-5.962-6.6,0-10.965,3.088-10.965,8.2,0,5.429,5.323,7.452,11.072,9.795l9.475,3.938c8.2,3.514,14.053,8.73,14.053,18.844,0,11.285-9.369,20.653-25.019,20.653A36.063,36.063,0,0,1,872.544,958.865Z"/><path class="b" d="M957.924,908.615H937.8V898.183H990.4v10.432H970.273v59.193H957.924Z"/><path class="b" d="M1012.322,937.254V898.183h12.35v40.029c0,15.117,5.642,20.121,14.053,20.121,8.516,0,14.478-5,14.478-20.121V898.183h11.818v39.071c0,22.889-10.114,31.831-26.3,31.831C1022.649,969.085,1012.322,960.143,1012.322,937.254Z"/><path class="b" d="M1083.116,898.183h13.1l9.794,35.025c2.236,7.878,3.833,14.692,6.175,22.676h.425c2.343-7.984,3.94-14.8,6.069-22.676l9.688-35.025h12.668l-21.611,69.625h-14.585Z"/><path class="b" d="M1153.164,898.183h12.669l6.068,35.132c1.171,7.452,2.342,14.9,3.408,22.25h.425c1.491-7.346,2.981-14.905,4.578-22.25l8.517-35.132h10.752l8.517,35.132c1.6,7.239,3.088,14.8,4.684,22.25h.426c1.064-7.453,2.235-14.905,3.3-22.25l6.067-35.132h11.818l-13.308,69.625h-15.33l-8.623-36.622c-1.171-5.43-2.237-10.753-3.088-16.076h-.426c-.958,5.323-2.022,10.646-3.193,16.076l-8.41,36.622H1167Z"/><path class="b" d="M1268.244,931.931l-18.524-33.748h13.733l7.666,15.436c1.7,3.195,3.193,6.494,5.322,10.647h.426c1.7-4.153,3.088-7.452,4.685-10.647l7.345-15.436h13.1l-18.524,34.28,19.8,35.345h-13.734l-8.516-16.395c-1.81-3.62-3.514-7.133-5.643-11.391h-.426c-1.809,4.258-3.406,7.771-5.11,11.391l-8.3,16.395h-13.1Z"/><path class="b" d="M1335.736,941.938l-20.866-43.755h13.2l7.559,17.778c2.022,5.217,3.939,10.008,6.175,15.331h.425c2.236-5.323,4.366-10.114,6.388-15.331l7.559-17.778h12.882l-20.973,43.755v25.87h-12.35Z"/><path class="b" d="M1380.98,960.356l33.642-51.741h-30.555V898.183h45.885v7.452L1396.2,957.374h33.961v10.434H1380.98Z"/><path class="b" d="M482.7,1039.133c0-23.954,9.155-35.771,23-35.771,13.947,0,23,11.817,23,35.771,0,24.166-9.048,36.409-23,36.409C491.856,1075.542,482.7,1063.3,482.7,1039.133Zm34.28,0c0-19.7-4.684-26.19-11.285-26.19-6.494,0-11.285,6.5-11.285,26.19,0,19.908,4.791,26.828,11.285,26.828C512.3,1065.961,516.981,1059.041,516.981,1039.133Z"/><path class="b" d="M551.577,1064.258h15.117v-46.311H554.239v-7.771a43.445,43.445,0,0,0,15.65-5.536h9.155v59.618h13.308v10.007H551.577Z"/><path class="b" d="M613,1067.132c19.8-17.566,30.66-30.874,30.66-41.945,0-7.346-3.938-12.031-11.179-12.031-5.215,0-9.581,3.408-13.2,7.453l-6.813-6.708c6.174-6.707,12.348-10.539,21.611-10.539,12.988,0,21.4,8.411,21.4,21.186,0,12.988-10.646,26.722-24.379,40.029,3.62-.319,8.09-.746,11.391-.746h16.288v10.434H613Z"/><path class="b" d="M676.767,1065.961l5.855-7.878c4.046,4.152,9.263,7.452,16.076,7.452,7.346,0,12.455-3.939,12.455-10.753,0-7.239-4.47-11.923-19.908-11.923v-8.943c13.308,0,17.673-4.791,17.673-11.391,0-5.855-3.832-9.369-10.007-9.369-5.323,0-9.475,2.449-13.627,6.282L679,1011.879c5.749-5.11,12.242-8.517,20.334-8.517,12.988,0,21.931,6.6,21.931,18.311,0,7.771-4.472,13.2-11.818,16.076v.426c7.985,2.129,14.053,8.091,14.053,17.352,0,12.563-10.752,20.015-23.74,20.015C688.8,1075.542,681.558,1071.284,676.767,1065.961Z"/><path class="b" d="M771.3,1055.953H741.385v-8.41l26.828-42.9H782.8v41.732h8.517v9.581H782.8v18.312H771.3Zm0-9.581v-16.181c0-3.94.319-10.008.532-13.948h-.426c-1.7,3.62-3.62,7.347-5.536,10.966l-12.35,19.163Z"/><path class="b" d="M807.28,1066.174l5.643-7.878c4.046,3.832,9.05,7.239,15.863,7.239,7.559,0,13.094-5.217,13.094-13.946,0-8.624-5-13.521-12.455-13.521-4.365,0-6.814,1.065-10.86,3.726l-5.855-3.726,2.022-33.428h36.2v10.432H825.379L824,1031.361a19.132,19.132,0,0,1,8.943-2.129c11.6,0,21.291,6.813,21.291,22.038,0,15.436-11.39,24.272-23.846,24.272C819.417,1075.542,812.284,1071.178,807.28,1066.174Z"/><path class="b" d="M874.773,1040.623c0-26.3,12.776-37.261,26.616-37.261a24.134,24.134,0,0,1,18.1,7.665l-6.6,7.453a14.614,14.614,0,0,0-10.752-5.111c-8.518,0-15.438,6.282-15.97,24.912,3.94-4.791,9.9-7.665,14.692-7.665,11.71,0,19.8,7.027,19.8,21.931,0,14.053-9.794,22.995-21.292,22.995C886.058,1075.542,874.773,1064.684,874.773,1040.623Zm11.71,6.6c1.172,13.2,5.962,18.95,12.669,18.95,5.643,0,10.115-4.9,10.115-13.627,0-8.623-3.94-13.1-10.647-13.1C894.682,1039.452,889.891,1041.688,886.483,1047.224Z"/><path class="b" d="M971.968,1015.072H939.924V1004.64h45.458v7.558c-16.182,20.015-18.63,34.813-19.8,62.067H953.125C954.3,1049.459,958.554,1033.6,971.968,1015.072Z"/><path class="b" d="M1004.861,1056.911c0-8.942,5.748-15.01,12.243-18.417v-.426c-5.216-3.726-9.369-9.049-9.369-16.395,0-11.071,8.73-18.1,20.441-18.1,12.136,0,19.908,7.346,19.908,18.417,0,7.027-4.578,12.989-9.049,16.183v.426c6.388,3.512,11.71,8.942,11.71,18.523,0,10.434-9.155,18.418-22.889,18.418C1014.655,1075.542,1004.861,1067.877,1004.861,1056.911Zm34.387-.213c0-7.878-7.133-10.964-16.289-14.8a17.254,17.254,0,0,0-7.346,13.733c0,6.707,5.536,11.179,12.456,11.179C1034.563,1066.813,1039.248,1062.98,1039.248,1056.7Zm-1.278-33.961c0-6.067-3.726-10.432-10.007-10.432-5.217,0-9.262,3.406-9.262,9.368,0,7.133,6.069,10.434,13.627,13.414C1036.054,1031.361,1037.97,1027.209,1037.97,1022.737Z"/><path class="b" d="M1070.756,1067.877l6.6-7.452a15.555,15.555,0,0,0,11.178,5.11c8.092,0,14.9-6.281,15.544-25.018-3.833,4.791-9.688,7.771-14.692,7.771-11.6,0-19.695-7.133-19.695-21.93,0-14.053,9.688-23,21.292-23,13.2,0,24.486,10.539,24.486,34.068,0,26.934-12.669,38.112-26.3,38.112A24.882,24.882,0,0,1,1070.756,1067.877Zm20.866-28.425c4.151,0,8.836-2.342,12.35-7.984-1.066-13.2-6.069-18.737-12.882-18.737-5.536,0-10.114,4.9-10.114,13.627C1080.976,1034.981,1084.915,1039.452,1091.622,1039.452Z"/><path class="b" d="M483.021,736.69l1.808-2.1a6.924,6.924,0,0,0,4.525,1.97c1.969,0,3.034-.878,3.034-2.236,0-1.437-1.118-1.889-2.689-2.554l-2.394-1.038c-1.7-.719-3.513-2.076-3.513-4.63,0-2.768,2.448-4.9,5.854-4.9A7.686,7.686,0,0,1,495,723.41l-1.57,1.97a5.665,5.665,0,0,0-3.779-1.49c-1.65,0-2.741.771-2.741,2.049,0,1.357,1.33,1.863,2.768,2.448l2.368.984c2.05.878,3.513,2.183,3.513,4.71,0,2.821-2.342,5.163-6.254,5.163A9.011,9.011,0,0,1,483.021,736.69Z"/><path class="b" d="M502.927,732.405c0-4.364,2.954-6.866,6.2-6.866,3.272,0,6.226,2.5,6.226,6.866,0,4.338-2.954,6.839-6.226,6.839C505.881,739.244,502.927,736.743,502.927,732.405Zm9.287,0c0-2.634-1.17-4.364-3.086-4.364s-3.061,1.73-3.061,4.364c0,2.608,1.145,4.338,3.061,4.338S512.214,735.013,512.214,732.405Z"/><path class="b" d="M523.58,734.055v-8.2h3.061v7.8c0,2.157.612,2.955,2.022,2.955,1.145,0,1.916-.533,2.9-1.81v-8.941h3.061v13.066h-2.5l-.239-1.916h-.08a5.324,5.324,0,0,1-4.2,2.235C524.8,739.244,523.58,737.355,523.58,734.055Z"/><path class="b" d="M543.833,725.859h2.528l.213,2.315h.107a4.439,4.439,0,0,1,3.7-2.635,3.309,3.309,0,0,1,1.49.267l-.532,2.661a4.247,4.247,0,0,0-1.358-.213c-1.038,0-2.288.718-3.086,2.688v7.983h-3.061Z"/><path class="b" d="M557.965,732.405a6.445,6.445,0,0,1,6.547-6.866A5.631,5.631,0,0,1,568.344,727l-1.49,2a3.2,3.2,0,0,0-2.183-.958c-2.1,0-3.566,1.73-3.566,4.364,0,2.608,1.437,4.338,3.486,4.338a4.357,4.357,0,0,0,2.688-1.118l1.251,2.023a6.525,6.525,0,0,1-4.258,1.6C560.706,739.244,557.965,736.743,557.965,732.405Z"/><path class="b" d="M574.945,732.405c0-4.257,2.954-6.866,6.015-6.866,3.539,0,5.4,2.555,5.4,6.2a7.122,7.122,0,0,1-.133,1.491h-8.3a3.74,3.74,0,0,0,3.858,3.646,5.459,5.459,0,0,0,3.034-.958l1.038,1.916a8.245,8.245,0,0,1-4.47,1.41C577.767,739.244,574.945,736.716,574.945,732.405Zm8.755-1.251c0-2.022-.878-3.247-2.66-3.247-1.544,0-2.875,1.145-3.141,3.247Z"/><path class="b" d="M603.955,737.435l1.437-1.969a5.819,5.819,0,0,0,3.619,1.463c1.411,0,2.076-.665,2.076-1.57,0-1.091-1.41-1.57-2.794-2.1-1.73-.639-3.593-1.623-3.593-3.806,0-2.288,1.81-3.912,4.737-3.912a7.07,7.07,0,0,1,4.365,1.571l-1.411,1.862a4.93,4.93,0,0,0-2.874-1.117c-1.3,0-1.943.612-1.943,1.437,0,1.037,1.251,1.437,2.661,1.943,1.784.665,3.752,1.516,3.752,3.964,0,2.236-1.783,4.045-5.082,4.045A8.274,8.274,0,0,1,603.955,737.435Z"/><path class="b" d="M621.36,735.412c0-2.794,2.315-4.258,7.691-4.843-.054-1.384-.613-2.554-2.4-2.554a7.443,7.443,0,0,0-3.672,1.277l-1.117-2.05a10.225,10.225,0,0,1,5.375-1.7c3.246,0,4.87,2,4.87,5.642v7.744h-2.528l-.213-1.438h-.106a6.354,6.354,0,0,1-4.045,1.757A3.654,3.654,0,0,1,621.36,735.412Zm7.691,0v-2.927c-3.566.453-4.738,1.383-4.738,2.688,0,1.171.8,1.676,1.89,1.676A4.15,4.15,0,0,0,629.051,735.412Z"/><path class="b" d="M641.107,725.859h2.529l.213,1.756h.106a6.07,6.07,0,0,1,4.284-2.076c2.795,0,4.019,1.89,4.019,5.19v8.2H649.2v-7.8c0-2.156-.612-2.954-2.049-2.954-1.144,0-1.889.559-2.98,1.623v9.128h-3.061Z"/><path class="b" d="M660.03,737.435l1.438-1.969a5.815,5.815,0,0,0,3.619,1.463c1.41,0,2.075-.665,2.075-1.57,0-1.091-1.41-1.57-2.794-2.1-1.73-.639-3.593-1.623-3.593-3.806,0-2.288,1.81-3.912,4.738-3.912a7.062,7.062,0,0,1,4.363,1.571l-1.41,1.862a4.933,4.933,0,0,0-2.874-1.117c-1.3,0-1.943.612-1.943,1.437,0,1.037,1.251,1.437,2.662,1.943,1.783.665,3.751,1.516,3.751,3.964,0,2.236-1.782,4.045-5.083,4.045A8.275,8.275,0,0,1,660.03,737.435Z"/><path class="b" d="M688.773,725.859H691.3l.213,1.383h.106a6.378,6.378,0,0,1,3.939-1.7c3.246,0,5.135,2.609,5.135,6.654,0,4.47-2.687,7.051-5.588,7.051a5.287,5.287,0,0,1-3.353-1.436l.08,2.181v4.1h-3.061Zm8.755,6.36c0-2.609-.851-4.151-2.82-4.151a4.171,4.171,0,0,0-2.874,1.463v6.094a4.133,4.133,0,0,0,2.635,1.091C696.2,736.716,697.528,735.173,697.528,732.219Z"/><path class="b" d="M709.106,725.859h2.529l.213,2.315h.106a4.441,4.441,0,0,1,3.7-2.635,3.316,3.316,0,0,1,1.491.267l-.533,2.661a4.245,4.245,0,0,0-1.357-.213c-1.038,0-2.288.718-3.087,2.688v7.983h-3.061Z"/><path class="b" d="M723.239,732.405c0-4.364,2.954-6.866,6.2-6.866,3.273,0,6.227,2.5,6.227,6.866,0,4.338-2.954,6.839-6.227,6.839C726.193,739.244,723.239,736.743,723.239,732.405Zm9.287,0c0-2.634-1.17-4.364-3.086-4.364s-3.06,1.73-3.06,4.364c0,2.608,1.144,4.338,3.06,4.338S732.526,735.013,732.526,732.405Z"/><path class="b" d="M478.766,273.909q-2.874,0-4.259-.107l-4.577,15.436a30.913,30.913,0,0,1-7.133.639,24.578,24.578,0,0,1-8.3-1.171l-.532-.851,23.421-71.433a64.438,64.438,0,0,1,9.687-.639,53.338,53.338,0,0,1,10.007.745l23,71.54a17.36,17.36,0,0,1-8.41,2.022q-5.536,0-7.771-1.916t-3.833-7.346l-2.023-7.026q-1.385.108-4.151.107Zm-.32-13.414,4.258-.107h7.772q.531,0,1.863.054t1.97.053l-1.81-6.6q-2.556-8.943-5.855-21.931h-.639q-.854,4.579-5.11,20.334Z"/><path class="b" d="M540.4,216.209q8.623-.212,14.744-.32t9.848-.106q11.6,0,18.257,4.844t6.654,14.531a15.62,15.62,0,0,1-2.653,8.73,15.427,15.427,0,0,1-6.792,5.855,16.292,16.292,0,0,1,5.045,2.715,19.131,19.131,0,0,1,4.089,4.364,22.857,22.857,0,0,1,2.708,5.43,18.354,18.354,0,0,1,1.01,6.014q0,10.966-6.973,16.235t-19.748,5.27q-3.94,0-10.433-.107t-15.756-.319l-.745-.745V216.954Zm16.182,11.6v17.139h7.51q5.077,0,7.141-2.5a9.306,9.306,0,0,0,2.063-6.121,8.749,8.749,0,0,0-2.116-6.014q-2.117-2.4-7.088-2.4h-4.283Q557.959,227.919,556.584,227.813Zm8.787,29.276h-8.787v20.758q2.753-.105,6.194,0a26.426,26.426,0,0,0,6.406-.532,8.653,8.653,0,0,0,4.975-3.087,10.438,10.438,0,0,0,2.013-6.813,10.908,10.908,0,0,0-2.6-7.24Q570.982,257.09,565.371,257.089Z"/><path class="b" d="M653.778,245.378V244.1q0-15.754-11.71-15.756a10.059,10.059,0,0,0-9.687,6.121q-2.982,6.123-2.982,18.045,0,11.815,3.727,17.565a12.138,12.138,0,0,0,10.858,5.749,23.025,23.025,0,0,0,8.251-1.757,45.375,45.375,0,0,0,9.847-5.589,20.529,20.529,0,0,1,4.95,4.95,15.07,15.07,0,0,1,2.822,6.015,37.26,37.26,0,0,1-5.7,4.418,40.83,40.83,0,0,1-7.026,3.567,52.09,52.09,0,0,1-7.878,2.4,38.246,38.246,0,0,1-8.25.9,28.117,28.117,0,0,1-13.84-3.14,25.743,25.743,0,0,1-9.1-8.357,35.851,35.851,0,0,1-5-12.03,63.83,63.83,0,0,1-1.544-14.159,53.075,53.075,0,0,1,2.395-16.767A35.41,35.41,0,0,1,620.4,224.3a26.334,26.334,0,0,1,9.635-7.185,29.425,29.425,0,0,1,11.816-2.4,37.265,37.265,0,0,1,11.6,1.7,27.539,27.539,0,0,1,8.89,4.684,20.61,20.61,0,0,1,5.641,7.026,19.68,19.68,0,0,1,1.97,8.729q0,9.477-9.688,9.475A25.651,25.651,0,0,1,653.778,245.378Z"/><path class="b" d="M738.305,284.448a21.723,21.723,0,0,1-8.943,4.045,54.469,54.469,0,0,1-12.242,1.278q-3.3,0-9.528-.107t-15.6-.319l-.745-.745V216.954l.745-.745q6.173-.212,12.828-.32t14-.106q9.047,0,15.117,2.874a24.789,24.789,0,0,1,9.688,7.878,31.35,31.35,0,0,1,5.109,11.763,67.476,67.476,0,0,1,1.492,14.532,61.573,61.573,0,0,1-2.45,18.417A26.587,26.587,0,0,1,738.305,284.448Zm-19.588-7.984q14.052,0,14.053-23.634,0-23.738-14.053-23.74H712.7q-2.61,0-4.524-.106V276.57q1.916-.1,4.524-.106Z"/><path class="b" d="M789.723,267.628l-.107,7.665v.106q4.881-.213,7.853-.213h24.617a43.626,43.626,0,0,1-.32,6.068q-1.278,8.2-10.859,8.2H782.59a9.6,9.6,0,0,1-7.186-2.661,9.888,9.888,0,0,1-2.608-7.239V217.167l.745-.745h45.883a33.11,33.11,0,0,1,.638,6.707,21.375,21.375,0,0,1-1.486,7.558h-28.96l.107,7.665V245.8q2.754-.1,7.206-.107h16.215a22.282,22.282,0,0,1,.958,6.814,24.4,24.4,0,0,1-.958,7.026H789.723Z"/><path class="b" d="M861.368,230.9l.107,8.3v6.706h22.887a28.928,28.928,0,0,1,0,13.946H861.475v29.276a56.369,56.369,0,0,1-16.927,0V217.061l.745-.639h45.563a29.1,29.1,0,0,1,.639,6.653q0,3.993-2.188,5.909t-6.89,1.916Z"/><path class="b" d="M939.3,247.827l16.714-.107q11.281,0,11.284,10.646v28a94.668,94.668,0,0,1-28.85,4.365,33.925,33.925,0,0,1-13.573-2.555,26.244,26.244,0,0,1-9.9-7.346,32.048,32.048,0,0,1-6.015-11.763,56.7,56.7,0,0,1-2.023-15.809,46.047,46.047,0,0,1,2.821-16.874,34.9,34.9,0,0,1,7.559-11.976,30.918,30.918,0,0,1,10.912-7.186,35.3,35.3,0,0,1,12.88-2.4,47.794,47.794,0,0,1,25.976,7.665,11.362,11.362,0,0,1-.8,3.46,22.009,22.009,0,0,1-1.7,3.406,16.1,16.1,0,0,1-2.343,2.981,19.766,19.766,0,0,1-2.715,2.289q-8.836-5.748-17.884-5.749-17.353,0-17.353,24.273,0,24.167,17.778,24.165,2.448,0,4.738-.213t4.524-.638v-7.133q0-2.448.054-4.258t.16-3.088h-5.323q-4.579,0-6.334-1.756t-1.757-5.483A23.171,23.171,0,0,1,939.3,247.827Z"/><path class="b" d="M1031.379,244.633l-.107-7.878V216.422a46.072,46.072,0,0,1,8.517-.639,44.3,44.3,0,0,1,8.41.639v72.71a56.369,56.369,0,0,1-16.927,0V266.563l.107-7.878-5.348.107h-12.4l-5.348-.107.107,7.878v22.569a56.369,56.369,0,0,1-16.927,0v-72.71a56.369,56.369,0,0,1,16.927,0v20.333l-.107,7.878,5.348-.107h12.4Z"/><path class="b" d="M1075.346,289.132v-72.71a46.248,46.248,0,0,1,8.516-.639,48.1,48.1,0,0,1,8.623.639v72.71a48.1,48.1,0,0,1-8.623.639A46.248,46.248,0,0,1,1075.346,289.132Z"/><path class="b" d="M1118.353,272.95a19.356,19.356,0,0,0,10.113,3.194q5.109,0,7.079-3.247t1.97-10.06V216.422a43.924,43.924,0,0,1,8.356-.639,47.486,47.486,0,0,1,8.57.639V261.24a57.633,57.633,0,0,1-1.168,12.189,22.531,22.531,0,0,1-4.035,9.1,18.168,18.168,0,0,1-7.593,5.7,30.922,30.922,0,0,1-11.838,1.969,31.766,31.766,0,0,1-17.31-4.684A24.015,24.015,0,0,1,1118.353,272.95Z"/><path class="b" d="M1237.583,284.98q-3.62,5.111-11.284,5.11-4.367,0-6.547-2.235t-3.779-7.559L1211.9,267.84q-1.606-5-3.854-7.132a8.518,8.518,0,0,0-6.1-2.129q-1.285,0-4.711.213v30.34a56.362,56.362,0,0,1-16.926,0v-72.71a56.362,56.362,0,0,1,16.926,0v28.1l2.785-.106a4.443,4.443,0,0,0,2.785-.692,9.963,9.963,0,0,0,2.034-2.928l10.175-19.055a12.324,12.324,0,0,1,3.406-4.631q1.809-1.331,5.642-1.331,4.257,0,9.9.532l.958,1.171L1221.9,241.971a23.289,23.289,0,0,1-5.978,7.772,13,13,0,0,1,7.53,4.045,24.731,24.731,0,0,1,4.219,7.985l4.38,13.2q.851,2.451,1.277,3.62a25.911,25.911,0,0,0,2.129,3.938A18.867,18.867,0,0,0,1237.583,284.98Z"/><path class="b" d="M1283.93,274.76h18.485a42.983,42.983,0,0,1-.532,7.292,8.289,8.289,0,0,1-3.406,5.217,12.179,12.179,0,0,1-7.559,2.182h-24.06a9.188,9.188,0,0,1-9.9-9.9V216.422l.74-.746h6.242q9.943,0,9.945,10.859v48.651Q1278.586,274.762,1283.93,274.76Z"/><path class="b" d="M1321.044,288.919l5.642-72.391a62.772,62.772,0,0,1,11.072-.852,64.654,64.654,0,0,1,11.178.852l6.281,26.082q3.724,17.673,3.938,19.269h.745q.426-2.66,3.94-19.269l6.387-26.082a62.772,62.772,0,0,1,11.072-.852,64.654,64.654,0,0,1,11.178.852l5.641,72.391a33.174,33.174,0,0,1-8.143.852,48.171,48.171,0,0,1-7.931-.533l-1.7-29.6q-.745-17.67-.852-24.591h-.638l-10.539,43.328a60.68,60.68,0,0,1-17.566,0l-10.433-43.328h-.745q0,9.476-.851,24.591l-1.6,29.6a48.183,48.183,0,0,1-7.93.533A33.155,33.155,0,0,1,1321.044,288.919Z"/><path class="b" d="M518.367,322.133l.746.746V395.27a46.374,46.374,0,0,1-10.06.958,73.352,73.352,0,0,1-10.274-.639l-16.714-38.112q-2.981-6.492-6.067-15.01l-.319.106q1.276,15.544,1.277,31.831v21.185a42.73,42.73,0,0,1-7.984.639,40.987,40.987,0,0,1-7.878-.639V323.2a42.807,42.807,0,0,1,9.741-.958,72.461,72.461,0,0,1,10.166.639l16.5,38q4.47,10.539,6.6,16.182l.425-.213q-1.276-14.8-1.277-31.405V332.46q0-5.533,2.235-7.931t7.24-2.4Z"/><path class="b" d="M552.967,390.479q-11.394-9.474-11.392-31.192a55.975,55.975,0,0,1,2.183-16.448,32.9,32.9,0,0,1,6.281-11.87,26.245,26.245,0,0,1,9.954-7.238,33.927,33.927,0,0,1,13.2-2.449,34.324,34.324,0,0,1,13.254,2.449,25.911,25.911,0,0,1,10.007,7.292,33.482,33.482,0,0,1,6.281,11.923,62.252,62.252,0,0,1,0,32.682,32.909,32.909,0,0,1-6.281,11.87,26.123,26.123,0,0,1-10.007,7.239,34.324,34.324,0,0,1-13.254,2.449Q561.058,397.186,552.967,390.479Zm8.623-14.691q2.874,8.3,11.6,8.3a10.943,10.943,0,0,0,7.079-2.182,15.047,15.047,0,0,0,4.259-5.535,25.729,25.729,0,0,0,2.076-7.506,64.56,64.56,0,0,0,.533-8.2q0-3.724-.267-8.3a34.6,34.6,0,0,0-1.544-8.57,16.075,16.075,0,0,0-4.045-6.706q-2.769-2.715-8.091-2.715-5.109,0-7.824,2.609a16.083,16.083,0,0,0-4.046,6.44,31.955,31.955,0,0,0-1.65,8.144q-.319,4.311-.319,7.612a71.091,71.091,0,0,0,.479,8.729A44.449,44.449,0,0,0,561.59,375.788Z"/><path class="b" d="M652.849,372.807h-8.437v22.782a46.775,46.775,0,0,1-8.464.639,45.688,45.688,0,0,1-8.463-.639V323.411l.745-.745q9.262-.212,15.383-.32t9.316-.106a34.023,34.023,0,0,1,10.7,1.6,21.9,21.9,0,0,1,8.25,4.791,21.446,21.446,0,0,1,5.269,7.931,29.668,29.668,0,0,1,1.864,10.911,28.874,28.874,0,0,1-1.923,10.912,21.969,21.969,0,0,1-5.34,7.931,22.538,22.538,0,0,1-8.275,4.844A32.841,32.841,0,0,1,652.849,372.807Zm-8.437-37.579v24.8q3-.1,4.766-.159c1.177-.035,1.946-.054,2.3-.054a10.288,10.288,0,0,0,4.821-1.011,8.708,8.708,0,0,0,3.105-2.661,11.046,11.046,0,0,0,1.715-3.886,20.038,20.038,0,0,0,.536-4.684,19.592,19.592,0,0,0-.536-4.578,12.3,12.3,0,0,0-1.66-3.939,8.342,8.342,0,0,0-2.945-2.715,8.708,8.708,0,0,0-4.286-1.011H647.84Q645.912,335.334,644.412,335.228Z"/><path class="b" d="M739.051,406.661l-10.859-9.475a33.3,33.3,0,0,1-13.2-2.5,26.478,26.478,0,0,1-9.954-7.345,33.491,33.491,0,0,1-6.281-11.871,54.592,54.592,0,0,1-2.183-16.181,56.841,56.841,0,0,1,2.076-16.075,32.783,32.783,0,0,1,6.175-11.923,26.69,26.69,0,0,1,10.007-7.452,37.116,37.116,0,0,1,27.2.053,26.659,26.659,0,0,1,10.007,7.5,33.289,33.289,0,0,1,6.121,11.923,56.382,56.382,0,0,1,2.076,15.969,61.958,61.958,0,0,1-1.011,11.444,41.921,41.921,0,0,1-2.981,9.688,26.56,26.56,0,0,1-4.791,7.292,16.234,16.234,0,0,1-6.44,4.258l2.767,1.917q7.239,5,13.414,5a13.417,13.417,0,0,1-3.247,8.783q-3.033,3.352-8.464,3.354Q744.267,411.026,739.051,406.661Zm-10.646-72.285q-14.371,0-14.372,24.911,0,24.806,14.372,24.8,14.159,0,14.159-24.8Q742.564,334.377,728.405,334.376Z"/><path class="b" d="M835.074,345.341A20.631,20.631,0,0,1,834.01,352a22.123,22.123,0,0,1-2.822,5.642A20.129,20.129,0,0,1,827.036,362a18.851,18.851,0,0,1-4.95,2.821q5.534,2.024,8.2,9.794l3.195,9.049a15.56,15.56,0,0,0,5.322,7.878,11.945,11.945,0,0,1-4.79,3.566,16.93,16.93,0,0,1-7.027,1.437,7.955,7.955,0,0,1-5.962-2.182q-2.129-2.181-3.938-7.612l-3.833-11.178a11.6,11.6,0,0,0-3.14-4.9q-1.971-1.7-5.909-1.7h-4.364v26.614a47.364,47.364,0,0,1-8.517.639,45.527,45.527,0,0,1-8.41-.639V323.411l.745-.745q9.263-.212,15.6-.32t9.954-.106a36.98,36.98,0,0,1,10.646,1.437A22.073,22.073,0,0,1,828,327.989a19.389,19.389,0,0,1,5.216,7.239A25.606,25.606,0,0,1,835.074,345.341Zm-35.237-10.433v20.973q4.789,0,8.2-.16a12.833,12.833,0,0,0,5.483-1.284,7.478,7.478,0,0,0,3.14-3.158,13,13,0,0,0,1.065-5.884q0-10.38-10.007-10.38H803.3Q801.325,335.015,799.837,334.908Z"/><path class="b" d="M852.532,389.308a18.529,18.529,0,0,1,2.183-7.026,19.937,19.937,0,0,1,4.418-5.749q11.391,6.923,21.61,6.92,4.473,0,6.548-2.023a6.7,6.7,0,0,0,2.075-5q0-5-6.706-7.878L870.1,363.226a31.413,31.413,0,0,1-11.285-7.931,17.521,17.521,0,0,1-3.939-11.764,20.148,20.148,0,0,1,1.97-8.942,21.125,21.125,0,0,1,5.536-7.026,26,26,0,0,1,8.463-4.631,33.873,33.873,0,0,1,10.859-1.65,53.466,53.466,0,0,1,24.059,6.068q-.534,8.2-5.748,12.775-10.86-5.214-19.163-5.217-4.259,0-6.387,1.917a5.746,5.746,0,0,0-2.13,4.365q0,4.151,6.281,6.706l12.776,5.429q8.088,3.41,12.082,8.73a20.019,20.019,0,0,1,3.992,12.349,22.668,22.668,0,0,1-1.81,9.155,19.668,19.668,0,0,1-5.376,7.186,25.556,25.556,0,0,1-8.888,4.738,41.033,41.033,0,0,1-12.456,1.7A48.92,48.92,0,0,1,852.532,389.308Z"/><path class="b" d="M956.434,337.038l.106,7.863v50.688a49.727,49.727,0,0,1-8.569.639,46.034,46.034,0,0,1-8.358-.639V337.038l-6.813.106H921.835a40.126,40.126,0,0,1,0-14.265h52.59a23.388,23.388,0,0,1,.851,6.758q0,3.967-2.129,5.737t-6.813,1.77h-3.087l-6.707-.106Z"/><path class="b" d="M1050.328,322.879v45.883q0,13.627-7.438,21.025t-21.251,7.4q-13.817,0-21.307-7.4t-7.49-21.025V322.879l.745-.746h6.281q10.111,0,10.113,10.859v35.983q0,7.452,2.662,11.071t9.048,3.62q6.389,0,9.049-3.62t2.661-11.071v-46.1a45.7,45.7,0,0,1,8.464-.639A46.763,46.763,0,0,1,1050.328,322.879Z"/><path class="b" d="M1101.853,381.324l13.945-58.445a27.971,27.971,0,0,1,6.6-.639,26.164,26.164,0,0,1,8.73,1.171l.639.852-19.908,71.326a116.312,116.312,0,0,1-12.189.639q-6.123,0-8.836-1.544t-4.1-6.121l-17.672-64.194q5.749-2.448,9.475-2.448,4.473,0,6.6,2.022a13.5,13.5,0,0,1,3.3,6.388l8.2,30.34q1.916,7.134,4.046,19.375C1100.822,380.9,1101.214,381.324,1101.853,381.324Z"/><path class="b" d="M1157.422,388.563l-12.563-64.726a26.229,26.229,0,0,1,9.049-1.916q4.473,0,6.494,1.969t2.874,7.4l4.472,27.466q2.021,12.35,2.555,17.246a40.6,40.6,0,0,0,.692,5.11c.107.143.336.213.692.213l8.835-57.061a62.386,62.386,0,0,1,10.965-.745,60.51,60.51,0,0,1,10.86.745l8.091,55.677a1.89,1.89,0,0,0,.372,1.171,1.249,1.249,0,0,0,.8.213q.959-10.007,3.194-22.675l5.962-35.77a35.446,35.446,0,0,1,7.132-.639,28.841,28.841,0,0,1,8.624,1.171l.745.958-14.053,71.114a122.138,122.138,0,0,1-12.987.745q-6.069,0-8.623-1.491t-3.3-6.174l-3.619-23.1q-1.917-12.561-3.087-24.7h-.746q-1.173,10.327-3.513,24.7l-4.791,30.021a129.922,129.922,0,0,1-13.148.745q-5.907,0-8.462-1.491T1157.422,388.563Z"/><path class="b" d="M1296.135,322.879a31.755,31.755,0,0,1,7.133-.639,23.742,23.742,0,0,1,8.836,1.491l.425.745-20.013,32.895,22.249,35.556q-5.645,3.729-10.114,3.726-4.686,0-7.132-1.49a16.676,16.676,0,0,1-4.9-5.216l-11.071-17.885L1267.6,395.589a32.992,32.992,0,0,1-7.345.639,26.857,26.857,0,0,1-8.943-1.491l-.425-.851,21.93-35.77-20.227-32.576q5.64-3.724,10.113-3.726,4.684,0,7.08,1.491a16.1,16.1,0,0,1,4.737,5.216l9.369,15.117Z"/><path class="b" d="M1361.147,340.87l7.166-17.991a32.206,32.206,0,0,1,7.084-.639,22.755,22.755,0,0,1,8.039,1.278l.74.851-20.654,48.864v22.356a56.362,56.362,0,0,1-16.926,0V372.807L1326.05,324.9a18.386,18.386,0,0,1,9.316-2.874q4.447,0,6.4,1.544a12.461,12.461,0,0,1,3.441,5.269l5.134,12.669a106.692,106.692,0,0,1,4.811,15.223h.643A133.344,133.344,0,0,1,1361.147,340.87Z"/><path class="b" d="M1400.676,378.988l23.633-32.393a92.267,92.267,0,0,1,8.623-10.516l-.32-.319a131.639,131.639,0,0,1-16.5.958h-15.222a23.667,23.667,0,0,1-.639-5.908,31.7,31.7,0,0,1,1.171-7.931h47.16q2.342,8.838,2.342,11.231a9.2,9.2,0,0,1-1.916,5.157l-23.74,32.5a88.559,88.559,0,0,1-8.3,9.984l.319.319q10.644-.744,15.968-.745h5.962a29.131,29.131,0,0,0,11.923-2.449,26.365,26.365,0,0,1,1.172,7.92,7.675,7.675,0,0,1-3.035,6.488,13.134,13.134,0,0,1-8.144,2.306h-40.666q-1.916-8.583-1.917-11.105A9.663,9.663,0,0,1,1400.676,378.988Z"/><path class="b" d="M463.738,438.385a25.392,25.392,0,0,1,34.845,0,25.916,25.916,0,0,1,6.055,12.083,98.91,98.91,0,0,1,0,34.173,25.911,25.911,0,0,1-6.055,12.083,25.4,25.4,0,0,1-34.845,0,25.881,25.881,0,0,1-6.054-12.083,98.845,98.845,0,0,1,0-34.173A25.886,25.886,0,0,1,463.738,438.385Zm11.315,48.456a6.019,6.019,0,0,0,6.108,4.027,6.508,6.508,0,0,0,4.019-1.166,7.792,7.792,0,0,0,2.464-3.867,29.836,29.836,0,0,0,1.232-7.153q.321-4.451.322-11.128t-.322-11.126a29.835,29.835,0,0,0-1.232-7.152,7.811,7.811,0,0,0-2.464-3.87,6.527,6.527,0,0,0-4.019-1.166,6.773,6.773,0,0,0-4.074,1.166,7.335,7.335,0,0,0-2.463,3.87,32,32,0,0,0-1.18,7.152q-.323,4.452-.321,11.126Q473.123,481.966,475.053,486.841Z"/><path class="b" d="M543.492,488.526l-.106-7.877V466.7q0-1.6.319-6.068t.426-6.281a38.853,38.853,0,0,1-14.159,9.794,11.285,11.285,0,0,1-4.471-3.78,12.432,12.432,0,0,1-2.449-5.8q14.9-9.263,20.866-21.5a45.718,45.718,0,0,1,7.931-.639,42.121,42.121,0,0,1,7.718.639v47.587l-.107,7.877,7.239-.106h5.749a27.67,27.67,0,0,1,0,13.627H528.056a28.318,28.318,0,0,1-.852-6.92,25.829,25.829,0,0,1,.852-6.707h8.623Z"/><path class="b" d="M639.2,487.888q0,7.3-2.187,10.78t-8.375,3.485H596.84a25.593,25.593,0,0,1-3.9-4.88,10.2,10.2,0,0,1-1.867-5.309,15.051,15.051,0,0,1,3.034-8.793,59.58,59.58,0,0,1,9.209-10.124l11.5-10.39q5.641-5.109,5.643-10.113a7.688,7.688,0,0,0-1.97-5.43,7.1,7.1,0,0,0-5.482-2.129,7.62,7.62,0,0,0-5.856,2.715,15.968,15.968,0,0,0-3.512,6.654,19.313,19.313,0,0,1-6.76-1.278,14.619,14.619,0,0,1-2.982-1.544,7.175,7.175,0,0,1-2.075-2.075,25.513,25.513,0,0,1,3.2-7.24,23.817,23.817,0,0,1,5.122-5.695,22.588,22.588,0,0,1,6.883-3.726,26.426,26.426,0,0,1,8.589-1.331,23.681,23.681,0,0,1,8.59,1.544,20.584,20.584,0,0,1,6.937,4.365,19.865,19.865,0,0,1,4.587,6.813,22.721,22.721,0,0,1,1.656,8.783,20.635,20.635,0,0,1-3.313,11.178,46.257,46.257,0,0,1-9.4,10.007l-7.693,6.337q-7.376,6.234-8.656,8.567,4.595-.533,8.6-.852t7.638-.319Z"/><path class="b" d="M700.433,449.67l-8.138,8.3q-.529.534-1.267,1.171t-1.8,1.491a19.874,19.874,0,0,1,12.484,6.334q4.761,5.27,4.763,13.68a22.086,22.086,0,0,1-2.02,9.581,21.439,21.439,0,0,1-5.522,7.239,24.918,24.918,0,0,1-8.179,4.578,30.365,30.365,0,0,1-9.879,1.6q-14.343,0-22.732-7.771a14.51,14.51,0,0,1,2.342-5.8,19.745,19.745,0,0,1,4.577-4.95,21.6,21.6,0,0,0,13.734,5.216q5.109,0,7.93-2.874a10.329,10.329,0,0,0,2.822-7.559,9.21,9.21,0,0,0-.852-4.151,8.766,8.766,0,0,0-2.182-2.822,8.659,8.659,0,0,0-3.087-1.65,12.269,12.269,0,0,0-3.567-.532,10.776,10.776,0,0,0-5.429,1.278,9.859,9.859,0,0,1-3.78-3.567,16.059,16.059,0,0,1-2.394-5.376l9.732-10.113q1.8-1.916,3.65-3.567t3.545-3.034l-.425-.638a41.239,41.239,0,0,1-10.28,1.277H661.659a19.5,19.5,0,0,1-1.064-6.6,22.319,22.319,0,0,1,.319-3.779,15.3,15.3,0,0,1,1.065-3.567h38.333q3.289,5.856,3.292,9.688A9.7,9.7,0,0,1,700.433,449.67Z"/><path class="b" d="M766.093,489.91l.106,7.665v4.472a47.2,47.2,0,0,1-8.143.638,43.55,43.55,0,0,1-7.932-.638v-4.472l.106-7.665-7.877.107h-15.33q-3.513-5.535-3.513-9.315a18.237,18.237,0,0,1,1.916-7.825l17.139-40.666a23.429,23.429,0,0,1,8.517.319q4.791.959,6.6,3.087l-7.133,17.14q-6.813,16.821-11.6,23.74l.32.532q3.831-.425,10.858-.639v-5.642q0-6.173,3.034-9.687a10.584,10.584,0,0,1,8.464-3.514h3.832l.745.639v10.326l-.106,7.772,6.068-.107h2.874a39.583,39.583,0,0,1,.426,6.335,26.1,26.1,0,0,1-1.065,7.4Z"/><path class="b" d="M836.354,433.062a19.641,19.641,0,0,1,1.172,6.814q0,6.921-7.026,6.919H812.189v2.875l-.425,5-.32,1.81a24.573,24.573,0,0,1,5.748-.639q10.86,0,16.821,6.175t5.962,16.5a26.012,26.012,0,0,1-2.077,10.645,22.809,22.809,0,0,1-5.641,7.878,24.762,24.762,0,0,1-8.41,4.9,30.8,30.8,0,0,1-10.274,1.7q-13.2,0-21.292-7.345a13.055,13.055,0,0,1,.853-2.821,22.274,22.274,0,0,1,1.543-3.034,22.669,22.669,0,0,1,2.022-2.821,13.136,13.136,0,0,1,2.289-2.183,27.4,27.4,0,0,0,6.92,3.673,19.039,19.039,0,0,0,6.069,1.118q5.214,0,8.143-3.124a11.091,11.091,0,0,0,2.928-7.893q0-5.085-3.034-7.839a10.61,10.61,0,0,0-7.4-2.755,14.6,14.6,0,0,0-4.631.8,17.5,17.5,0,0,0-4.737,2.5,14.617,14.617,0,0,1-4.578-2.222,13.467,13.467,0,0,1-3.726-3.633l1.916-32.15.852-.852Z"/><path class="b" d="M884.26,503.643q-25.444,0-25.444-35.45a55.566,55.566,0,0,1,1.97-15.436,33.53,33.53,0,0,1,5.7-11.551,24.71,24.71,0,0,1,9.1-7.239,28.837,28.837,0,0,1,12.3-2.5q10.218,0,17.459,3.727-.536,7.24-5.323,11.39a29.324,29.324,0,0,0-10.752-2.129q-12.353,0-13.2,15.543a22.981,22.981,0,0,1,13.947-4.365,18.99,18.99,0,0,1,7.452,1.437,15.541,15.541,0,0,1,5.854,4.312,20.027,20.027,0,0,1,3.78,7.239,35.226,35.226,0,0,1,1.331,10.22,27.587,27.587,0,0,1-1.864,10.379,22.3,22.3,0,0,1-5.163,7.825,22.819,22.819,0,0,1-7.665,4.9A25.865,25.865,0,0,1,884.26,503.643Zm.532-34.7a13.56,13.56,0,0,0-8.73,3.3V473.3a48.989,48.989,0,0,0,.639,8.676,19.193,19.193,0,0,0,1.757,5.536,7.364,7.364,0,0,0,2.661,2.981,6.506,6.506,0,0,0,3.354.905q7.558,0,7.558-11.178Q892.031,468.94,884.792,468.938Z"/><path class="b" d="M928.761,433.062h43.746q2.987,6.387,2.987,9.688a11.7,11.7,0,0,1-2.235,6.6l-4.153,5.749a82.09,82.09,0,0,0-15.222,42.051l-.426,4.9a45.861,45.861,0,0,1-8.249.638,53.534,53.534,0,0,1-8.678-.638l.427-5.11a84.127,84.127,0,0,1,5.027-22.889,71.157,71.157,0,0,1,9.946-18.523l1.388-1.81a46.717,46.717,0,0,1,6.845-7.559l-.533-.532a65.715,65.715,0,0,1-14.74,1.384H928.015a20.389,20.389,0,0,1-.852-6.387A19.011,19.011,0,0,1,928.761,433.062Z"/><path class="b" d="M992.313,484.481q0-10.75,11.5-17.778-9.8-6.28-9.794-16.395a15.934,15.934,0,0,1,1.809-7.5,18.3,18.3,0,0,1,5-5.962,24.653,24.653,0,0,1,7.559-3.939,30.127,30.127,0,0,1,9.474-1.437,31.621,31.621,0,0,1,9.581,1.384,21.936,21.936,0,0,1,7.4,3.886,17.442,17.442,0,0,1,6.44,13.786q0,8.73-9.9,14.266a25.826,25.826,0,0,1,9.022,8.25,19.737,19.737,0,0,1,2.9,10.7,16.787,16.787,0,0,1-2.028,8.25,19.212,19.212,0,0,1-5.6,6.281,26.466,26.466,0,0,1-8.374,3.992,37.246,37.246,0,0,1-10.348,1.384,36.19,36.19,0,0,1-10.188-1.33,23.4,23.4,0,0,1-7.735-3.78,16.878,16.878,0,0,1-4.961-6.014A17.91,17.91,0,0,1,992.313,484.481Zm25.018-11.6-2.661-.958q-5.75,5.005-5.749,11.6a8.468,8.468,0,0,0,2.395,6.174,8.591,8.591,0,0,0,6.441,2.449,8.244,8.244,0,0,0,6.334-2.449,8.546,8.546,0,0,0,2.289-6.067Q1026.38,476.391,1017.331,472.877ZM1010.2,450.2a7,7,0,0,0,2.183,5.216,19.4,19.4,0,0,0,6.653,3.833l1.385.532q5-3.726,5-9.155a7.178,7.178,0,0,0-2.129-5.376,8.36,8.36,0,0,0-10.965-.054A6.624,6.624,0,0,0,1010.2,450.2Z"/><path class="b" d="M1084.187,431.465q25.441,0,25.443,35.451a55.6,55.6,0,0,1-1.97,15.436,33.507,33.507,0,0,1-5.7,11.55,24.587,24.587,0,0,1-9.155,7.24,28.959,28.959,0,0,1-12.243,2.5q-10.22,0-17.459-3.725.533-7.239,5.323-11.392a29.26,29.26,0,0,0,10.753,2.129q12.346,0,13.093-15.436-5.537,4.26-13.839,4.259a17.079,17.079,0,0,1-13.254-5.7q-5.165-5.694-5.163-17.4a27.906,27.906,0,0,1,1.863-10.487,22.294,22.294,0,0,1,5.163-7.824,22.709,22.709,0,0,1,7.719-4.9A25.957,25.957,0,0,1,1084.187,431.465Zm-.533,34.706a13.549,13.549,0,0,0,8.73-3.3v-1.064a49.013,49.013,0,0,0-.639-8.676,19.2,19.2,0,0,0-1.757-5.536,7.384,7.384,0,0,0-2.661-2.981,6.527,6.527,0,0,0-3.353-.9q-7.56,0-7.559,11.284Q1076.415,466.17,1083.654,466.171Z"/><path class="b" d="M456.967,165.135a4.61,4.61,0,0,1,.545-1.756,4.975,4.975,0,0,1,1.1-1.438,10.468,10.468,0,0,0,5.4,1.73,2.272,2.272,0,0,0,1.636-.5,1.677,1.677,0,0,0,.519-1.251q0-1.251-1.677-1.97l-3.14-1.331a7.84,7.84,0,0,1-2.821-1.983,4.374,4.374,0,0,1-.985-2.94,5.033,5.033,0,0,1,.493-2.236,5.269,5.269,0,0,1,1.384-1.756,6.473,6.473,0,0,1,2.115-1.158,8.463,8.463,0,0,1,2.715-.412,13.351,13.351,0,0,1,6.014,1.517,4.428,4.428,0,0,1-1.436,3.193,11.347,11.347,0,0,0-4.791-1.3,2.324,2.324,0,0,0-1.6.479,1.437,1.437,0,0,0-.532,1.091q0,1.038,1.57,1.677l3.194,1.357a7.114,7.114,0,0,1,3.02,2.183,5,5,0,0,1,1,3.087,5.661,5.661,0,0,1-.452,2.289,4.923,4.923,0,0,1-1.344,1.8,6.374,6.374,0,0,1-2.222,1.184,10.241,10.241,0,0,1-3.114.427A12.229,12.229,0,0,1,456.967,165.135Z"/><path class="b" d="M483.1,156.485v10.22c-.3.053-.63.093-.986.12s-.718.04-1.091.04-.741-.013-1.1-.04-.7-.067-1-.12V157.9q0-1.543-1.251-1.544h-.4a4.9,4.9,0,0,1-.159-1.41,6.018,6.018,0,0,1,.159-1.491q.693-.052,1.278-.093c.39-.026.746-.04,1.065-.04h.585a2.728,2.728,0,0,1,2.129.852A3.318,3.318,0,0,1,483.1,156.485Zm-4.659-8.41a4.126,4.126,0,0,1,2-.425,3.729,3.729,0,0,1,1.944.425,3.894,3.894,0,0,1,0,3.087,4.4,4.4,0,0,1-2.023.4,3.753,3.753,0,0,1-1.917-.4,3.894,3.894,0,0,1,0-3.087Z"/><path class="b" d="M499.655,154.276a1.736,1.736,0,0,1,3.314-.106,3.251,3.251,0,0,1,.466,1.171,2.159,2.159,0,0,0-.746,1.916v7.026a17.841,17.841,0,0,1-.385,4.059,6.245,6.245,0,0,1-1.171,2.555,4.121,4.121,0,0,1-1.984,1.317,9.509,9.509,0,0,1-2.821.373,13.728,13.728,0,0,1-5-.878,5.172,5.172,0,0,1,.293-1.624,4.181,4.181,0,0,1,.719-1.384,8.761,8.761,0,0,0,3.619.8,2.376,2.376,0,0,0,2.688-2.688v-.879a5.1,5.1,0,0,1-3.034,1.038,3.987,3.987,0,0,1-3.58-1.876,9.319,9.319,0,0,1-1.211-5.1,9.557,9.557,0,0,1,.413-2.914,6.857,6.857,0,0,1,1.131-2.2,5.009,5.009,0,0,1,1.663-1.383,4.377,4.377,0,0,1,2.01-.479A5.379,5.379,0,0,1,499.655,154.276Zm-1.011,8.437v-5.695a2.666,2.666,0,0,0-1.77-.905q-1.824,0-1.823,3.992,0,3.513,1.582,3.513A2.8,2.8,0,0,0,498.644,162.713Z"/><path class="b" d="M522.6,157.922v5.457a4.477,4.477,0,0,0,.638,2.634,3.5,3.5,0,0,1-2.422.905,2.3,2.3,0,0,1-1.889-.639,3.1,3.1,0,0,1-.506-1.942v-5.669a2.821,2.821,0,0,0-.239-1.331.975.975,0,0,0-.932-.426,2.361,2.361,0,0,0-.9.213,3.758,3.758,0,0,0-1.038.692v8.889c-.3.053-.63.093-.986.12s-.718.04-1.09.04-.737-.013-1.091-.04-.684-.067-.986-.12V153.424l.187-.186h1.57a2.148,2.148,0,0,1,2.183,1.6,5.629,5.629,0,0,1,3.7-1.65,3.327,3.327,0,0,1,2.834,1.291A5.6,5.6,0,0,1,522.6,157.922Z"/><path class="b" d="M535.824,156.485v10.22q-.453.079-.985.12c-.355.027-.718.04-1.091.04s-.741-.013-1.1-.04-.7-.067-1-.12V157.9q0-1.543-1.251-1.544H530a4.9,4.9,0,0,1-.159-1.41,6.018,6.018,0,0,1,.159-1.491q.693-.052,1.277-.093c.391-.026.747-.04,1.066-.04h.585a2.728,2.728,0,0,1,2.129.852A3.322,3.322,0,0,1,535.824,156.485Zm-4.658-8.41a4.126,4.126,0,0,1,2-.425,3.722,3.722,0,0,1,1.943.425,3.882,3.882,0,0,1,0,3.087,4.4,4.4,0,0,1-2.022.4,3.75,3.75,0,0,1-1.917-.4,3.894,3.894,0,0,1,0-3.087Z"/><path class="b" d="M554.48,161.409l.666,1.943a4.17,4.17,0,0,0,1.278,2.262,3.633,3.633,0,0,1-2.795,1.3,1.918,1.918,0,0,1-1.331-.412,3.436,3.436,0,0,1-.8-1.451l-.8-2.289a2.364,2.364,0,0,0-.612-1.1,1.442,1.442,0,0,0-.932-.28c-.389,0-.665.01-.824.027v5.3a12.869,12.869,0,0,1-4.046,0V147.3l.187-.186h1.6a2.291,2.291,0,0,1,1.757.559,2.9,2.9,0,0,1,.506,1.943v8.357h.426a.822.822,0,0,0,.745-.479l1.384-2.662a2.458,2.458,0,0,1,2.341-1.517q.773,0,2.316.053l.16.214-2.05,3.965a4.211,4.211,0,0,1-1.357,1.57A3.514,3.514,0,0,1,554.48,161.409Z"/><path class="b" d="M574.813,164.789a4.424,4.424,0,0,1-.5,1.2,3.028,3.028,0,0,1-.773.932,3.507,3.507,0,0,1-2.874-1.411,5.438,5.438,0,0,1-3.753,1.6,4.556,4.556,0,0,1-1.809-.333,3.9,3.9,0,0,1-1.3-.892,3.657,3.657,0,0,1-.8-1.291,4.425,4.425,0,0,1-.266-1.53,4.615,4.615,0,0,1,.413-2.01,4.027,4.027,0,0,1,1.13-1.437,5.023,5.023,0,0,1,1.677-.864,6.949,6.949,0,0,1,2.05-.293c.407,0,.767,0,1.077.013s.581.022.813.04V158a1.516,1.516,0,0,0-1.731-1.7,15.651,15.651,0,0,0-3.912.878,5.315,5.315,0,0,1-1.012-2.9q.639-.239,1.424-.452t1.611-.373q.824-.159,1.624-.253a12.515,12.515,0,0,1,1.436-.093,6.093,6.093,0,0,1,1.8.266,4.339,4.339,0,0,1,1.517.812,3.852,3.852,0,0,1,1.038,1.411,5.056,5.056,0,0,1,.385,2.062v5.4A1.939,1.939,0,0,0,574.813,164.789Zm-8.037-2q0,1.251,1.438,1.251a2.768,2.768,0,0,0,1.677-.772v-2.129q-.534-.027-.892-.04c-.24-.009-.422-.014-.546-.014A1.5,1.5,0,0,0,566.776,162.793Z"/></svg>