<svg xmlns="http://www.w3.org/2000/svg" viewBox="0 0 2400 1444"><defs><style>.a{fill:#009ddb;}.b,.c{fill:#fff;}.c{fill-rule:evenodd;}</style></defs><title>wn-2_1</title><rect class="a" width="2400" height="1444"/><path class="b" d="M418.494,259.17l3.923-21.228-16.329,13.927A34.931,34.931,0,0,1,418.494,259.17Z"/><path class="b" d="M394.982,250.028a34.972,34.972,0,0,1,7.695.879l-7.155-20.169-7.076,19.926A35.787,35.787,0,0,1,394.982,250.028Z"/><path class="b" d="M449.308,284.524l-20.166-7.162a35.33,35.33,0,0,1,.88,7.709,34.464,34.464,0,0,1-.637,6.526Z"/><path class="b" d="M384.627,251.59l-16-13.648,3.758,20.384A35.1,35.1,0,0,1,384.627,251.59Z"/><path class="b" d="M428.188,273.948,442.1,257.633l-21.224,3.922A34.985,34.985,0,0,1,428.188,273.948Z"/><path class="b" d="M421.727,307.657l20.373,3.758-13.637-15.993A35.066,35.066,0,0,1,421.727,307.657Z"/><path class="b" d="M369.243,261.376l-20.306-3.743L362.1,273.065A34.935,34.935,0,0,1,369.243,261.376Z"/><path class="b" d="M413.053,315.956A24.339,24.339,0,0,0,405,317.347a27.922,27.922,0,0,0,.24-3.5,28.214,28.214,0,0,0-43.324-23.867,37.485,37.485,0,0,0-73.58,13.791,30.345,30.345,0,0,0,.944,60.676H413.053a24.247,24.247,0,0,0,0-48.494Z"/><path class="b" d="M376.991,280.534a33.359,33.359,0,0,1,33.2,30.5c.015-.006.033,0,.044-.006a30.128,30.128,0,1,0-45.291-28.218A32.927,32.927,0,0,1,376.991,280.534Z"/><path class="b" d="M872.773,289.16l-40.929-14.12-59.359,4.614-9.361-9.784,59.793-5.792-13.366-16.789-60.972,9.3-23.2-21.66-15.422-.657,16.206,29.4-32.2,14.12,1.419,6.3L729,274.876,712.98,309.283S769.024,294.39,872.773,289.16Z"/><path class="b" d="M655.439,360.917l208.469-.693c13.439-43.464,33.918-63.691,33.918-63.691C645.056,301.95,655.439,360.917,655.439,360.917Zm78.923-18.138a6.979,6.979,0,1,1,6.958-7A6.976,6.976,0,0,1,734.362,342.779Zm30.249-.09a6.98,6.98,0,1,1,6.944-7.008A6.976,6.976,0,0,1,764.611,342.689Zm30.228-.091a6.98,6.98,0,1,1,6.958-7.007A6.972,6.972,0,0,1,794.839,342.6Z"/><path class="b" d="M1213.333,308.462a18.736,18.736,0,1,1-18.739-18.736A18.741,18.741,0,0,1,1213.333,308.462Z"/><path class="b" d="M1194.594,337.882a29.445,29.445,0,0,1-27.637-19.433c-5.77,2.616-87.716,40.471-26.079,57.514,59.7,16.51,64.894-33.841,65.319-40.472A29.262,29.262,0,0,1,1194.594,337.882Z"/><path class="b" d="M1277.873,320.34c-15.237-58.736-59.885-40.088-67.282-36.536a29.321,29.321,0,0,1,6.181,43.936C1229.122,336.315,1292.914,378.331,1277.873,320.34Z"/><path class="b" d="M1194.594,279.045a29.326,29.326,0,0,1,5.472.529c.722-7.47,8.461-95.686-36.782-51.161-43.515,42.823-4.313,72.256,2.115,76.617A29.448,29.448,0,0,1,1194.594,279.045Z"/><path class="b" d="M1621.58,229.171A68.424,68.424,0,1,0,1690,297.594,68.421,68.421,0,0,0,1621.58,229.171Zm31.918,58.257-28.122,21.663c-.08.059-.172.1-.252.159a4.644,4.644,0,0,1-.42.274c-.188.1-.371.2-.559.285-.149.063-.3.136-.447.189a6.366,6.366,0,0,1-.635.185c-.143.036-.275.076-.414.1a6.8,6.8,0,0,1-.9.086c-.057,0-.109.014-.16.014a6.111,6.111,0,0,1-1.323-.153c-.113-.019-.218-.069-.321-.089a6.538,6.538,0,0,1-.933-.331c-.139-.066-.272-.149-.418-.225a5.825,5.825,0,0,1-.724-.463,3.823,3.823,0,0,1-.42-.358c-.116-.1-.245-.185-.361-.3l-34.4-35.969a6.218,6.218,0,0,1,8.982-8.6l30.544,31.935,23.7-18.248a6.215,6.215,0,0,1,7.584,9.849Z"/><path class="b" d="M2038.781,379.092a9.68,9.68,0,0,0,7.489-4.261l27.983-43.286a4.2,4.2,0,0,0-2.058-6.175l-48.662-20.238a13.858,13.858,0,0,0-9.163,0l-48.662,20.238a4.2,4.2,0,0,0-2.058,6.175l27.983,43.286a9.689,9.689,0,0,0,7.489,4.261Z"/><path class="b" d="M2059.019,287.9l-11.365-4.867a1.252,1.252,0,0,0-.062-.207l-7.71-15.544a4.364,4.364,0,0,0-3.579-2.217h-7.442V262.59a2.482,2.482,0,0,0-2.478-2.486H2011.52a2.489,2.489,0,0,0-2.485,2.486v2.477H2001.6a4.386,4.386,0,0,0-3.587,2.217l-7.7,15.4a1.676,1.676,0,0,0-.117.365l-11.31,4.854a8.173,8.173,0,0,0-4.558,6.911v18.545l44.615-18.545,44.621,18.545V294.813A8.179,8.179,0,0,0,2059.019,287.9Zm-79.729,18.021v-11.11a3.411,3.411,0,0,1,1.542-2.348l25.6-10.98c.385-.164.887-.323,1.39-.481l2.712-.565A29.571,29.571,0,0,1,2014,280v9.857a5.127,5.127,0,0,0,.3,1.521Zm79.323,0L2023.6,291.377a4.944,4.944,0,0,0,.3-1.521v-9.837a27.412,27.412,0,0,1,3.263.434l3.441.736c.29.111.62.2.868.3l25.58,10.959a3.417,3.417,0,0,1,1.556,2.361Z"/><path class="b" d="M2097.693,258.005h25.615a1.832,1.832,0,0,0,1.824-1.824V245.373a1.841,1.841,0,0,0-1.824-1.824h-25.615V217.927a1.833,1.833,0,0,0-1.824-1.831h-10.8a1.83,1.83,0,0,0-1.831,1.831v25.622h-25.609a1.842,1.842,0,0,0-1.83,1.824v10.808a1.837,1.837,0,0,0,1.83,1.824h25.609v25.6a1.838,1.838,0,0,0,1.831,1.824h10.807a1.84,1.84,0,0,0,1.818-1.824Z"/><path class="b" d="M354.114,658.987a75.841,75.841,0,0,0-61.589,120.12,10.156,10.156,0,0,0,8.24,4.219H407.457a10.143,10.143,0,0,0,8.236-4.219,75.829,75.829,0,0,0-61.579-120.12Zm0,19.5a6.145,6.145,0,1,1-6.151,6.145A6.141,6.141,0,0,1,354.114,678.487Zm-46.068,38.36A6.145,6.145,0,1,1,314.2,710.7,6.146,6.146,0,0,1,308.046,716.847Zm13.16-24.769a6.147,6.147,0,1,1,6.151,6.145A6.149,6.149,0,0,1,321.206,692.078Zm32.908,79.3a12.432,12.432,0,0,1-12.433-12.437,12.3,12.3,0,0,1,3.139-8.187L330.658,715.37a5.586,5.586,0,0,1,10.375-4.145L355.2,746.612a12.4,12.4,0,0,1-1.085,24.764Zm26.754-73.153a6.145,6.145,0,1,1,6.151-6.145A6.146,6.146,0,0,1,380.868,698.223Zm19.308,18.624a6.145,6.145,0,1,1,6.142-6.151A6.155,6.155,0,0,1,400.176,716.847Z"/><path class="b" d="M718.191,756.64c-27.273,29.165-22.474,34-16.67,39.8s10.636,10.6,39.808-16.678c25.064,23.4,30.078,18.394,56.533-8.061L782.1,755.944l22.279-22.272-9.866-9.866-22.273,22.272-20.36-20.359,22.272-22.273-9.865-9.859-22.273,22.266L726.058,699.9C699.528,726.428,694.581,731.4,718.191,756.64Z"/><path class="b" d="M835.014,685.673c27.273-29.164,22.475-34,16.67-39.8s-10.636-10.6-39.808,16.67c-25.069-23.394-30.077-18.387-56.532,8.069l71.8,71.8C853.678,715.886,858.631,710.913,835.014,685.673Z"/><polygon class="b" points="1109.104 783.903 1289.079 783.903 1289.079 753.543 1109.104 692.83 1109.104 783.903"/><path class="b" d="M1164.581,666.52l-3.262-.2a7.226,7.226,0,0,1-1.574-.267,3.92,3.92,0,0,1,1.5-7.638l6.044.171a16.177,16.177,0,0,1,4.249.585l.115.035a4.446,4.446,0,0,1,2.849,5.612l-10.224,31.423a4.451,4.451,0,1,1-8.466-2.755Z"/><path class="b" d="M1175.685,682.828l.039-.115c3.675-11.314,13.578-17.885,23.94-14.515,10.309,3.354,14.428,14.366,10.753,25.679l-.039.115c-3.683,11.306-13.533,17.9-23.949,14.508S1172,694.133,1175.685,682.828Zm25.852,8.409.038-.114c2.3-7.076.588-13.549-4.539-15.211s-10.156,2.422-12.471,9.548l-.046.115c-2.316,7.133-.642,13.533,4.539,15.218S1199.237,698.313,1201.537,691.237Z"/><path class="b" d="M1219.112,685.93l.039-.115c1.8-5.52,7.1-8.722,12.777-6.877,5.623,1.834,7.977,7.473,6.2,12.93l-.039.114c-1.781,5.46-7.084,8.723-12.769,6.87C1219.7,697.022,1217.339,691.386,1219.112,685.93Zm13.1,4.264.038-.114c.849-2.622.146-5.373-2.078-6.1-2.346-.757-4.294,1.07-5.128,3.629l-.038.115c-.855,2.618-.145,5.376,2.079,6.1C1229.429,694.584,1231.392,692.7,1232.21,690.194Zm-14.473,23.258,36.007-25.994a2.95,2.95,0,0,1,2.659-.42,2.741,2.741,0,0,1,1.766,3.469,2.907,2.907,0,0,1-1.192,1.582l-36,25.989a2.944,2.944,0,0,1-2.667.429,2.732,2.732,0,0,1-1.757-3.47A3.218,3.218,0,0,1,1217.737,713.452Zm18.852.221.03-.115c1.8-5.513,7.092-8.723,12.777-6.87,5.625,1.831,7.978,7.47,6.205,12.927l-.03.106c-1.781,5.46-7.1,8.727-12.785,6.881C1237.162,724.769,1234.809,719.133,1236.589,713.673Zm13.083,4.26.045-.114c.848-2.614.145-5.376-2.078-6.1-2.346-.765-4.295,1.065-5.128,3.633l-.046.111c-.848,2.624-.145,5.372,2.087,6.1C1246.89,722.324,1248.862,720.443,1249.672,717.933Z"/><path class="b" d="M1635.248,676.132v-20.28h17.133a11.915,11.915,0,0,0,0-23.83h-60.488a11.915,11.915,0,0,0,0,23.83h18.62v20.28h-5.3c-21.523,0-53.545,14.261-53.545,53.548v25.281h35.694V729.68c0-9.6,3.7-12.932,7.323-14.922a26.809,26.809,0,0,1,10.679-2.929h86.12v-35.7Z"/><path class="b" d="M1583.91,789.8c-.187-.547-.546-1.424-.784-1.948l-12.985-27.556c-.244-.521-.647-.521-.891,0l-12.986,27.556c-.237.524-.6,1.4-.783,1.948a20.572,20.572,0,0,0-1.021,5.263,15.235,15.235,0,0,0,30.47,0A20.589,20.589,0,0,0,1583.91,789.8Z"/><path class="c" d="M1993.453,796.777a44.972,44.972,0,0,0,8.828-4.105c7.767-5,13.576-11.664,16.145-20.757.924-3.264,1.8-6.536,2.556-9.831a32.871,32.871,0,0,1,10.823-17.747c27.111-23.778,22.195-18.961,49.219-42.852a23.39,23.39,0,0,1,14.1-6.086,82.642,82.642,0,0,0,13.355-1.959c5.939-1.519,11.039-4.577,13.953-10.38a32.507,32.507,0,0,0,3.437-15.366,19.551,19.551,0,0,0-1.823-8.325c-3.7,5.4-7.294,10.583-10.811,15.809a1.8,1.8,0,0,1-2.218.931c-3.628-.854-7.275-1.559-10.9-2.424a3.279,3.279,0,0,1-1.8-1.281c-1.9-2.936-3.745-5.9-5.5-8.93a2.3,2.3,0,0,1,.111-1.937c1.57-2.615,3.246-5.159,4.9-7.718,1.8-2.781,3.6-5.566,5.692-8.812-1.916.286-3.5.222-4.824.763a86.229,86.229,0,0,0-10.7,4.972c-7.583,4.451-11.821,11.091-12.16,20.047a39.99,39.99,0,0,1-.64,5.544,11.478,11.478,0,0,1-3.776,6.823q-5.71,5.073-11.384,10.133c-9.622,8.541-10.552,9.243-20.18,17.784-16.367,14.534-9.394,8.337-25.737,22.915a24.917,24.917,0,0,1-13.466,6.2c-3.967.548-7.964.868-11.932,1.376-7.275.921-14.032,3.339-18.652,9.218a36.5,36.5,0,0,0-7.762,24.832,22.49,22.49,0,0,0,1,4.422,7.1,7.1,0,0,0,.782,1.414c.461-.628.782-1.069,1.1-1.519,3.832-5.574,7.676-11.13,11.476-16.724a1.824,1.824,0,0,1,2.058-.976c4.348.668,8.716,1.2,13.065,1.913a3.063,3.063,0,0,1,1.86,1.327c2.163,3.57,4.171,7.223,6.315,10.808a1.822,1.822,0,0,1-.124,2.276q-3.547,5.166-6.966,10.4c-1.688,2.578-3.278,5.22-4.916,7.839.092.166.159.332.246.511C1989.96,797.146,1991.851,797.362,1993.453,796.777Zm30.314-61a9.309,9.309,0,0,1,2.156-2.785c16.047-14.374,8.766-8.008,24.837-22.348,7.238-6.453,5.772-5.086,13.1-11.443a9.22,9.22,0,0,1,4.133-2.035c2.359-.45,3.813,1.53,2.846,3.73a9.916,9.916,0,0,1-2.353,3.224c-11.8,10.5-14.938,13.121-26.778,23.571a.215.215,0,0,1-.061-.064c-11.631,10.179.111-.354-11.569,9.773a8.612,8.612,0,0,1-3.666,1.916C2024.081,739.812,2022.7,737.912,2023.767,735.775Z"/><polygon class="b" points="306.519 1193.119 292.387 1178.985 326.653 1144.719 292.387 1110.454 306.519 1096.319 354.922 1144.719 306.519 1193.119"/><polygon class="b" points="367.439 1193.119 353.307 1178.985 387.567 1144.719 353.307 1110.454 367.439 1096.319 415.841 1144.719 367.439 1193.119"/><path class="b" d="M852.46,1129.753c0-35.041-33.958-63.444-75.851-63.444s-75.864,28.4-75.864,63.444,33.965,63.441,75.864,63.441A89.163,89.163,0,0,0,800.7,1189.9l33.224,33.227-11.5-42.824C840.673,1168.724,852.46,1150.393,852.46,1129.753Zm-71.248,32.5a7.7,7.7,0,0,1-10.835,0,7.549,7.549,0,0,1,5.32-12.907,7.591,7.591,0,0,1,5.49,2.208,7.162,7.162,0,0,1,2.276,5.338A7.263,7.263,0,0,1,781.212,1162.248Zm15.267-43.662a20.818,20.818,0,0,1-2.649,5.165,38.786,38.786,0,0,1-5.075,5.2,35.946,35.946,0,0,0-4.807,4.923,12.97,12.97,0,0,0-1.632,3.814,30.523,30.523,0,0,0-.84,6.62H769.518l-.043-1.985a25.938,25.938,0,0,1,2.165-10.745,26.457,26.457,0,0,1,7.013-9.066q4.68-4.109,5.648-5.649a6.676,6.676,0,0,0,.968-3.62,6,6,0,0,0-2.361-4.786,10.807,10.807,0,0,0-12.993.429,8.152,8.152,0,0,0-2.649,6.166H755.709a18.143,18.143,0,0,1,5.822-14.042q5.913-5.55,15.58-5.549a22.558,22.558,0,0,1,10.59,2.3,17.676,17.676,0,0,1,6.991,6.619,17.252,17.252,0,0,1,2.627,9.089A16.171,16.171,0,0,1,796.479,1118.586Z"/><path class="c" d="M1187.487,1075.112h-6.956a3.106,3.106,0,0,0-3.1,3.093v29.39h-27.345a15.7,15.7,0,0,0-4.384.764,15.416,15.416,0,0,0-4.03,1.823l-18.369,12.614a2.93,2.93,0,0,0,0,5.179l18.369,12.609a17.595,17.595,0,0,0,8.414,2.592h27.345v68.058a3.106,3.106,0,0,0,3.1,3.093h6.956a3.1,3.1,0,0,0,3.1-3.093V1078.205A3.1,3.1,0,0,0,1187.487,1075.112Zm87.39,32.215-18.37-12.61a15.532,15.532,0,0,0-4.024-1.833,15.927,15.927,0,0,0-4.389-.758h-52.873l6.2,35.58h46.677a15.893,15.893,0,0,0,4.389-.759,15.466,15.466,0,0,0,4.024-1.833l18.37-12.609a2.929,2.929,0,0,0,0-5.178Z"/><path class="b" d="M1671.747,1189.559a4.242,4.242,0,0,0-4.145,3.339c-2.778,2.315-18.694,6.464-46.026,6.464s-43.244-4.149-46.022-6.464a4.245,4.245,0,0,0-8.392.908c0,13.036,41.65,14.049,54.414,14.049s54.421-1.013,54.421-14.049A4.248,4.248,0,0,0,1671.747,1189.559Z"/><path class="b" d="M1686.151,1103.28a11.979,11.979,0,0,0-7.753,21.153l-20.8,24.483-10.436-38.124a14.823,14.823,0,1,0-9.851-.66l-15.736,36.209-15.733-36.209a14.962,14.962,0,1,0-9.851.656l-10.435,38.128-20.313-23.911a12.458,12.458,0,1,0-5.2,2.873l10.057,41.67a4.222,4.222,0,0,0-2.934,4.012c0,13.041,41.65,14.05,54.414,14.05S1676,1186.6,1676,1173.56a4.23,4.23,0,0,0-2.94-4.015l10.278-42.578a11.71,11.71,0,0,0,2.816.367,12.027,12.027,0,1,0,0-24.054Z"/><path class="b" d="M2086.515,1128.741a30.7,30.7,0,0,0,1.591-10.191c0-5.069-1.591-9.961-1.957-14.087-.785-10.33-.991-10.928-2.559-13.858-2.927-5.3-9.021-8.786-16.423-10.169v4.681c6.435,1.2,12.919,5.488,12.919,11.16,0,8.786-11.553,0-11.553,13.1,0,8.415.366,10.957,3.528,11.919,1.912.605,5.486.416,6.458,1.388,1.359,1.384.363,2.375,2.74,6.062,2.515,31.731,13.673,30.785,13.673,50.175,0,7.821-4.495,13.285-10.557,13.285-7.654,0-11.35-8.807-11.35-18.4,0-7.448,3.531-16.852,3.531-23.121,0-13.312-5.486-18.383-14.9-21.936v-42.076c0-5.073-1.939-7.039-9.547-7.039h-38.761c-9.984,0-13.306.81-13.306,7.039V1202h-11.754v7.809h83.954V1202h-10.586v-67.148c6.113,1.728,9.8,6.273,9.8,17.383,0,4.521-3.521,11.418-3.521,20.409,0,16.024,6.261,24.65,17.221,24.65,9.614,0,14.688-7.632,14.688-18.381C2099.846,1159.132,2090.045,1162.226,2086.515,1128.741Zm-7.633-11.5c-5.28,0-6.251,0-6.251-5.123,0-5.282,0-6.275,6.251-6.459Zm-25.2,6.61c0,3.322-2.191,3.533-6.872,3.533H2012.96c-3.138,0-4.911-1.57-4.911-3.533v-32.878c0-2.513,1.2-3.114,5.672-3.114h34.631c3.942,0,5.328.969,5.328,3.114Z"/></svg>