<svg xmlns="http://www.w3.org/2000/svg" viewBox="0 0 26.798 16.971"><path d="M10.815,7.586a2.883,2.883,0,0,0,2.536-3.161C13.351,1.451,11.276,0,8.648,0H0V16.619H8.648s5.28.166,5.28-4.906c0,0,.23-4.127-3.113-4.127m-7-4.633H8.648s1.176,0,1.176,1.729-.692,1.98-1.476,1.98H3.811ZM8.425,13.665H3.811V9.223H8.648S10.4,9.2,10.4,11.506c0,1.922-1.281,2.14-1.975,2.159"/><path d="M20.97,4.228c-6.392,0-6.387,6.385-6.387,6.385a5.9,5.9,0,0,0,6.387,6.353s5.686.325,5.686-4.419H23.731s.1,1.787-2.666,1.787a2.7,2.7,0,0,1-2.923-2.892h8.61S27.7,4.228,20.97,4.228m-2.861,5a2.971,2.971,0,0,1,2.924-2.561,2.473,2.473,0,0,1,2.535,2.561Z"/><rect x="17.394" y="0.978" width="6.857" height="2.047"/></svg>