<svg xmlns="http://www.w3.org/2000/svg" viewBox="0 0 22 22"><path d="M11,0A11,11,0,1,0,22,11,11.013,11.013,0,0,0,11,0Zm7.272,5.072a9.347,9.347,0,0,1,2.121,5.854,21.939,21.939,0,0,0-6.543-.3q-.1-.242-.2-.485c-.2-.458-.4-.913-.623-1.361A12.5,12.5,0,0,0,18.272,5.072ZM11,1.618a9.36,9.36,0,0,1,6.229,2.368A10.61,10.61,0,0,1,12.305,7.38,50.022,50.022,0,0,0,8.8,1.88,9.34,9.34,0,0,1,11,1.618Zm-3.994.893a59.874,59.874,0,0,1,3.482,5.434A35.023,35.023,0,0,1,1.8,9.09,9.429,9.429,0,0,1,7.006,2.511Zm-5.4,8.5c0-.1,0-.193,0-.288A34.576,34.576,0,0,0,11.264,9.39c.27.527.525,1.061.762,1.595-.124.034-.248.071-.37.111a14.906,14.906,0,0,0-7.637,6.2A9.37,9.37,0,0,1,1.6,11.014Zm9.4,9.4a9.352,9.352,0,0,1-5.767-1.983A12.888,12.888,0,0,1,12.6,12.559l.062-.02a38.992,38.992,0,0,1,2.005,7.125A9.333,9.333,0,0,1,11,20.409ZM16.25,18.8a40.592,40.592,0,0,0-1.825-6.7,13.765,13.765,0,0,1,5.852.4A9.413,9.413,0,0,1,16.25,18.8Z"/></svg>