<svg xmlns="http://www.w3.org/2000/svg" viewBox="0 0 24 24"><path d="M17.169,24H6.831A6.838,6.838,0,0,1,0,17.169V6.83A6.838,6.838,0,0,1,6.831,0H17.169A6.839,6.839,0,0,1,24,6.83V17.169A6.839,6.839,0,0,1,17.169,24ZM6.831,2.057A4.778,4.778,0,0,0,2.057,6.83V17.169a4.779,4.779,0,0,0,4.774,4.774H17.169a4.78,4.78,0,0,0,4.774-4.774V6.83a4.779,4.779,0,0,0-4.774-4.773Z"/><path d="M12,18.145A6.145,6.145,0,1,1,18.145,12,6.152,6.152,0,0,1,12,18.145ZM12,7.912A4.088,4.088,0,1,0,16.088,12,4.093,4.093,0,0,0,12,7.912Z"/><path d="M19.885,5.5a1.477,1.477,0,1,1-1.476-1.477A1.476,1.476,0,0,1,19.885,5.5Z"/></svg>