<svg xmlns="http://www.w3.org/2000/svg" viewBox="0 0 25.149 13.95"><path d="M.854,7.185a.823.823,0,0,0-.6.252A.836.836,0,0,0,0,8.051v3.394a.812.812,0,0,0,.339.708.926.926,0,0,0,.726.17.82.82,0,0,0,.509-.258,1.024,1.024,0,0,0,.146-.62V8.051a.836.836,0,0,0-.251-.614.837.837,0,0,0-.615-.252"/><path d="M6.249,5.172a.879.879,0,0,0-.878.878v7.221a.577.577,0,0,0,.246.509,1.089,1.089,0,0,0,.632.169,1.044,1.044,0,0,0,.615-.169.584.584,0,0,0,.239-.509V6.05a.856.856,0,0,0-.251-.621.816.816,0,0,0-.6-.257"/><path d="M3.546,4.131a.859.859,0,0,0-.854.854V12.9a.584.584,0,0,0,.239.509,1.042,1.042,0,0,0,.615.169,1.063,1.063,0,0,0,.626-.169.582.582,0,0,0,.24-.509V4.985a.822.822,0,0,0-.251-.6.837.837,0,0,0-.615-.252"/><path d="M21.182,6.05a3.836,3.836,0,0,0-1.521.3A6.945,6.945,0,0,0,12.721,0a6.679,6.679,0,0,0-1.557.187Q10.8.3,10.8.912V13.645a.347.347,0,0,0,.053.164.279.279,0,0,0,.158.129l10.182.012a3.966,3.966,0,0,0,3.955-3.956,3.787,3.787,0,0,0-1.164-2.785,3.829,3.829,0,0,0-2.8-1.159"/><path d="M9.2.491a.84.84,0,0,0-.76.222,1.1,1.1,0,0,0-.375.89v11.7q0,.644.866.643t.866-.643V1.6Q9.8.62,9.2.491"/></svg>