<svg xmlns="http://www.w3.org/2000/svg" viewBox="0 0 21.907 17.803"><path d="M21.3.328a8.979,8.979,0,0,1-2.854,1.09,4.5,4.5,0,0,0-7.659,4.1A12.76,12.76,0,0,1,1.525.822a4.5,4.5,0,0,0,1.391,6A4.467,4.467,0,0,1,.88,6.261v.056a4.5,4.5,0,0,0,3.605,4.407,4.446,4.446,0,0,1-1.184.158,4.528,4.528,0,0,1-.846-.08,4.5,4.5,0,0,0,4.2,3.121,9.014,9.014,0,0,1-5.582,1.924A9.024,9.024,0,0,1,0,15.784,12.714,12.714,0,0,0,6.89,17.8,12.7,12.7,0,0,0,19.677,5.015c0-.195,0-.389-.012-.581a9.152,9.152,0,0,0,2.242-2.327,8.978,8.978,0,0,1-2.581.707A4.5,4.5,0,0,0,21.3.328"/></svg>